# Made in Blockbench 4.6.0
mtllib materials.mtl

o cube
v 0.3125 0.125 0.28125
v 0.3125 0.125 -0.375
v 0.3125 0.125 0.28125
v 0.3125 0.125 -0.375
v -0.3125 0.125 -0.375
v -0.3125 0.125 0.28125
v -0.3125 0.125 -0.375
v -0.3125 0.125 0.28125
vt 0.1875 0.65625
vt 0.8125 0.65625
vt 0.8125 0
vt 0.1875 0
vt 0.1875 0.65625
vt 0.8125 0.65625
vt 0.8125 0
vt 0.1875 0
vn 0 1 0
vn 0 -1 0
usemtl m_afbcdde6-6386-d9f7-db0f-dc4cad4a407a
f 6/4/1 1/3/1 2/2/1 5/1/1
f 7/8/2 4/7/2 3/6/2 8/5/2
o cube
v 0.30981917382415913 0.18861043456039805 0.28125
v 0.30981917382415913 0.18861043456039805 -0.375
v 0.37611043456039805 0.12231917382415924 0.28125
v 0.37611043456039805 0.12231917382415924 -0.375
v 0.24352791308792043 0.12231917382415924 -0.375
v 0.24352791308792043 0.12231917382415924 0.28125
v 0.30981917382415924 0.05602791308792043 -0.375
v 0.30981917382415924 0.05602791308792043 0.28125
vt 0.65625 1
vt 0.65625 0.9375
vt 0.5625 0.9375
vt 0.5625 1
vt 0.3125 1
vt 0.3125 0.34375
vt 0.21875 0.34375
vt 0.21875 1
vt 0.65625 1
vt 0.65625 0.9375
vt 0.5625 0.9375
vt 0.5625 1
vt 0.15625 1
vt 0.15625 0.34375
vt 0.0625 0.34375
vt 0.0625 1
vt 0.375 1
vt 0.46875 1
vt 0.46875 0.34375
vt 0.375 0.34375
vt 0.375 1
vt 0.46875 1
vt 0.46875 0.34375
vt 0.375 0.34375
vn 0 0 -1
vn 0.7071067811865475 0.7071067811865476 0
vn 0 0 1
vn -0.7071067811865475 -0.7071067811865476 0
vn -0.7071067811865476 0.7071067811865475 0
vn 0.7071067811865476 -0.7071067811865475 0
usemtl m_014ea491-2a3a-e8a1-ab45-43917a36b3d1
f 12/12/3 15/11/3 13/10/3 10/9/3
f 11/16/4 12/15/4 10/14/4 9/13/4
f 16/20/5 11/19/5 9/18/5 14/17/5
f 15/24/6 16/23/6 14/22/6 13/21/6
f 14/28/7 9/27/7 10/26/7 13/25/7
f 15/32/8 12/31/8 11/30/8 16/29/8
o cube
v -0.30981917382415924 0.18861043456039805 0.28125
v -0.30981917382415924 0.18861043456039805 -0.375
v -0.24352791308792038 0.12231917382415924 0.28125
v -0.24352791308792038 0.12231917382415924 -0.375
v -0.37611043456039805 0.12231917382415924 -0.375
v -0.37611043456039805 0.12231917382415924 0.28125
v -0.30981917382415924 0.05602791308792043 -0.375
v -0.30981917382415924 0.05602791308792043 0.28125
vt 0.65625 1
vt 0.65625 0.9375
vt 0.5625 0.9375
vt 0.5625 1
vt 0.46875 1
vt 0.46875 0.34375
vt 0.375 0.34375
vt 0.375 1
vt 0.65625 1
vt 0.65625 0.9375
vt 0.5625 0.9375
vt 0.5625 1
vt 0.46875 1
vt 0.46875 0.34375
vt 0.375 0.34375
vt 0.375 1
vt 0.0625 1
vt 0.15625 1
vt 0.15625 0.34375
vt 0.0625 0.34375
vt 0.21875 1
vt 0.3125 1
vt 0.3125 0.34375
vt 0.21875 0.34375
vn 0 0 -1
vn 0.7071067811865475 0.7071067811865476 0
vn 0 0 1
vn -0.7071067811865475 -0.7071067811865476 0
vn -0.7071067811865476 0.7071067811865475 0
vn 0.7071067811865476 -0.7071067811865475 0
usemtl m_014ea491-2a3a-e8a1-ab45-43917a36b3d1
f 20/36/9 23/35/9 21/34/9 18/33/9
f 19/40/10 20/39/10 18/38/10 17/37/10
f 24/44/11 19/43/11 17/42/11 22/41/11
f 23/48/12 24/47/12 22/46/12 21/45/12
f 22/52/13 17/51/13 18/50/13 21/49/13
f 23/56/14 20/55/14 19/54/14 24/53/14
o cube
v -0.28125 0.6548494156391085 0.47835429045636213
v -0.28125 0.6907259874233356 0.39174058428342895
v -0.28125 0.33726582633835356 0.3468068605808625
v -0.28125 0.37314239812258077 0.26019315440792945
v -0.34375 0.6907259874233356 0.39174058428342895
v -0.34375 0.6548494156391085 0.47835429045636213
v -0.34375 0.37314239812258077 0.26019315440792945
v -0.34375 0.33726582633835356 0.3468068605808625
vt 0.78125 1
vt 0.84375 1
vt 0.84375 0.65625
vt 0.78125 0.65625
vt 0.6875 1
vt 0.78125 1
vt 0.78125 0.65625
vt 0.6875 0.65625
vt 0.78125 1
vt 0.84375 1
vt 0.84375 0.65625
vt 0.78125 0.65625
vt 0.25 1
vt 0.34375 1
vt 0.34375 0.65625
vt 0.25 0.65625
vn 0 0.3826834323650897 -0.9238795325112867
vn 1 0 0
vn 0 -0.3826834323650897 0.9238795325112867
vn -1 0 0
usemtl m_afbcdde6-6386-d9f7-db0f-dc4cad4a407a
f 28/60/15 31/59/15 29/58/15 26/57/15
f 27/64/16 28/63/16 26/62/16 25/61/16
f 32/68/17 27/67/17 25/66/17 30/65/17
f 31/72/18 32/71/18 30/70/18 29/69/18
o cube
v 0.3085038717028121 0.058503871702812016 -0.25
v 0.3085038717028121 0.058503871702812016 -0.3125
v -0.25 -0.5 -0.25
v -0.25 -0.5 -0.3125
v 0.24221261096657332 0.12479513243905083 -0.3125
v 0.24221261096657332 0.12479513243905083 -0.25
v -0.3162912607362388 -0.4337087392637612 -0.3125
v -0.3162912607362388 -0.4337087392637612 -0.25
vt 0.21875 1
vt 0.3125 1
vt 0.3125 0.23124999999999996
vt 0.21875 0.23124999999999996
vt 0.1875 1
vt 0.25 1
vt 0.25 0.23124999999999996
vt 0.1875 0.23124999999999996
vt 0.21875 1
vt 0.3125 1
vt 0.3125 0.23124999999999996
vt 0.21875 0.23124999999999996
vt 0.03125 1
vt 0.09375 1
vt 0.09375 0.23124999999999996
vt 0.03125 0.23124999999999996
vt 0.6875 0.9375
vt 0.6875 1
vt 0.78125 1
vt 0.78125 0.9375
vt 0.6875 0.71875
vt 0.6875 0.8125
vt 0.75 0.8125
vt 0.75 0.71875
vn 0 0 -1
vn 0.7071067811865475 -0.7071067811865476 0
vn 0 0 1
vn -0.7071067811865475 0.7071067811865476 0
vn 0.7071067811865476 0.7071067811865475 0
vn -0.7071067811865476 -0.7071067811865475 0
usemtl m_014ea491-2a3a-e8a1-ab45-43917a36b3d1
f 36/76/19 39/75/19 37/74/19 34/73/19
f 35/80/20 36/79/20 34/78/20 33/77/20
f 40/84/21 35/83/21 33/82/21 38/81/21
f 39/88/22 40/87/22 38/86/22 37/85/22
f 38/92/23 33/91/23 34/90/23 37/89/23
f 39/96/24 36/95/24 35/94/24 40/93/24
o cube
v 0.3085038717028121 0.058503871702812016 0.28125
v 0.3085038717028121 0.058503871702812016 0.21875
v -0.25 -0.5 0.28125
v -0.25 -0.5 0.21875
v 0.24221261096657332 0.12479513243905083 0.21875
v 0.24221261096657332 0.12479513243905083 0.28125
v -0.3162912607362388 -0.4337087392637612 0.21875
v -0.3162912607362388 -0.4337087392637612 0.28125
vt 0.21875 1
vt 0.3125 1
vt 0.3125 0.23124999999999996
vt 0.21875 0.23124999999999996
vt 0.1875 1
vt 0.25 1
vt 0.25 0.23124999999999996
vt 0.1875 0.23124999999999996
vt 0.21875 1
vt 0.3125 1
vt 0.3125 0.23124999999999996
vt 0.21875 0.23124999999999996
vt 0.03125 1
vt 0.09375 1
vt 0.09375 0.23124999999999996
vt 0.03125 0.23124999999999996
vt 0.6875 0.9375
vt 0.6875 1
vt 0.78125 1
vt 0.78125 0.9375
vt 0.6875 0.71875
vt 0.6875 0.8125
vt 0.75 0.8125
vt 0.75 0.71875
vn 0 0 -1
vn 0.7071067811865475 -0.7071067811865476 0
vn 0 0 1
vn -0.7071067811865475 0.7071067811865476 0
vn 0.7071067811865476 0.7071067811865475 0
vn -0.7071067811865476 -0.7071067811865475 0
usemtl m_014ea491-2a3a-e8a1-ab45-43917a36b3d1
f 44/100/25 47/99/25 45/98/25 42/97/25
f 43/104/26 44/103/26 42/102/26 41/101/26
f 48/108/27 43/107/27 41/106/27 46/105/27
f 47/112/28 48/111/28 46/110/28 45/109/28
f 46/116/29 41/115/29 42/114/29 45/113/29
f 47/120/30 44/119/30 43/118/30 48/117/30
o cube
v -0.24331746531217735 0.12589998678465486 -0.1875
v -0.24331746531217735 0.12589998678465486 -0.25
v 0.3162912607362388 -0.4337087392637612 -0.1875
v 0.3162912607362388 -0.4337087392637612 -0.25
v -0.30960872604841616 0.05960872604841605 -0.25
v -0.30960872604841616 0.05960872604841605 -0.1875
v 0.25 -0.5 -0.25
v 0.25 -0.5 -0.1875
vt 0.3125 1
vt 0.21875 1
vt 0.21875 0.23124999999999996
vt 0.3125 0.23124999999999996
vt 0.09375 1
vt 0.03125 1
vt 0.03125 0.23124999999999996
vt 0.09375 0.23124999999999996
vt 0.3125 1
vt 0.21875 1
vt 0.21875 0.23124999999999996
vt 0.3125 0.23124999999999996
vt 0.25 1
vt 0.1875 1
vt 0.1875 0.23124999999999996
vt 0.25 0.23124999999999996
vt 0.6875 1
vt 0.6875 0.9375
vt 0.78125 0.9375
vt 0.78125 1
vt 0.6875 0.8125
vt 0.6875 0.71875
vt 0.75 0.71875
vt 0.75 0.8125
vn 0 0 -1
vn 0.7071067811865475 0.7071067811865476 0
vn 0 0 1
vn -0.7071067811865475 -0.7071067811865476 0
vn -0.7071067811865476 0.7071067811865475 0
vn 0.7071067811865476 -0.7071067811865475 0
usemtl m_014ea491-2a3a-e8a1-ab45-43917a36b3d1
f 52/124/31 55/123/31 53/122/31 50/121/31
f 51/128/32 52/127/32 50/126/32 49/125/32
f 56/132/33 51/131/33 49/130/33 54/129/33
f 55/136/34 56/135/34 54/134/34 53/133/34
f 54/140/35 49/139/35 50/138/35 53/137/35
f 55/144/36 52/143/36 51/142/36 56/141/36
o cube
v -0.24331746531217735 0.12589998678465486 0.21875
v -0.24331746531217735 0.12589998678465486 0.15625
v 0.3162912607362388 -0.4337087392637612 0.21875
v 0.3162912607362388 -0.4337087392637612 0.15625
v -0.30960872604841616 0.05960872604841605 0.15625
v -0.30960872604841616 0.05960872604841605 0.21875
v 0.25 -0.5 0.15625
v 0.25 -0.5 0.21875
vt 0.3125 1
vt 0.21875 1
vt 0.21875 0.23124999999999996
vt 0.3125 0.23124999999999996
vt 0.09375 1
vt 0.03125 1
vt 0.03125 0.23124999999999996
vt 0.09375 0.23124999999999996
vt 0.3125 1
vt 0.21875 1
vt 0.21875 0.23124999999999996
vt 0.3125 0.23124999999999996
vt 0.25 1
vt 0.1875 1
vt 0.1875 0.23124999999999996
vt 0.25 0.23124999999999996
vt 0.6875 1
vt 0.6875 0.9375
vt 0.78125 0.9375
vt 0.78125 1
vt 0.6875 0.8125
vt 0.6875 0.71875
vt 0.75 0.71875
vt 0.75 0.8125
vn 0 0 -1
vn 0.7071067811865475 0.7071067811865476 0
vn 0 0 1
vn -0.7071067811865475 -0.7071067811865476 0
vn -0.7071067811865476 0.7071067811865475 0
vn 0.7071067811865476 -0.7071067811865475 0
usemtl m_014ea491-2a3a-e8a1-ab45-43917a36b3d1
f 60/148/37 63/147/37 61/146/37 58/145/37
f 59/152/38 60/151/38 58/150/38 57/149/38
f 64/156/39 59/155/39 57/154/39 62/153/39
f 63/160/40 64/159/40 62/158/40 61/157/40
f 62/164/41 57/163/41 58/162/41 61/161/41
f 63/168/42 60/167/42 59/166/42 64/165/42
o cube
v 0.34375 0.6606236627173041 0.480746061908644
v 0.34375 0.6965002345015312 0.3941323557357108
v 0.34375 0.33726582633835356 0.3468068605808625
v 0.34375 0.37314239812258077 0.26019315440792945
v 0.28125 0.6965002345015312 0.3941323557357108
v 0.28125 0.6606236627173041 0.480746061908644
v 0.28125 0.37314239812258077 0.26019315440792945
v 0.28125 0.33726582633835356 0.3468068605808625
vt 0.15625 1
vt 0.21875 1
vt 0.21875 0.65
vt 0.15625 0.65
vt 0.6875 1
vt 0.78125 1
vt 0.78125 0.65
vt 0.6875 0.65
vt 0.15625 1
vt 0.21875 1
vt 0.21875 0.65
vt 0.15625 0.65
vt 0.21875 1
vt 0.3125 1
vt 0.3125 0.65
vt 0.21875 0.65
vn 0 0.3826834323650897 -0.9238795325112867
vn 1 0 0
vn 0 -0.3826834323650897 0.9238795325112867
vn -1 0 0
usemtl m_afbcdde6-6386-d9f7-db0f-dc4cad4a407a
f 68/172/43 71/171/43 69/170/43 66/169/43
f 67/176/44 68/175/44 66/174/44 65/173/44
f 72/180/45 67/179/45 65/178/45 70/177/45
f 71/184/46 72/183/46 70/182/46 69/181/46
o cube
v 0.34375 0.6837206510300862 0.49031314771777124
v 0.34375 0.7195972228143133 0.40369944154483806
v 0.34375 0.6548494156391085 0.47835429045636213
v 0.34375 0.6907259874233356 0.39174058428342895
v 0.28125 0.7195972228143133 0.40369944154483806
v 0.28125 0.6837206510300862 0.49031314771777124
v 0.28125 0.6907259874233356 0.39174058428342895
v 0.28125 0.6548494156391085 0.47835429045636213
vt 0.03125 1
vt 0.09375 1
vt 0.09375 0.96875
vt 0.03125 0.96875
vt 0.0625 1
vt 0.15625 1
vt 0.15625 0.96875
vt 0.0625 0.96875
vt 0.34375 1
vt 0.40625 1
vt 0.40625 0.96875
vt 0.34375 0.96875
vt 0.1875 0.84375
vt 0.28125 0.84375
vt 0.28125 0.8125
vt 0.1875 0.8125
vt 0.6875 0.9375
vt 0.6875 1
vt 0.78125 1
vt 0.78125 0.9375
vn 0 0.3826834323650897 -0.9238795325112867
vn 1 0 0
vn 0 -0.3826834323650897 0.9238795325112867
vn -1 0 0
vn 0 0.9238795325112867 0.3826834323650897
usemtl m_014ea491-2a3a-e8a1-ab45-43917a36b3d1
f 76/188/47 79/187/47 77/186/47 74/185/47
f 75/192/48 76/191/48 74/190/48 73/189/48
f 80/196/49 75/195/49 73/194/49 78/193/49
f 79/200/50 80/199/50 78/198/50 77/197/50
f 78/204/51 73/203/51 74/202/51 77/201/51
o cube
v -0.28125 0.6837206510300862 0.49031314771777124
v -0.28125 0.7195972228143133 0.40369944154483806
v -0.28125 0.6548494156391085 0.47835429045636213
v -0.28125 0.6907259874233356 0.39174058428342895
v -0.34375 0.7195972228143133 0.40369944154483806
v -0.34375 0.6837206510300862 0.49031314771777124
v -0.34375 0.6907259874233356 0.39174058428342895
v -0.34375 0.6548494156391085 0.47835429045636213
vt 0.25 1
vt 0.3125 1
vt 0.3125 0.96875
vt 0.25 0.96875
vt 0.21875 1
vt 0.3125 1
vt 0.3125 0.96875
vt 0.21875 0.96875
vt 0.25 1
vt 0.3125 1
vt 0.3125 0.96875
vt 0.25 0.96875
vt 0.03125 1
vt 0.125 1
vt 0.125 0.96875
vt 0.03125 0.96875
vt 0.875 0.9375
vt 0.875 1
vt 0.96875 1
vt 0.96875 0.9375
vn 0 0.3826834323650897 -0.9238795325112867
vn 1 0 0
vn 0 -0.3826834323650897 0.9238795325112867
vn -1 0 0
vn 0 0.9238795325112867 0.3826834323650897
usemtl m_014ea491-2a3a-e8a1-ab45-43917a36b3d1
f 84/208/52 87/207/52 85/206/52 82/205/52
f 83/212/53 84/211/53 82/210/53 81/209/53
f 88/216/54 83/215/54 81/214/54 86/213/54
f 87/220/55 88/219/55 86/218/55 85/217/55
f 86/224/56 81/223/56 82/222/56 85/221/56
o cube
v 0.34375 0.33726582633835356 0.3468068605808625
v 0.34375 0.37314239812258077 0.26019315440792945
v 0.34375 0.10052169613233641 0.24874423103730836
v 0.34375 0.13639826791656362 0.16213052486437518
v 0.28125 0.37314239812258077 0.26019315440792945
v 0.28125 0.33726582633835356 0.3468068605808625
v 0.28125 0.13639826791656362 0.16213052486437518
v 0.28125 0.10052169613233641 0.24874423103730836
vt 0.03125 1
vt 0.09375 1
vt 0.09375 0.75
vt 0.03125 0.75
vt 0.0625 1
vt 0.15625 1
vt 0.15625 0.75
vt 0.0625 0.75
vt 0.34375 1
vt 0.40625 1
vt 0.40625 0.75
vt 0.34375 0.75
vt 0.21875 1
vt 0.3125 1
vt 0.3125 0.75
vt 0.21875 0.75
vt 0.6875 0.75
vt 0.6875 0.8125
vt 0.78125 0.8125
vt 0.78125 0.75
vn 0 0.3826834323650897 -0.9238795325112867
vn 1 0 0
vn 0 -0.3826834323650897 0.9238795325112867
vn -1 0 0
vn 0 -0.9238795325112867 -0.3826834323650897
usemtl m_014ea491-2a3a-e8a1-ab45-43917a36b3d1
f 92/228/57 95/227/57 93/226/57 90/225/57
f 91/232/58 92/231/58 90/230/58 89/229/58
f 96/236/59 91/235/59 89/234/59 94/233/59
f 95/240/60 96/239/60 94/238/60 93/237/60
f 95/244/61 92/243/61 91/242/61 96/241/61
o cube
v -0.28125 0.33726582633835356 0.3468068605808625
v -0.28125 0.37314239812258077 0.26019315440792945
v -0.28125 0.10629594321053193 0.2511360024895901
v -0.28125 0.14217251499475914 0.16452229631665705
v -0.34375 0.37314239812258077 0.26019315440792945
v -0.34375 0.33726582633835356 0.3468068605808625
v -0.34375 0.14217251499475914 0.16452229631665705
v -0.34375 0.10629594321053193 0.2511360024895901
vt 0.25 1
vt 0.3125 1
vt 0.3125 0.75
vt 0.25 0.75
vt 0.21875 1
vt 0.3125 1
vt 0.3125 0.75
vt 0.21875 0.75
vt 0.25 1
vt 0.3125 1
vt 0.3125 0.75
vt 0.25 0.75
vt 0.03125 1
vt 0.125 1
vt 0.125 0.75
vt 0.03125 0.75
vt 0.6875 0.75
vt 0.6875 0.8125
vt 0.78125 0.8125
vt 0.78125 0.75
vn 0 0.3826834323650897 -0.9238795325112867
vn 1 0 0
vn 0 -0.3826834323650897 0.9238795325112867
vn -1 0 0
vn 0 -0.9238795325112867 -0.3826834323650897
usemtl m_014ea491-2a3a-e8a1-ab45-43917a36b3d1
f 100/248/62 103/247/62 101/246/62 98/245/62
f 99/252/63 100/251/63 98/250/63 97/249/63
f 104/256/64 99/255/64 97/254/64 102/253/64
f 103/260/65 104/259/65 102/258/65 101/257/65
f 103/264/66 100/263/66 99/262/66 104/261/66
o cube
v 0.28125 0.6730866729627574 0.4343256564851211
v 0.28125 0.6730866729627574 0.4343256564851211
v 0.28125 0.35550308366200234 0.3027782266096215
v 0.28125 0.35550308366200234 0.3027782266096215
v -0.28125 0.6730866729627574 0.4343256564851211
v -0.28125 0.6730866729627574 0.4343256564851211
v -0.28125 0.35550308366200234 0.3027782266096215
v -0.28125 0.35550308366200234 0.3027782266096215
vt 0.21875 1
vt 0.78125 1
vt 0.78125 0.65625
vt 0.21875 0.65625
vt 0.21875 1
vt 0.78125 1
vt 0.78125 0.65625
vt 0.21875 0.65625
vn 0 0.3826834323650897 -0.9238795325112867
vn 0 -0.3826834323650897 0.9238795325112867
usemtl m_afbcdde6-6386-d9f7-db0f-dc4cad4a407a
f 108/268/67 111/267/67 109/266/67 106/265/67
f 112/272/68 107/271/68 105/270/68 110/269/68
o cube
v 0.17938015759202997 -0.34193567932004976 0.15625
v 0.17938015759202997 -0.34193567932004976 -0.1875
v 0.2235743314161891 -0.386129853144209 0.15625
v 0.2235743314161891 -0.386129853144209 -0.1875
v 0.1572830706799503 -0.3640327662321294 -0.1875
v 0.1572830706799503 -0.3640327662321294 0.15625
v 0.20147724450410953 -0.40822694005628857 -0.1875
v 0.20147724450410953 -0.40822694005628857 0.15625
vt 0.84375 0.3125
vt 0.84375 0.65625
vt 0.90625 0.65625
vt 0.90625 0.3125
vt 0.75 0.3125
vt 0.75 0.65625
vt 0.8125 0.65625
vt 0.8125 0.3125
vt 0.9375 0.6875
vt 0.96875 0.6875
vt 0.96875 0.34375
vt 0.9375 0.34375
vt 0.78125 0.34375
vt 0.75 0.34375
vt 0.75 0.6875
vt 0.78125 0.6875
vn 0.7071067811865475 0.7071067811865476 0
vn -0.7071067811865475 -0.7071067811865476 0
vn -0.7071067811865476 0.7071067811865475 0
vn 0.7071067811865476 -0.7071067811865475 0
usemtl m_014ea491-2a3a-e8a1-ab45-43917a36b3d1
f 115/276/69 116/275/69 114/274/69 113/273/69
f 119/280/70 120/279/70 118/278/70 117/277/70
f 118/284/71 113/283/71 114/282/71 117/281/71
f 119/288/72 116/287/72 115/286/72 120/285/72
o cube
v -0.1578354978527522 -0.36348033905932736 0.21875
v -0.1578354978527522 -0.36348033905932736 -0.25
v -0.20202967167691144 -0.40767451288348655 0.21875
v -0.20202967167691144 -0.40767451288348655 -0.25
v -0.17993258476483187 -0.34138325214724774 -0.25
v -0.17993258476483187 -0.34138325214724774 0.21875
v -0.22412675858899106 -0.385577425971407 -0.25
v -0.22412675858899106 -0.385577425971407 0.21875
vt 0.75 0.75
vt 0.75 0.28125
vt 0.8125 0.28125
vt 0.8125 0.75
vt 0.84375 0.75
vt 0.84375 0.28125
vt 0.90625 0.28125
vt 0.90625 0.75
vt 0.96875 0.71875
vt 0.9375 0.71875
vt 0.9375 0.25
vt 0.96875 0.25
vt 0.75 0.28125
vt 0.78125 0.28125
vt 0.78125 0.75
vt 0.75 0.75
vn 0.7071067811865475 -0.7071067811865476 0
vn -0.7071067811865475 0.7071067811865476 0
vn 0.7071067811865476 0.7071067811865475 0
vn -0.7071067811865476 -0.7071067811865475 0
usemtl m_014ea491-2a3a-e8a1-ab45-43917a36b3d1
f 123/292/73 124/291/73 122/290/73 121/289/73
f 127/296/74 128/295/74 126/294/74 125/293/74
f 126/300/75 121/299/75 122/298/75 125/297/75
f 127/304/76 124/303/76 123/302/76 128/301/76
o cube
v -0.26830582617584076 0.3125 -0.28125
v -0.3125 0.3125 -0.32544417382415924
v -0.26830582617584076 0.125 -0.28125
v -0.3125 0.125 -0.32544417382415924
v -0.35669417382415924 0.3125 -0.28125
v -0.3125 0.3125 -0.23705582617584076
v -0.35669417382415924 0.125 -0.28125
v -0.3125 0.125 -0.23705582617584076
vt 0.03125 1
vt 0.09375 1
vt 0.09375 0.8125
vt 0.03125 0.8125
vt 0.25 1
vt 0.3125 1
vt 0.3125 0.8125
vt 0.25 0.8125
vt 0.21875 1
vt 0.28125 1
vt 0.28125 0.8125
vt 0.21875 0.8125
vt 0.03125 1
vt 0.09375 1
vt 0.09375 0.8125
vt 0.03125 0.8125
vt 0 1
vt 0.0625 1
vt 0.0625 0.9375
vt 0 0.9375
vn -0.7071067811865476 0 -0.7071067811865475
vn 0.7071067811865475 0 -0.7071067811865476
vn 0.7071067811865476 0 0.7071067811865475
vn -0.7071067811865475 0 0.7071067811865476
vn 0 -1 0
usemtl m_014ea491-2a3a-e8a1-ab45-43917a36b3d1
f 132/308/77 135/307/77 133/306/77 130/305/77
f 131/312/78 132/311/78 130/310/78 129/309/78
f 136/316/79 131/315/79 129/314/79 134/313/79
f 135/320/80 136/319/80 134/318/80 133/317/80
usemtl none
f 135/324/81 132/323/81 131/322/81 136/321/81
o cube
v 0.35669417382415924 0.3125 -0.28125
v 0.3125 0.3125 -0.32544417382415924
v 0.35669417382415924 0.125 -0.28125
v 0.3125 0.125 -0.32544417382415924
v 0.26830582617584076 0.3125 -0.28125
v 0.3125 0.3125 -0.23705582617584076
v 0.26830582617584076 0.125 -0.28125
v 0.3125 0.125 -0.23705582617584076
vt 0.03125 1
vt 0.09375 1
vt 0.09375 0.8125
vt 0.03125 0.8125
vt 0.25 1
vt 0.3125 1
vt 0.3125 0.8125
vt 0.25 0.8125
vt 0.21875 1
vt 0.28125 1
vt 0.28125 0.8125
vt 0.21875 0.8125
vt 0.03125 1
vt 0.09375 1
vt 0.09375 0.8125
vt 0.03125 0.8125
vt 0 1
vt 0.0625 1
vt 0.0625 0.9375
vt 0 0.9375
vn -0.7071067811865476 0 -0.7071067811865475
vn 0.7071067811865475 0 -0.7071067811865476
vn 0.7071067811865476 0 0.7071067811865475
vn -0.7071067811865475 0 0.7071067811865476
vn 0 -1 0
usemtl m_014ea491-2a3a-e8a1-ab45-43917a36b3d1
f 140/328/82 143/327/82 141/326/82 138/325/82
f 139/332/83 140/331/83 138/330/83 137/329/83
f 144/336/84 139/335/84 137/334/84 142/333/84
f 143/340/85 144/339/85 142/338/85 141/337/85
usemtl none
f 143/344/86 140/343/86 139/342/86 144/341/86
o cube
v -0.2625 0.34375 0.28125
v -0.2625 0.34375 -0.375
v -0.2625 0.3125 0.28125
v -0.2625 0.3125 -0.375
v -0.35625 0.34375 -0.375
v -0.35625 0.34375 0.28125
v -0.35625 0.3125 -0.375
v -0.35625 0.3125 0.28125
vt 0.03125 1
vt 0.125 1
vt 0.125 0.96875
vt 0.03125 0.96875
vt 0.125 0
vt 0.125 0.65625
vt 0.15625 0.65625
vt 0.15625 0
vt 0.03125 1
vt 0.125 1
vt 0.125 0.96875
vt 0.03125 0.96875
vt 0.125 0
vt 0.125 0.65625
vt 0.15625 0.65625
vt 0.15625 0
vt 0.03125 0.65625
vt 0.125 0.65625
vt 0.125 0
vt 0.03125 0
vt 0.03125 0.65625
vt 0.125 0.65625
vt 0.125 0
vt 0.03125 0
vn 0 0 -1
vn 1 0 0
vn 0 0 1
vn -1 0 0
vn 0 1 0
vn 0 -1 0
usemtl m_014ea491-2a3a-e8a1-ab45-43917a36b3d1
f 148/348/87 151/347/87 149/346/87 146/345/87
f 147/352/88 148/351/88 146/350/88 145/349/88
f 152/356/89 147/355/89 145/354/89 150/353/89
f 151/360/90 152/359/90 150/358/90 149/357/90
f 150/364/91 145/363/91 146/362/91 149/361/91
f 151/368/92 148/367/92 147/366/92 152/365/92
o cube
v 0.36250000000000004 0.34375 0.28125
v 0.36250000000000004 0.34375 -0.375
v 0.36250000000000004 0.3125 0.28125
v 0.36250000000000004 0.3125 -0.375
v 0.26875000000000004 0.34375 -0.375
v 0.26875000000000004 0.34375 0.28125
v 0.26875000000000004 0.3125 -0.375
v 0.26875000000000004 0.3125 0.28125
vt 0.03125 1
vt 0.125 1
vt 0.125 0.96875
vt 0.03125 0.96875
vt 0.125 0
vt 0.125 0.65625
vt 0.15625 0.65625
vt 0.15625 0
vt 0.03125 1
vt 0.125 1
vt 0.125 0.96875
vt 0.03125 0.96875
vt 0.125 0
vt 0.125 0.65625
vt 0.15625 0.65625
vt 0.15625 0
vt 0.03125 0.65625
vt 0.125 0.65625
vt 0.125 0
vt 0.03125 0
vt 0.03125 0.65625
vt 0.125 0.65625
vt 0.125 0
vt 0.03125 0
vn 0 0 -1
vn 1 0 0
vn 0 0 1
vn -1 0 0
vn 0 1 0
vn 0 -1 0
usemtl m_014ea491-2a3a-e8a1-ab45-43917a36b3d1
f 156/372/93 159/371/93 157/370/93 154/369/93
f 155/376/94 156/375/94 154/374/94 153/373/94
f 160/380/95 155/379/95 153/378/95 158/377/95
f 159/384/96 160/383/96 158/382/96 157/381/96
f 158/388/97 153/387/97 154/386/97 157/385/97
f 159/392/98 156/391/98 155/390/98 160/389/98