# Made in Blockbench 4.6.0
mtllib materials.mtl

o cube
v 0.28701249492188685 0.03125 0.2831063571424631
v -7.935193052643896e-8 0.03125 -0.40980329224100187
v 0.28701249492188685 -0.5625 0.2831063571424631
v -7.935193052643896e-8 -0.5625 -0.40980329224100187
v -0.28701249492188685 0.03125 -0.2909188571424631
v 7.935193047092781e-8 0.03125 0.40199079224100187
v -0.28701249492188685 -0.5625 -0.2909188571424631
v 7.935193047092781e-8 -0.5625 0.40199079224100187
vt 0.48484875 0.757575625
vt 0.79550875 0.757575625
vt 0.79550875 0.16382562499999997
vt 0.48484875 0.16382562499999997
vt 0.48484875 0.757575625
vt 0.79550875 0.757575625
vt 0.79550875 0.16382562499999997
vt 0.48484875 0.16382562499999997
vt 0.568235625 0.06818187499999995
vt 0.257575625 0.06818187499999995
vt 0.257575625 0.8181818750000001
vt 0.568235625 0.8181818750000001
vt 0.568235625 0.06818187499999995
vt 0.257575625 0.06818187499999995
vt 0.257575625 0.8181818750000001
vt 0.568235625 0.8181818750000001
vn -0.3826834323650897 0 -0.9238795325112867
vn 0.3826834323650897 0 0.9238795325112867
vn 0 1 0
vn 0 -1 0
usemtl m_84a5aa15-51bc-f374-e6f3-37edf1b2729e
f 4/4/1 7/3/1 5/2/1 2/1/1
f 8/8/2 3/7/2 1/6/2 6/5/2
usemtl m_ffb483e2-f906-cd73-5c8e-3ad927b1f7e0
f 6/12/3 1/11/3 2/10/3 5/9/3
f 7/16/4 4/15/4 3/14/4 8/13/4
o cube
v -7.935193052643896e-8 0.03187499999999999 0.40199079224100187
v 0.28701249492188685 0.03187499999999999 -0.2909188571424631
v -7.935193052643896e-8 -0.561875 0.40199079224100187
v 0.28701249492188685 -0.561875 -0.2909188571424631
v 7.935193047092781e-8 0.03187499999999999 -0.40980329224100187
v -0.28701249492188685 0.03187499999999999 0.2831063571424631
v 7.935193047092781e-8 -0.561875 -0.40980329224100187
v -0.28701249492188685 -0.561875 0.2831063571424631
vt 0.166666875 0.757575625
vt 0.477326875 0.757575625
vt 0.477326875 0.16382562499999997
vt 0.166666875 0.16382562499999997
vt 0.166666875 0.757575625
vt 0.477326875 0.757575625
vt 0.477326875 0.16382562499999997
vt 0.166666875 0.16382562499999997
vt 0.606115 0.05303000000000002
vt 0.295454375 0.05303000000000002
vt 0.295454375 0.80303
vt 0.606115 0.80303
vt 0.606115 0.05303000000000002
vt 0.295454375 0.05303000000000002
vt 0.295454375 0.80303
vt 0.606115 0.80303
vn 0.3826834323650897 0 -0.9238795325112867
vn -0.3826834323650897 0 0.9238795325112867
vn 0 1 0
vn 0 -1 0
usemtl m_84a5aa15-51bc-f374-e6f3-37edf1b2729e
f 12/20/5 15/19/5 13/18/5 10/17/5
f 16/24/6 11/23/6 9/22/6 14/21/6
usemtl m_ffb483e2-f906-cd73-5c8e-3ad927b1f7e0
f 14/28/7 9/27/7 10/26/7 13/25/7
f 15/32/8 12/31/8 11/30/8 16/29/8
o cube
v 0.40589704224100187 0.03125 -0.0039063293519305264
v 0.2870126071424631 0.03125 -0.29091874492188685
v 0.40589704224100187 -0.5625 -0.0039063293519305264
v 0.2870126071424631 -0.5625 -0.29091874492188685
v -0.40589704224100187 0.03125 -0.003906170648069529
v -0.2870126071424631 0.03125 0.28310624492188685
v -0.40589704224100187 -0.5625 -0.003906170648069529
v -0.2870126071424631 -0.5625 0.28310624492188685
vt 0.48484875 0.757575625
vt 0.79550875 0.757575625
vt 0.79550875 0.16382562499999997
vt 0.48484875 0.16382562499999997
vt 0.48484875 0.757575625
vt 0.79550875 0.757575625
vt 0.79550875 0.16382562499999997
vt 0.48484875 0.16382562499999997
vt 0.6364175 0.80303
vt 0.6364175 0.05303000000000002
vt 0.3257575 0.05303000000000002
vt 0.3257575 0.80303
vt 0.6364175 0.80303
vt 0.6364175 0.05303000000000002
vt 0.3257575 0.05303000000000002
vt 0.3257575 0.80303
vn 0.9238795325112867 0 -0.3826834323650897
vn -0.9238795325112867 0 0.3826834323650897
vn 0 1 0
vn 0 -1 0
usemtl m_84a5aa15-51bc-f374-e6f3-37edf1b2729e
f 19/36/9 20/35/9 18/34/9 17/33/9
f 23/40/10 24/39/10 22/38/10 21/37/10
usemtl m_ffb483e2-f906-cd73-5c8e-3ad927b1f7e0
f 22/44/11 17/43/11 18/42/11 21/41/11
f 23/48/12 20/47/12 19/46/12 24/45/12
o cube
v 0.2870126071424631 0.03187499999999999 0.28310624492188685
v 0.40589704224100187 0.03187499999999999 -0.003906170648069529
v 0.2870126071424631 -0.561875 0.28310624492188685
v 0.40589704224100187 -0.561875 -0.003906170648069529
v -0.2870126071424631 0.03187499999999999 -0.29091874492188685
v -0.40589704224100187 0.03187499999999999 -0.0039063293519305264
v -0.2870126071424631 -0.561875 -0.29091874492188685
v -0.40589704224100187 -0.561875 -0.0039063293519305264
vt 0.166666875 0.757575625
vt 0.477326875 0.757575625
vt 0.477326875 0.16382562499999997
vt 0.166666875 0.16382562499999997
vt 0.166666875 0.757575625
vt 0.477326875 0.757575625
vt 0.477326875 0.16382562499999997
vt 0.166666875 0.16382562499999997
vt 0.628841875 0.795454375
vt 0.628841875 0.04545437500000005
vt 0.318181875 0.04545437500000005
vt 0.318181875 0.795454375
vt 0.628841875 0.795454375
vt 0.628841875 0.04545437500000005
vt 0.318181875 0.04545437500000005
vt 0.318181875 0.795454375
vn 0.9238795325112867 0 0.3826834323650897
vn -0.9238795325112867 0 -0.3826834323650897
vn 0 1 0
vn 0 -1 0
usemtl m_84a5aa15-51bc-f374-e6f3-37edf1b2729e
f 27/52/13 28/51/13 26/50/13 25/49/13
f 31/56/14 32/55/14 30/54/14 29/53/14
usemtl m_ffb483e2-f906-cd73-5c8e-3ad927b1f7e0
f 30/60/15 25/59/15 26/58/15 29/57/15
f 31/64/16 28/63/16 27/62/16 32/61/16
o cube
v 0.1875 -0.625 0.18359375
v 0.1875 -0.625 -0.19140625
v 0.1875 -0.71875 0.18359375
v 0.1875 -0.71875 -0.19140625
v -0.1875 -0.625 -0.19140625
v -0.1875 -0.625 0.18359375
v -0.1875 -0.71875 -0.19140625
v -0.1875 -0.71875 0.18359375
vt 0.469696875 0.969696875
vt 0.844696875 0.969696875
vt 0.844696875 0.875946875
vt 0.469696875 0.875946875
vt 0.844696875 0.875946875
vt 0.469696875 0.875946875
vt 0.469696875 0.969696875
vt 0.844696875 0.969696875
vt 0.469696875 0.969696875
vt 0.844696875 0.969696875
vt 0.844696875 0.875946875
vt 0.469696875 0.875946875
vt 0.844696875 0.875946875
vt 0.469696875 0.875946875
vt 0.469696875 0.969696875
vt 0.844696875 0.969696875
vt 0.6875 0.3125
vt 0.3125 0.3125
vt 0.3125 0.6875
vt 0.6875 0.6875
vn 0 0 -1
vn 1 0 0
vn 0 0 1
vn -1 0 0
vn 0 -1 0
usemtl m_ffb483e2-f906-cd73-5c8e-3ad927b1f7e0
f 36/68/17 39/67/17 37/66/17 34/65/17
f 35/72/18 36/71/18 34/70/18 33/69/18
f 40/76/19 35/75/19 33/74/19 38/73/19
f 39/80/20 40/79/20 38/78/20 37/77/20
usemtl m_d9a2baed-dde2-239e-2a60-bdd49b600bac
f 39/84/21 36/83/21 35/82/21 40/81/21
o cube
v 0.1875 0.1875 0.18359375
v 0.1875 0.1875 -0.19140625
v 0.1875 0.09375 0.18359375
v 0.1875 0.09375 -0.19140625
v -0.1875 0.1875 -0.19140625
v -0.1875 0.1875 0.18359375
v -0.1875 0.09375 -0.19140625
v -0.1875 0.09375 0.18359375
vt 0.30303 0.969696875
vt 0.67803 0.969696875
vt 0.67803 0.875946875
vt 0.30303 0.875946875
vt 0.67803 0.875946875
vt 0.30303 0.875946875
vt 0.30303 0.969696875
vt 0.67803 0.969696875
vt 0.30303 0.969696875
vt 0.67803 0.969696875
vt 0.67803 0.875946875
vt 0.30303 0.875946875
vt 0.67803 0.875946875
vt 0.30303 0.875946875
vt 0.30303 0.969696875
vt 0.67803 0.969696875
vt 0.6875 0.3125
vt 0.3125 0.3125
vt 0.3125 0.6875
vt 0.6875 0.6875
vn 0 0 -1
vn 1 0 0
vn 0 0 1
vn -1 0 0
vn 0 1 0
usemtl m_ffb483e2-f906-cd73-5c8e-3ad927b1f7e0
f 44/88/22 47/87/22 45/86/22 42/85/22
f 43/92/23 44/91/23 42/90/23 41/89/23
f 48/96/24 43/95/24 41/94/24 46/93/24
f 47/100/25 48/99/25 46/98/25 45/97/25
usemtl m_d9a2baed-dde2-239e-2a60-bdd49b600bac
f 46/104/26 41/103/26 42/102/26 45/101/26
o cube
v 0.23917727157647506 0.09375 0.23527084289300415
v 1.263482939384275e-7 0.09375 -0.34215386492655003
v 0.23917727157647506 -0.625 0.23527084289300415
v 1.263482939384275e-7 -0.625 -0.34215386492655003
v -0.23917727157647495 0.09375 -0.24308334289300426
v -1.2634829388291635e-7 0.09375 0.3343413649265501
v -0.23917727157647495 -0.625 -0.24308334289300426
v -1.2634829388291635e-7 -0.625 0.3343413649265501
vt 0.348485 0.8181818750000001
vt 0.607368125 0.8181818750000001
vt 0.607368125 0.09943187499999995
vt 0.348485 0.09943187499999995
vt 0.348485 0.8181818750000001
vt 0.607368125 0.8181818750000001
vt 0.607368125 0.09943187499999995
vt 0.348485 0.09943187499999995
vt 0.607368125 0.1477275
vt 0.348485 0.1477275
vt 0.348485 0.7727275
vt 0.607368125 0.7727275
vt 0.607368125 0.1477275
vt 0.348485 0.1477275
vt 0.348485 0.7727275
vt 0.607368125 0.7727275
vn -0.3826834323650897 0 -0.9238795325112867
vn 0.3826834323650897 0 0.9238795325112867
vn 0 1 0
vn 0 -1 0
usemtl m_84a5aa15-51bc-f374-e6f3-37edf1b2729e
f 52/108/27 55/107/27 53/106/27 50/105/27
f 56/112/28 51/111/28 49/110/28 54/109/28
usemtl m_ffb483e2-f906-cd73-5c8e-3ad927b1f7e0
f 54/116/29 49/115/29 50/114/29 53/113/29
f 55/120/30 52/119/30 51/118/30 56/117/30
o cube
v 1.263482939384275e-7 0.09437499999999999 0.3343413649265501
v 0.23917727157647506 0.09437499999999999 -0.2430833428930042
v 1.263482939384275e-7 -0.624375 0.3343413649265501
v 0.23917727157647506 -0.624375 -0.2430833428930042
v -1.2634829388291635e-7 0.09437499999999999 -0.34215386492655003
v -0.23917727157647495 0.09437499999999999 0.23527084289300426
v -1.2634829388291635e-7 -0.624375 -0.34215386492655003
v -0.23917727157647495 -0.624375 0.23527084289300426
vt 0.348485 0.8181818750000001
vt 0.607368125 0.8181818750000001
vt 0.607368125 0.09943187499999995
vt 0.348485 0.09943187499999995
vt 0.348485 0.8181818750000001
vt 0.607368125 0.8181818750000001
vt 0.607368125 0.09943187499999995
vt 0.348485 0.09943187499999995
vt 0.607368125 0.1477275
vt 0.348485 0.1477275
vt 0.348485 0.7727275
vt 0.607368125 0.7727275
vt 0.607368125 0.1477275
vt 0.348485 0.1477275
vt 0.348485 0.7727275
vt 0.607368125 0.7727275
vn 0.3826834323650897 0 -0.9238795325112867
vn -0.3826834323650897 0 0.9238795325112867
vn 0 1 0
vn 0 -1 0
usemtl m_84a5aa15-51bc-f374-e6f3-37edf1b2729e
f 60/124/31 63/123/31 61/122/31 58/121/31
f 64/128/32 59/127/32 57/126/32 62/125/32
usemtl m_ffb483e2-f906-cd73-5c8e-3ad927b1f7e0
f 62/132/33 57/131/33 58/130/33 61/129/33
f 63/136/34 60/135/34 59/134/34 64/133/34
o cube
v 0.3382476149265501 0.09375 -0.0039061236517060616
v 0.23917709289300426 0.09375 -0.24308352157647495
v 0.3382476149265501 -0.625 -0.0039061236517060616
v 0.23917709289300426 -0.625 -0.24308352157647495
v -0.33824761492655003 0.09375 -0.003906376348293883
v -0.2391770928930042 0.09375 0.23527102157647506
v -0.33824761492655003 -0.625 -0.003906376348293883
v -0.2391770928930042 -0.625 0.23527102157647506
vt 0.348485 0.8181818750000001
vt 0.607368125 0.8181818750000001
vt 0.607368125 0.09943187499999995
vt 0.348485 0.09943187499999995
vt 0.348485 0.8181818750000001
vt 0.607368125 0.8181818750000001
vt 0.607368125 0.09943187499999995
vt 0.348485 0.09943187499999995
vt 0.607368125 0.7727275
vt 0.607368125 0.1477275
vt 0.348485 0.1477275
vt 0.348485 0.7727275
vt 0.607368125 0.7727275
vt 0.607368125 0.1477275
vt 0.348485 0.1477275
vt 0.348485 0.7727275
vn 0.9238795325112867 0 -0.3826834323650897
vn -0.9238795325112867 0 0.3826834323650897
vn 0 1 0
vn 0 -1 0
usemtl m_84a5aa15-51bc-f374-e6f3-37edf1b2729e
f 67/140/35 68/139/35 66/138/35 65/137/35
f 71/144/36 72/143/36 70/142/36 69/141/36
usemtl m_ffb483e2-f906-cd73-5c8e-3ad927b1f7e0
f 70/148/37 65/147/37 66/146/37 69/145/37
f 71/152/38 68/151/38 67/150/38 72/149/38
o cube
v 0.23917709289300415 0.09437499999999999 0.23527102157647506
v 0.3382476149265501 0.09437499999999999 -0.003906376348293883
v 0.23917709289300415 -0.624375 0.23527102157647506
v 0.3382476149265501 -0.624375 -0.003906376348293883
v -0.23917709289300426 0.09437499999999999 -0.24308352157647495
v -0.33824761492655003 0.09437499999999999 -0.0039061236517060616
v -0.23917709289300426 -0.624375 -0.24308352157647495
v -0.33824761492655003 -0.624375 -0.0039061236517060616
vt 0.348485 0.8181818750000001
vt 0.607368125 0.8181818750000001
vt 0.607368125 0.09943187499999995
vt 0.348485 0.09943187499999995
vt 0.348485 0.8181818750000001
vt 0.607368125 0.8181818750000001
vt 0.607368125 0.09943187499999995
vt 0.348485 0.09943187499999995
vt 0.607368125 0.7727275
vt 0.607368125 0.1477275
vt 0.348485 0.1477275
vt 0.348485 0.7727275
vt 0.607368125 0.7727275
vt 0.607368125 0.1477275
vt 0.348485 0.1477275
vt 0.348485 0.7727275
vn 0.9238795325112867 0 0.3826834323650897
vn -0.9238795325112867 0 -0.3826834323650897
vn 0 1 0
vn 0 -1 0
usemtl m_84a5aa15-51bc-f374-e6f3-37edf1b2729e
f 75/156/39 76/155/39 74/154/39 73/153/39
f 79/160/40 80/159/40 78/158/40 77/157/40
usemtl m_ffb483e2-f906-cd73-5c8e-3ad927b1f7e0
f 78/164/41 73/163/41 74/162/41 77/161/41
f 79/168/42 76/167/42 75/166/42 80/165/42
o cube
v 0.1875 0.40625 -0.00390625
v 0.1875 0.40625 -0.00390625
v 0.1875 0.1875 -0.00390625
v 0.1875 0.1875 -0.00390625
v -0.1875 0.40625 -0.00390625
v -0.1875 0.40625 -0.00390625
v -0.1875 0.1875 -0.00390625
v -0.1875 0.1875 -0.00390625
vt 0.375 0.375
vt 0.75 0.375
vt 0.75 0.15625
vt 0.375 0.15625
vt 0.375 0.375
vt 0.75 0.375
vt 0.75 0.15625
vt 0.375 0.15625
vn 0 0 -1
vn 0 0 1
usemtl m_2a9a63a8-dfea-8720-97eb-75c5dba52b68
f 84/172/43 87/171/43 85/170/43 82/169/43
f 88/176/44 83/175/44 81/174/44 86/173/44
o cube
v 0.0625 0.375 0.49609375
v 0.0625 0.375 0.43359375
v 0.0625 -0.875 0.49609375
v 0.0625 -0.875 0.43359375
v -0.0625 0.375 0.43359375
v -0.0625 0.375 0.49609375
v -0.0625 -0.875 0.43359375
v -0.0625 -0.875 0.49609375
vt 0 0.875
vt 0 1
vt 1 1
vt 1 0.875
vt 0 0.9375
vt 0 1
vt 1 1
vt 1 0.9375
vt 0 0.875
vt 0 1
vt 1 1
vt 1 0.875
vt 0 0.9375
vt 0 1
vt 1 1
vt 1 0.9375
vt 1 1
vt 1 0.875
vt 0.9375 0.875
vt 0.9375 1
vt 1 1
vt 1 0.875
vt 0.9375 0.875
vt 0.9375 1
vn 0 0 -1
vn 1 0 0
vn 0 0 1
vn -1 0 0
vn 0 1 0
vn 0 -1 0
usemtl m_ffb483e2-f906-cd73-5c8e-3ad927b1f7e0
f 92/180/45 95/179/45 93/178/45 90/177/45
f 91/184/46 92/183/46 90/182/46 89/181/46
f 96/188/47 91/187/47 89/186/47 94/185/47
f 95/192/48 96/191/48 94/190/48 93/189/48
f 94/196/49 89/195/49 90/194/49 93/193/49
f 95/200/50 92/199/50 91/198/50 96/197/50
o cube
v 0.0625 0.375 0.43359375
v 0.0625 0.375 -0.06640625
v 0.0625 0.3125 0.43359375
v 0.0625 0.3125 -0.06640625
v -0.0625 0.375 -0.06640625
v -0.0625 0.375 0.43359375
v -0.0625 0.3125 -0.06640625
v -0.0625 0.3125 0.43359375
vt 0.458333125 0.9375
vt 0.333333125 0.9375
vt 0.333333125 1
vt 0.458333125 1
vt 0.833333125 0.9375
vt 0.333333125 0.9375
vt 0.333333125 1
vt 0.833333125 1
vt 0.333333125 1
vt 0.833333125 1
vt 0.833333125 0.9375
vt 0.333333125 0.9375
vt 0.333333125 0.875
vt 0.333333125 1
vt 0.833333125 1
vt 0.833333125 0.875
vt 0.833333125 1
vt 0.833333125 0.875
vt 0.333333125 0.875
vt 0.333333125 1
vn 0 0 -1
vn 1 0 0
vn -1 0 0
vn 0 1 0
vn 0 -1 0
usemtl m_ffb483e2-f906-cd73-5c8e-3ad927b1f7e0
f 100/204/51 103/203/51 101/202/51 98/201/51
f 99/208/52 100/207/52 98/206/52 97/205/52
f 103/212/53 104/211/53 102/210/53 101/209/53
f 102/216/54 97/215/54 98/214/54 101/213/54
f 103/220/55 100/219/55 99/218/55 104/217/55
o cube
v 0.0625 -0.71875 0.43359375
v 0.0625 -0.71875 -0.06640625
v 0.0625 -0.78125 0.43359375
v 0.0625 -0.78125 -0.06640625
v -0.0625 -0.71875 -0.06640625
v -0.0625 -0.71875 0.43359375
v -0.0625 -0.78125 -0.06640625
v -0.0625 -0.78125 0.43359375
vt 0.482954375 0.875
vt 0.482954375 1
vt 0.545454375 1
vt 0.545454375 0.875
vt 1 0.9375
vt 0.5 0.9375
vt 0.5 1
vt 1 1
vt 0.5 1
vt 1 1
vt 1 0.9375
vt 0.5 0.9375
vt 0.5 0.875
vt 0.5 1
vt 1 1
vt 1 0.875
vt 1 1
vt 1 0.875
vt 0.5 0.875
vt 0.5 1
vn 0 0 -1
vn 1 0 0
vn -1 0 0
vn 0 1 0
vn 0 -1 0
usemtl m_ffb483e2-f906-cd73-5c8e-3ad927b1f7e0
f 108/224/56 111/223/56 109/222/56 106/221/56
f 107/228/57 108/227/57 106/226/57 105/225/57
f 111/232/58 112/231/58 110/230/58 109/229/58
f 110/236/59 105/235/59 106/234/59 109/233/59
f 111/240/60 108/239/60 107/238/60 112/237/60