# Made in Blockbench 4.6.0
mtllib materials.mtl

o cube
v 0.08838834764831849 -0.025000000000000022 0.01161165235168149
v 0.08838834764831849 -0.025000000000000022 0.01161165235168149
v 0.08838834764831849 -0.425 0.01161165235168149
v 0.08838834764831849 -0.425 0.01161165235168149
v -0.08838834764831843 -0.025000000000000022 0.18838834764831835
v -0.08838834764831843 -0.025000000000000022 0.18838834764831835
v -0.08838834764831843 -0.425 0.18838834764831835
v -0.08838834764831843 -0.425 0.18838834764831835
vt 0 1
vt 0.53125 1
vt 0.53125 0
vt 0 0
vt 0 1
vt 0.53125 1
vt 0.53125 0
vt 0 0
vn -0.7071067811865476 0 -0.7071067811865475
vn 0.7071067811865476 0 0.7071067811865475
usemtl m_62f0070d-fa1b-b2a3-6aed-e2a2dcb99ff5
f 4/4/1 7/3/1 5/2/1 2/1/1
f 8/8/2 3/7/2 1/6/2 6/5/2
o cube
v 0.08838834764831849 -0.025000000000000022 0.18838834764831835
v 0.08838834764831849 -0.025000000000000022 0.18838834764831835
v 0.08838834764831849 -0.425 0.18838834764831835
v 0.08838834764831849 -0.425 0.18838834764831835
v -0.08838834764831843 -0.025000000000000022 0.01161165235168149
v -0.08838834764831843 -0.025000000000000022 0.01161165235168149
v -0.08838834764831843 -0.425 0.01161165235168149
v -0.08838834764831843 -0.425 0.01161165235168149
vt 0 1
vt 0.53125 1
vt 0.53125 0
vt 0 0
vt 0 1
vt 0.53125 1
vt 0.53125 0
vt 0 0
vn 0.7071067811865476 0 -0.7071067811865475
vn -0.7071067811865476 0 0.7071067811865475
usemtl m_62f0070d-fa1b-b2a3-6aed-e2a2dcb99ff5
f 12/12/3 15/11/3 13/10/3 10/9/3
f 16/16/4 11/15/4 9/14/4 14/13/4
o cube
v -0.09375 0.050000000000000044 0.05625000000000002
v -0.09375 0.050000000000000044 0.025000000000000022
v -0.09375 -0.5 0.05625000000000002
v -0.09375 -0.5 0.025000000000000022
v -0.125 0.050000000000000044 0.025000000000000022
v -0.125 0.050000000000000044 0.05625000000000002
v -0.125 -0.5 0.025000000000000022
v -0.125 -0.5 0.05625000000000002
vt 0.6875 0.8125
vt 0.71875 0.8125
vt 0.71875 0.125
vt 0.6875 0.125
vt 0.6875 0.8125
vt 0.71875 0.8125
vt 0.71875 0.125
vt 0.6875 0.125
vt 0.6875 0.8125
vt 0.71875 0.8125
vt 0.71875 0.125
vt 0.6875 0.125
vt 0.6875 0.8125
vt 0.71875 0.8125
vt 0.71875 0.125
vt 0.6875 0.125
vt 0.6875 1
vt 0.71875 1
vt 0.71875 0.96875
vt 0.6875 0.96875
vn 0 0 -1
vn 1 0 0
vn 0 0 1
vn -1 0 0
vn 0 1 0
usemtl m_62f0070d-fa1b-b2a3-6aed-e2a2dcb99ff5
f 20/20/5 23/19/5 21/18/5 18/17/5
f 19/24/6 20/23/6 18/22/6 17/21/6
f 24/28/7 19/27/7 17/26/7 22/25/7
f 23/32/8 24/31/8 22/30/8 21/29/8
f 22/36/9 17/35/9 18/34/9 21/33/9
o cube
v 0.012499999999999956 0.050000000000000044 0.23124999999999996
v 0.012499999999999956 0.050000000000000044 0.19999999999999996
v 0.012499999999999956 -0.5 0.23124999999999996
v 0.012499999999999956 -0.5 0.19999999999999996
v -0.018750000000000044 0.050000000000000044 0.19999999999999996
v -0.018750000000000044 0.050000000000000044 0.23124999999999996
v -0.018750000000000044 -0.5 0.19999999999999996
v -0.018750000000000044 -0.5 0.23124999999999996
vt 0.6875 0.8125
vt 0.71875 0.8125
vt 0.71875 0.125
vt 0.6875 0.125
vt 0.6875 0.8125
vt 0.71875 0.8125
vt 0.71875 0.125
vt 0.6875 0.125
vt 0.6875 0.8125
vt 0.71875 0.8125
vt 0.71875 0.125
vt 0.6875 0.125
vt 0.6875 0.8125
vt 0.71875 0.8125
vt 0.71875 0.125
vt 0.6875 0.125
vt 0.6875 1
vt 0.71875 1
vt 0.71875 0.96875
vt 0.6875 0.96875
vn 0 0 -1
vn 1 0 0
vn 0 0 1
vn -1 0 0
vn 0 1 0
usemtl m_62f0070d-fa1b-b2a3-6aed-e2a2dcb99ff5
f 28/40/10 31/39/10 29/38/10 26/37/10
f 27/44/11 28/43/11 26/42/11 25/41/11
f 32/48/12 27/47/12 25/46/12 30/45/12
f 31/52/13 32/51/13 30/50/13 29/49/13
f 30/56/14 25/55/14 26/54/14 29/53/14
o cube
v 0.13124999999999998 0.050000000000000044 0.05625000000000002
v 0.13124999999999998 0.050000000000000044 0.025000000000000022
v 0.13124999999999998 -0.5 0.05625000000000002
v 0.13124999999999998 -0.5 0.025000000000000022
v 0.09999999999999998 0.050000000000000044 0.025000000000000022
v 0.09999999999999998 0.050000000000000044 0.05625000000000002
v 0.09999999999999998 -0.5 0.025000000000000022
v 0.09999999999999998 -0.5 0.05625000000000002
vt 0.6875 0.8125
vt 0.71875 0.8125
vt 0.71875 0.125
vt 0.6875 0.125
vt 0.6875 0.8125
vt 0.71875 0.8125
vt 0.71875 0.125
vt 0.6875 0.125
vt 0.6875 0.8125
vt 0.71875 0.8125
vt 0.71875 0.125
vt 0.6875 0.125
vt 0.6875 0.8125
vt 0.71875 0.8125
vt 0.71875 0.125
vt 0.6875 0.125
vt 0.6875 1
vt 0.71875 1
vt 0.71875 0.96875
vt 0.6875 0.96875
vn 0 0 -1
vn 1 0 0
vn 0 0 1
vn -1 0 0
vn 0 1 0
usemtl m_62f0070d-fa1b-b2a3-6aed-e2a2dcb99ff5
f 36/60/15 39/59/15 37/58/15 34/57/15
f 35/64/16 36/63/16 34/62/16 33/61/16
f 40/68/17 35/67/17 33/66/17 38/65/17
f 39/72/18 40/71/18 38/70/18 37/69/18
f 38/76/19 33/75/19 34/74/19 37/73/19
o cube
v 0.14999988731831704 0.02575000000000005 0.16213214703764722
v -0.062132147037647245 0.02575000000000005 -0.049999887318317005
v 0.14999988731831704 -0.024249999999999994 0.16213214703764722
v -0.062132147037647245 -0.024249999999999994 -0.049999887318317005
v -0.14999988731831704 0.02575000000000005 0.037867852962352844
v 0.062132147037647245 0.02575000000000005 0.24999988731831702
v -0.14999988731831704 -0.024249999999999994 0.037867852962352844
v 0.062132147037647245 -0.024249999999999994 0.24999988731831702
vt 0.703125 0.96875
vt 0.858455 0.96875
vt 0.858455 0.90625
vt 0.703125 0.90625
vt 0.703125 0.96875
vt 0.858455 0.96875
vt 0.858455 0.90625
vt 0.703125 0.90625
vt 0.84467 0.6875
vt 1 0.6875
vt 1 0.3125
vt 0.84467 0.3125
vt 0.84467 0.6875
vt 1 0.6875
vt 1 0.3125
vt 0.84467 0.3125
vn -0.7071067811865476 0 -0.7071067811865475
vn 0.7071067811865476 0 0.7071067811865475
vn 0 1 0
vn 0 -1 0
usemtl m_62f0070d-fa1b-b2a3-6aed-e2a2dcb99ff5
f 44/80/20 47/79/20 45/78/20 42/77/20
f 48/84/21 43/83/21 41/82/21 46/81/21
f 46/88/22 41/87/22 42/86/22 45/85/22
f 47/92/23 44/91/23 43/90/23 48/89/23
o cube
v 0.06213187499999995 0.025000000000000022 0.25
v 0.06213187499999995 0.025000000000000022 -0.04999999999999999
v 0.06213187499999995 -0.025000000000000022 0.25
v 0.06213187499999995 -0.025000000000000022 -0.04999999999999999
v -0.062131875 0.025000000000000022 -0.04999999999999999
v -0.062131875 0.025000000000000022 0.25
v -0.062131875 -0.025000000000000022 -0.04999999999999999
v -0.062131875 -0.025000000000000022 0.25
vt 0.703125 0.96875
vt 0.858455 0.96875
vt 0.858455 0.90625
vt 0.703125 0.90625
vt 0.703125 0.96875
vt 0.858455 0.96875
vt 0.858455 0.90625
vt 0.703125 0.90625
vt 0.84467 0.6875
vt 1 0.6875
vt 1 0.3125
vt 0.84467 0.3125
vt 0.84467 0.6875
vt 1 0.6875
vt 1 0.3125
vt 0.84467 0.3125
vn 0 0 -1
vn 0 0 1
vn 0 1 0
vn 0 -1 0
usemtl m_62f0070d-fa1b-b2a3-6aed-e2a2dcb99ff5
f 52/96/24 55/95/24 53/94/24 50/93/24
f 56/100/25 51/99/25 49/98/25 54/97/25
f 54/104/26 49/103/26 50/102/26 53/101/26
f 55/108/27 52/107/27 51/106/27 56/105/27
o cube
v 0.14999988731831704 0.025499999999999967 0.03786785296235273
v 0.062132147037647245 0.025499999999999967 -0.04999988731831706
v 0.14999988731831704 -0.024500000000000022 0.03786785296235273
v 0.062132147037647245 -0.024500000000000022 -0.04999988731831706
v -0.14999988731831704 0.025499999999999967 0.16213214703764722
v -0.06213214703764719 0.025499999999999967 0.24999988731831713
v -0.14999988731831704 -0.024500000000000022 0.16213214703764722
v -0.06213214703764719 -0.024500000000000022 0.24999988731831713
vt 0.703125 0.96875
vt 0.858455 0.96875
vt 0.858455 0.90625
vt 0.703125 0.90625
vt 0.703125 0.96875
vt 0.858455 0.96875
vt 0.858455 0.90625
vt 0.703125 0.90625
vt 0.84467 0.3125
vt 0.84467 0.6875
vt 1 0.6875
vt 1 0.3125
vt 0.84467 0.3125
vt 0.84467 0.6875
vt 1 0.6875
vt 1 0.3125
vn 0.7071067811865475 0 -0.7071067811865476
vn -0.7071067811865475 0 0.7071067811865476
vn 0 1 0
vn 0 -1 0
usemtl m_62f0070d-fa1b-b2a3-6aed-e2a2dcb99ff5
f 59/112/28 60/111/28 58/110/28 57/109/28
f 63/116/29 64/115/29 62/114/29 61/113/29
f 62/120/30 57/119/30 58/118/30 61/117/30
f 63/124/31 60/123/31 59/122/31 64/121/31
o cube
v 0.15000000000000002 0.025000000000000022 0.16213187500000004
v 0.15000000000000002 0.025000000000000022 0.03786812500000003
v 0.15000000000000002 -0.025000000000000022 0.16213187500000004
v 0.15000000000000002 -0.025000000000000022 0.03786812500000003
v -0.15000000000000002 0.025000000000000022 0.03786812500000003
v -0.15000000000000002 0.025000000000000022 0.16213187500000004
v -0.15000000000000002 -0.025000000000000022 0.03786812500000003
v -0.15000000000000002 -0.025000000000000022 0.16213187500000004
vt 0.703125 0.96875
vt 0.858455 0.96875
vt 0.858455 0.90625
vt 0.703125 0.90625
vt 0.703125 0.96875
vt 0.858455 0.96875
vt 0.858455 0.90625
vt 0.703125 0.90625
vt 0.84467 0.3125
vt 0.84467 0.6875
vt 1 0.6875
vt 1 0.3125
vt 0.84467 0.3125
vt 0.84467 0.6875
vt 1 0.6875
vt 1 0.3125
vn 1 0 0
vn -1 0 0
vn 0 1 0
vn 0 -1 0
usemtl m_62f0070d-fa1b-b2a3-6aed-e2a2dcb99ff5
f 67/128/32 68/127/32 66/126/32 65/125/32
f 71/132/33 72/131/33 70/130/33 69/129/33
f 70/136/34 65/135/34 66/134/34 69/133/34
f 71/140/35 68/139/35 67/138/35 72/137/35
o cube
v 0.14999988731831704 -0.42425 0.16213214703764722
v -0.062132147037647245 -0.42425 -0.049999887318317005
v 0.14999988731831704 -0.47425 0.16213214703764722
v -0.062132147037647245 -0.47425 -0.049999887318317005
v -0.14999988731831704 -0.42425 0.037867852962352844
v 0.062132147037647245 -0.42425 0.24999988731831702
v -0.14999988731831704 -0.47425 0.037867852962352844
v 0.062132147037647245 -0.47425 0.24999988731831702
vt 0.703125 0.96875
vt 0.858455 0.96875
vt 0.858455 0.90625
vt 0.703125 0.90625
vt 0.703125 0.96875
vt 0.858455 0.96875
vt 0.858455 0.90625
vt 0.703125 0.90625
vt 0.84467 0.6875
vt 1 0.6875
vt 1 0.3125
vt 0.84467 0.3125
vt 0.84467 0.6875
vt 1 0.6875
vt 1 0.3125
vt 0.84467 0.3125
vn -0.7071067811865476 0 -0.7071067811865475
vn 0.7071067811865476 0 0.7071067811865475
vn 0 1 0
vn 0 -1 0
usemtl m_62f0070d-fa1b-b2a3-6aed-e2a2dcb99ff5
f 76/144/36 79/143/36 77/142/36 74/141/36
f 80/148/37 75/147/37 73/146/37 78/145/37
f 78/152/38 73/151/38 74/150/38 77/149/38
f 79/156/39 76/155/39 75/154/39 80/153/39
o cube
v 0.06213187499999995 -0.42500000000000004 0.25
v 0.06213187499999995 -0.42500000000000004 -0.04999999999999999
v 0.06213187499999995 -0.47500000000000003 0.25
v 0.06213187499999995 -0.47500000000000003 -0.04999999999999999
v -0.062131875 -0.42500000000000004 -0.04999999999999999
v -0.062131875 -0.42500000000000004 0.25
v -0.062131875 -0.47500000000000003 -0.04999999999999999
v -0.062131875 -0.47500000000000003 0.25
vt 0.703125 0.96875
vt 0.858455 0.96875
vt 0.858455 0.90625
vt 0.703125 0.90625
vt 0.703125 0.96875
vt 0.858455 0.96875
vt 0.858455 0.90625
vt 0.703125 0.90625
vt 0.59375 0.671875
vt 0.74908 0.671875
vt 0.74908 0.296875
vt 0.59375 0.296875
vt 0.84467 0.6875
vt 1 0.6875
vt 1 0.3125
vt 0.84467 0.3125
vn 0 0 -1
vn 0 0 1
vn 0 1 0
vn 0 -1 0
usemtl m_62f0070d-fa1b-b2a3-6aed-e2a2dcb99ff5
f 84/160/40 87/159/40 85/158/40 82/157/40
f 88/164/41 83/163/41 81/162/41 86/161/41
f 86/168/42 81/167/42 82/166/42 85/165/42
f 87/172/43 84/171/43 83/170/43 88/169/43
o cube
v 0.14999988731831704 -0.4245 0.03786785296235273
v 0.062132147037647245 -0.4245 -0.04999988731831706
v 0.14999988731831704 -0.47450000000000003 0.03786785296235273
v 0.062132147037647245 -0.47450000000000003 -0.04999988731831706
v -0.14999988731831704 -0.4245 0.16213214703764722
v -0.06213214703764719 -0.4245 0.24999988731831713
v -0.14999988731831704 -0.47450000000000003 0.16213214703764722
v -0.06213214703764719 -0.47450000000000003 0.24999988731831713
vt 0.703125 0.96875
vt 0.858455 0.96875
vt 0.858455 0.90625
vt 0.703125 0.90625
vt 0.703125 0.96875
vt 0.858455 0.96875
vt 0.858455 0.90625
vt 0.703125 0.90625
vt 0.84467 0.3125
vt 0.84467 0.6875
vt 1 0.6875
vt 1 0.3125
vt 0.84467 0.3125
vt 0.84467 0.6875
vt 1 0.6875
vt 1 0.3125
vn 0.7071067811865475 0 -0.7071067811865476
vn -0.7071067811865475 0 0.7071067811865476
vn 0 1 0
vn 0 -1 0
usemtl m_62f0070d-fa1b-b2a3-6aed-e2a2dcb99ff5
f 91/176/44 92/175/44 90/174/44 89/173/44
f 95/180/45 96/179/45 94/178/45 93/177/45
f 94/184/46 89/183/46 90/182/46 93/181/46
f 95/188/47 92/187/47 91/186/47 96/185/47
o cube
v 0.15000000000000002 -0.42500000000000004 0.16213187500000004
v 0.15000000000000002 -0.42500000000000004 0.03786812500000003
v 0.15000000000000002 -0.47500000000000003 0.16213187500000004
v 0.15000000000000002 -0.47500000000000003 0.03786812500000003
v -0.15000000000000002 -0.42500000000000004 0.03786812500000003
v -0.15000000000000002 -0.42500000000000004 0.16213187500000004
v -0.15000000000000002 -0.47500000000000003 0.03786812500000003
v -0.15000000000000002 -0.47500000000000003 0.16213187500000004
vt 0.703125 0.96875
vt 0.858455 0.96875
vt 0.858455 0.90625
vt 0.703125 0.90625
vt 0.703125 0.96875
vt 0.858455 0.96875
vt 0.858455 0.90625
vt 0.703125 0.90625
vt 0.84467 0.3125
vt 0.84467 0.6875
vt 1 0.6875
vt 1 0.3125
vt 0.84467 0.3125
vt 0.84467 0.6875
vt 1 0.6875
vt 1 0.3125
vn 1 0 0
vn -1 0 0
vn 0 1 0
vn 0 -1 0
usemtl m_62f0070d-fa1b-b2a3-6aed-e2a2dcb99ff5
f 99/192/48 100/191/48 98/190/48 97/189/48
f 103/196/49 104/195/49 102/194/49 101/193/49
f 102/200/50 97/199/50 98/198/50 101/197/50
f 103/204/51 100/203/51 99/202/51 104/201/51