# Made in Blockbench 4.3.1
mtllib materials.mtl

o cube
v 0.8197121388475055 0.8424400000000001 -0.8197121388475056
v 0.8197121388475055 0.8424400000000001 -0.8197121388475056
v 0.8197121388475055 -0.797 -0.8197121388475056
v 0.8197121388475055 -0.797 -0.8197121388475056
v -0.8197121388475055 0.8424400000000001 0.8197121388475056
v -0.8197121388475055 0.8424400000000001 0.8197121388475056
v -0.8197121388475055 -0.797 0.8197121388475056
v -0.8197121388475055 -0.797 0.8197121388475056
vt 0.8984375 0.05078125
vt 0.12109375 0.05078125
vt 0.12109375 0.984375
vt 0.8984375 0.984375
vt 0.8984375 0.05078125
vt 0.12109375 0.05078125
vt 0.12109375 0.984375
vt 0.8984375 0.984375
vn -0.7071067811865477 0 -0.7071067811865475
vn 0.7071067811865477 0 0.7071067811865475
usemtl m_1
f 4/4/1 7/3/1 5/2/1 2/1/1
f 8/8/2 3/7/2 1/6/2 6/5/2
o cube
v 0.81972 0.8424321388475056 0.8197121388475057
v 0.81972 0.8424321388475056 0.8197121388475057
v 0.81972 -0.7969921388475055 -0.8197121388475056
v 0.81972 -0.7969921388475055 -0.8197121388475056
v -0.81972 0.8424321388475056 0.8197121388475057
v -0.81972 0.8424321388475056 0.8197121388475057
v -0.81972 -0.7969921388475055 -0.8197121388475056
v -0.81972 -0.7969921388475055 -0.8197121388475056
vt 0.12109375 0.984375
vt 0.8984375 0.984375
vt 0.8984375 0.05078125
vt 0.12109375 0.05078125
vt 0.8984375 0.05078125
vt 0.12109375 0.05078125
vt 0.12109375 0.984375
vt 0.8984375 0.984375
vn 0 0.7071067811865477 -0.7071067811865475
vn 0 -0.7071067811865477 0.7071067811865475
usemtl m_1
f 12/12/3 15/11/3 13/10/3 10/9/3
f 16/16/4 11/15/4 9/14/4 14/13/4
o cube
v 0.81972 0.8424321388475056 -0.8197121388475057
v 0.81972 0.8424321388475056 -0.8197121388475057
v 0.81972 -0.7969921388475055 0.8197121388475056
v 0.81972 -0.7969921388475055 0.8197121388475056
v -0.81972 0.8424321388475056 -0.8197121388475057
v -0.81972 0.8424321388475056 -0.8197121388475057
v -0.81972 -0.7969921388475055 0.8197121388475056
v -0.81972 -0.7969921388475055 0.8197121388475056
vt 1 0
vt 1 1
vt 0 1
vt 0 0
vt 0.8984375 0.05078125
vt 0.12109375 0.05078125
vt 0.12109375 0.984375
vt 0.8984375 0.984375
vn 0 -0.7071067811865477 -0.7071067811865475
vn 0 0.7071067811865477 0.7071067811865475
usemtl m_1
f 20/20/5 23/19/5 21/18/5 18/17/5
f 24/24/6 19/23/6 17/22/6 22/21/6
o cube
v 0.8197121388475056 0.8424400000000001 0.8197121388475055
v -0.8197121388475056 0.8424400000000001 -0.8197121388475055
v 0.8197121388475056 -0.797 0.8197121388475055
v -0.8197121388475056 -0.797 -0.8197121388475055
v -0.8197121388475056 0.8424400000000001 -0.8197121388475055
v 0.8197121388475056 0.8424400000000001 0.8197121388475055
v -0.8197121388475056 -0.797 -0.8197121388475055
v 0.8197121388475056 -0.797 0.8197121388475055
vt 0.8984375 0.05078125
vt 0.12109375 0.05078125
vt 0.12109375 0.984375
vt 0.8984375 0.984375
vt 0.8984375 0.05078125
vt 0.12109375 0.05078125
vt 0.12109375 0.984375
vt 0.8984375 0.984375
vn 0.7071067811865475 0 -0.7071067811865477
vn -0.7071067811865475 0 0.7071067811865477
usemtl m_1
f 27/28/7 28/27/7 26/26/7 25/25/7
f 31/32/8 32/31/8 30/30/8 29/29/8