# Blender v2.90.1 OBJ File: ''
# www.blender.org
o cube
v 0.819712 -0.797000 -0.819712
v -0.819712 -0.797000 0.819712
v -0.819712 0.842440 0.819712
v 0.819712 0.842440 -0.819712
vt 0.898438 0.984375
vt 0.121094 0.984375
vt 0.121094 0.050781
vt 0.898438 0.050781
vn -0.7071 0.0000 -0.7071
s 1
f 1/1/1 2/2/1 3/3/1 4/4/1
o cube.000
v 0.819720 -0.796992 -0.819712
v -0.819720 -0.796992 -0.819712
v -0.819720 0.842432 0.819712
v 0.819720 0.842432 0.819712
vt 0.121094 0.050781
vt 0.898438 0.050781
vt 0.898438 0.984375
vt 0.121094 0.984375
vn 0.0000 0.7071 -0.7071
s 1
f 5/5/2 6/6/2 7/7/2 8/8/2
o cube.001
v 0.819720 -0.796992 0.819712
v -0.819720 -0.796992 0.819712
v -0.819720 0.842432 -0.819712
v 0.819720 0.842432 -0.819712
vt 0.000000 0.000000
vt 0.000000 1.000000
vt 1.000000 1.000000
vt 1.000000 0.000000
vn 0.0000 -0.7071 -0.7071
s 1
f 9/9/3 10/10/3 11/11/3 12/12/3
o cube.002
v 0.819712 -0.797000 0.819712
v -0.819712 -0.797000 -0.819712
v -0.819712 0.842440 -0.819712
v 0.819712 0.842440 0.819712
vt 0.898438 0.984375
vt 0.121094 0.984375
vt 0.121094 0.050781
vt 0.898438 0.050781
vn 0.7071 0.0000 -0.7071
s 1
f 13/13/4 14/14/4 15/15/4 16/16/4
