# Made in Blockbench 4.3.1
mtllib materials.mtl

o cube
v 0.7561918750000001 0.46003573034780193 -0.43864988471210475
v 0.7561918750000001 0.46003573034780193 -0.43864988471210475
v 0.7561918750000001 -0.48005384598610323 -0.04925203234902431
v 0.7561918750000001 -0.48005384598610323 -0.04925203234902431
v -0.697444375 0.46003573034780193 -0.43864988471210475
v -0.697444375 0.46003573034780193 -0.43864988471210475
v -0.697444375 -0.48005384598610323 -0.04925203234902431
v -0.697444375 -0.48005384598610323 -0.04925203234902431
vt 1 1
vt 0 1
vt 0 0
vt 1 0
vt 1 1
vt 0 1
vt 0 0
vt 1 0
vn 0 -0.3826834323650897 -0.9238795325112867
vn 0 0.3826834323650897 0.9238795325112867
usemtl m_crop
f 4/4/1 7/3/1 5/2/1 2/1/1
f 8/8/2 3/7/2 1/6/2 6/5/2
o cube
v 0.46220617184901336 0.8064905550395345 0.766124375
v 0.46220617184901336 0.8064905550395345 -0.500011875
v -0.07069796765097575 -0.48005384598610323 0.766124375
v -0.07069796765097575 -0.48005384598610323 -0.500011875
v 0.46220617184901336 0.8064905550395345 -0.500011875
v 0.46220617184901336 0.8064905550395345 0.766124375
v -0.07069796765097575 -0.48005384598610323 -0.500011875
v -0.07069796765097575 -0.48005384598610323 0.766124375
vt 1 1
vt 0 1
vt 0 0
vt 1 0
vt 1 1
vt 0 1
vt 0 0
vt 1 0
vn 0.9238795325112867 -0.3826834323650897 0
vn -0.9238795325112867 0.3826834323650897 0
usemtl m_crop
f 11/12/3 12/11/3 10/10/3 9/9/3
f 15/16/4 16/15/4 14/14/4 13/13/4
o cube
v 0.4856969155138158 1.483651875 -0.5600712532175457
v 0.4856969155138158 1.483651875 -0.5600712532175457
v 0.4856969155138158 -0.515831875 -0.5600712532175457
v 0.4856969155138158 -0.515831875 -0.5600712532175457
v -0.7185417301276721 1.483651875 0.6441673924239424
v -0.7185417301276721 1.483651875 0.6441673924239424
v -0.7185417301276721 -0.515831875 0.6441673924239424
v -0.7185417301276721 -0.515831875 0.6441673924239424
vt 1 1
vt 0 1
vt 0 0
vt 1 0
vt 0 1
vt 1 1
vt 1 0
vt 0 0
vn -0.7071067811865476 0 -0.7071067811865475
vn 0.7071067811865476 0 0.7071067811865475
usemtl m_crop
f 20/20/5 23/19/5 21/18/5 18/17/5
f 24/24/6 19/23/6 17/22/6 22/21/6
o cube
v 0.5765826759249373 1.29238375 0.5419206357478441
v 0.5765826759249373 1.29238375 0.5419206357478441
v 0.5765826759249373 -0.515831875 0.5419206357478441
v 0.5765826759249373 -0.515831875 0.5419206357478441
v -0.5708518722751439 1.29238375 -0.6055139124522373
v -0.5708518722751439 1.29238375 -0.6055139124522373
v -0.5708518722751439 -0.515831875 -0.6055139124522373
v -0.5708518722751439 -0.515831875 -0.6055139124522373
vt 1 1
vt 0 1
vt 0 0
vt 1 0
vt 1 1
vt 0 1
vt 0 0
vt 1 0
vn 0.7071067811865476 0 -0.7071067811865475
vn -0.7071067811865476 0 0.7071067811865475
usemtl m_crop
f 28/28/7 31/27/7 29/26/7 26/25/7
f 32/32/8 27/31/8 25/30/8 30/29/8
o cube
v -0.5514858713157876 0.672764632289906 0.6254649999999999
v -0.5514858713157876 0.672764632289906 -0.685625
v -0.07068192853799843 -0.4879987672066902 0.6254649999999999
v -0.07068192853799843 -0.4879987672066902 -0.685625
v -0.5514858713157876 0.672764632289906 -0.685625
v -0.5514858713157876 0.672764632289906 0.6254649999999999
v -0.07068192853799843 -0.4879987672066902 -0.685625
v -0.07068192853799843 -0.4879987672066902 0.6254649999999999
vt 1 1
vt 0 1
vt 0 0
vt 1 0
vt 1 1
vt 0 1
vt 0 0
vt 1 0
vn 0.9238795325112867 0.3826834323650897 0
vn -0.9238795325112867 -0.3826834323650897 0
usemtl m_crop
f 35/36/9 36/35/9 34/34/9 33/33/9
f 39/40/10 40/39/10 38/38/10 37/37/10