# Made in Blockbench 4.6.0
mtllib materials.mtl

o cube
v 0.37499993926666175 -0.00006250000000002087 0.12408014662324884
v 0.24241741779418402 -0.00006250000000002087 -0.008502374849228778
v 0.37499993926666175 -0.15631250000000002 0.12408014662324884
v 0.24241741779418402 -0.15631250000000002 -0.008502374849228778
v 0.022747625150771222 -0.00006250000000002087 0.21116741779418413
v 0.15533014662324884 -0.00006250000000002087 0.34374993926666175
v 0.022747625150771222 -0.15631250000000002 0.21116741779418413
v 0.15533014662324884 -0.15631250000000002 0.34374993926666175
vt 0.25 0.1875
vt 0.56066 0.1875
vt 0.56066 0.03125
vt 0.25 0.03125
vt 0.15625 0.84375
vt 0.46691 0.84375
vt 0.46691 0.65625
vt 0.15625 0.65625
vt 0.56066 0.029410000000000047
vt 0.25 0.029410000000000047
vt 0.25 0.21691000000000005
vt 0.56066 0.21691000000000005
vn 0.7071067811865476 0 0.7071067811865475
vn 0 1 0
vn 0 -1 0
usemtl m_04f0f944-355d-f74a-af16-e1ef7b6fc2cc
f 8/4/1 3/3/1 1/2/1 6/1/1
f 6/8/2 1/7/2 2/6/2 5/5/2
f 7/12/3 4/11/3 3/10/3 8/9/3
o cube
v 0.15532999999999997 0 0.34375
v 0.15532999999999997 0 0.125
v 0.15532999999999997 -0.15625 0.34375
v 0.15532999999999997 -0.15625 0.125
v -0.15533000000000002 0 0.125
v -0.15533000000000002 0 0.34375
v -0.15533000000000002 -0.15625 0.125
v -0.15533000000000002 -0.15625 0.34375
vt 0.25 0.1875
vt 0.56066 0.1875
vt 0.56066 0.03125
vt 0.25 0.03125
vt 0.265625 0.84375
vt 0.576285 0.84375
vt 0.576285 0.625
vt 0.265625 0.625
vt 0.56066 0.029410000000000047
vt 0.25 0.029410000000000047
vt 0.25 0.24816000000000005
vt 0.56066 0.24816000000000005
vn 0 0 1
vn 0 1 0
vn 0 -1 0
usemtl m_04f0f944-355d-f74a-af16-e1ef7b6fc2cc
f 16/16/4 11/15/4 9/14/4 14/13/4
f 14/20/5 9/19/5 10/18/5 13/17/5
f 15/24/6 12/23/6 11/22/6 16/21/6
o cube
v -0.044844712062850844 -0.00006250000000002087 0.2332645047062637
v -0.2645145047062637 -0.00006250000000002087 0.013594712062850789
v -0.044844712062850844 -0.15631250000000002 0.2332645047062637
v -0.2645145047062637 -0.15631250000000002 0.013594712062850789
v -0.37499993926666175 -0.00006250000000002087 0.12408014662324884
v -0.1553301466232489 -0.00006250000000002087 0.34374993926666175
v -0.37499993926666175 -0.15631250000000002 0.12408014662324884
v -0.1553301466232489 -0.15631250000000002 0.34374993926666175
vt 0.25 0.1875
vt 0.56066 0.1875
vt 0.56066 0.03125
vt 0.25 0.03125
vt 0.15625 0.6875
vt 0.15625 0.84375
vt 0.46691 0.84375
vt 0.46691 0.6875
vt 0.25 0.029410000000000047
vt 0.25 0.18566000000000005
vt 0.56066 0.18566000000000005
vt 0.56066 0.029410000000000047
vn -0.7071067811865475 0 0.7071067811865476
vn 0 1 0
vn 0 -1 0
usemtl m_04f0f944-355d-f74a-af16-e1ef7b6fc2cc
f 23/28/7 24/27/7 22/26/7 21/25/7
f 22/32/8 17/31/8 18/30/8 21/29/8
f 23/36/9 20/35/9 19/34/9 24/33/9
o cube
v 0.375 0 0.12592000000000003
v 0.375 0 -0.37407999999999997
v 0.375 -0.15625 0.12592000000000003
v 0.375 -0.15625 -0.37407999999999997
v -0.375 0 -0.37407999999999997
v -0.375 0 0.12592000000000003
v -0.375 -0.15625 -0.37407999999999997
v -0.375 -0.15625 0.12592000000000003
vt 0.09375 0.1875
vt 0.875 0.1875
vt 0.875 0.03125
vt 0.09375 0.03125
vt 0.375 0.1875
vt 0.875 0.1875
vt 0.875 0.03125
vt 0.375 0.03125
vt 0.09375 0.1875
vt 0.59375 0.1875
vt 0.59375 0.03125
vt 0.09375 0.03125
vt 0.09375 0.71875
vt 0.875 0.71875
vt 0.875 0.21875
vt 0.09375 0.21875
vt 0.125 0.53125
vt 0.90625 0.53125
vt 0.90625 0.03125
vt 0.125 0.03125
vn 0 0 -1
vn 1 0 0
vn -1 0 0
vn 0 1 0
vn 0 -1 0
usemtl m_04f0f944-355d-f74a-af16-e1ef7b6fc2cc
f 28/40/10 31/39/10 29/38/10 26/37/10
f 27/44/11 28/43/11 26/42/11 25/41/11
f 31/48/12 32/47/12 30/46/12 29/45/12
f 30/52/13 25/51/13 26/50/13 29/49/13
f 31/56/14 28/55/14 27/54/14 32/53/14
o cube
v 0.34375 -0.15625 -0.33033
v 0.34375 -0.15625 -0.36158
v 0.34375 -0.49375 -0.33033
v 0.34375 -0.49375 -0.36158
v -0.34375 -0.15625 -0.36158
v -0.34375 -0.15625 -0.33033
v -0.34375 -0.49375 -0.36158
v -0.34375 -0.49375 -0.33033
vt 0.09375 0.90625
vt 0.90625 0.90625
vt 0.90625 0.56875
vt 0.09375 0.56875
vt 0.09375 0.90625
vt 0.90625 0.90625
vt 0.90625 0.56875
vt 0.09375 0.56875
vn 0 0 -1
vn 0 0 1
usemtl m_81c42279-e1e3-78d4-d539-431c16a32612
f 36/60/15 39/59/15 37/58/15 34/57/15
f 40/64/16 35/63/16 33/62/16 38/61/16
o cube
v 0.4375 -0.40625 0.21967000000000003
v 0.4375 -0.40625 -0.40532999999999997
v 0.4375 -0.5 0.21967000000000003
v 0.4375 -0.5 -0.40532999999999997
v 0.34375 -0.40625 -0.40532999999999997
v 0.34375 -0.40625 0.21967000000000003
v 0.34375 -0.5 -0.40532999999999997
v 0.34375 -0.5 0.21967000000000003
vt 0 0.125
vt 0.09375 0.125
vt 0.09375 0.03125
vt 0 0.03125
vt 0.03125 0.125
vt 0.65625 0.125
vt 0.65625 0.03125
vt 0.03125 0.03125
vt 0.65625 0.03125
vt 0.03125 0.03125
vt 0.03125 0.125
vt 0.65625 0.125
vt 0.09375 0.03125
vt 0.09375 0.125
vt 0.71875 0.125
vt 0.71875 0.03125
vn 0 0 -1
vn 1 0 0
vn -1 0 0
vn 0 1 0
usemtl m_879f9d68-f22e-e4fd-2912-570ef5d85e4a
f 44/68/17 47/67/17 45/66/17 42/65/17
f 43/72/18 44/71/18 42/70/18 41/69/18
f 47/76/19 48/75/19 46/74/19 45/73/19
f 46/80/20 41/79/20 42/78/20 45/77/20
o cube
v -0.34375 -0.40625 0.21967000000000003
v -0.34375 -0.40625 -0.40532999999999997
v -0.34375 -0.5 0.21967000000000003
v -0.34375 -0.5 -0.40532999999999997
v -0.4375 -0.40625 -0.40532999999999997
v -0.4375 -0.40625 0.21967000000000003
v -0.4375 -0.5 -0.40532999999999997
v -0.4375 -0.5 0.21967000000000003
vt 0 0.125
vt 0.09375 0.125
vt 0.09375 0.03125
vt 0 0.03125
vt 0.03125 0.125
vt 0.65625 0.125
vt 0.65625 0.03125
vt 0.03125 0.03125
vt 0.65625 0.03125
vt 0.03125 0.03125
vt 0.03125 0.125
vt 0.65625 0.125
vt 0.09375 0.03125
vt 0.09375 0.125
vt 0.71875 0.125
vt 0.71875 0.03125
vn 0 0 -1
vn 1 0 0
vn -1 0 0
vn 0 1 0
usemtl m_879f9d68-f22e-e4fd-2912-570ef5d85e4a
f 52/84/21 55/83/21 53/82/21 50/81/21
f 51/88/22 52/87/22 50/86/22 49/85/22
f 55/92/23 56/91/23 54/90/23 53/89/23
f 54/96/24 49/95/24 50/94/24 53/93/24
o cube
v -0.34375 0.1328125 -0.31157999999999997
v -0.34375 0.1328125 -0.40532999999999997
v -0.34375 -0.40625 -0.31157999999999997
v -0.34375 -0.40625 -0.40532999999999997
v -0.4375 0.1328125 -0.40532999999999997
v -0.4375 0.1328125 -0.31157999999999997
v -0.4375 -0.40625 -0.40532999999999997
v -0.4375 -0.40625 -0.31157999999999997
vt 0 0.671875
vt 0.09375 0.671875
vt 0.09375 0.1328125
vt 0 0.1328125
vt 0.90625 0.671875
vt 1 0.671875
vt 1 0.1328125
vt 0.90625 0.1328125
vt 0 0.671875
vt 0.09375 0.671875
vt 0.09375 0.1328125
vt 0 0.1328125
vt 0.90625 0.671875
vt 1 0.671875
vt 1 0.1328125
vt 0.90625 0.1328125
vn 0 0 -1
vn 1 0 0
vn 0 0 1
vn -1 0 0
usemtl m_879f9d68-f22e-e4fd-2912-570ef5d85e4a
f 60/100/25 63/99/25 61/98/25 58/97/25
f 59/104/26 60/103/26 58/102/26 57/101/26
f 64/108/27 59/107/27 57/106/27 62/105/27
f 63/112/28 64/111/28 62/110/28 61/109/28
o cube
v 0.4375 0.1328125 -0.31157999999999997
v 0.4375 0.1328125 -0.40532999999999997
v 0.4375 -0.40625 -0.31157999999999997
v 0.4375 -0.40625 -0.40532999999999997
v 0.34375 0.1328125 -0.40532999999999997
v 0.34375 0.1328125 -0.31157999999999997
v 0.34375 -0.40625 -0.40532999999999997
v 0.34375 -0.40625 -0.31157999999999997
vt 0 0.671875
vt 0.09375 0.671875
vt 0.09375 0.1328125
vt 0 0.1328125
vt 0.90625 0.671875
vt 1 0.671875
vt 1 0.1328125
vt 0.90625 0.1328125
vt 0 0.671875
vt 0.09375 0.671875
vt 0.09375 0.1328125
vt 0 0.1328125
vt 0.90625 0.671875
vt 1 0.671875
vt 1 0.1328125
vt 0.90625 0.1328125
vn 0 0 -1
vn 1 0 0
vn 0 0 1
vn -1 0 0
usemtl m_879f9d68-f22e-e4fd-2912-570ef5d85e4a
f 68/116/29 71/115/29 69/114/29 66/113/29
f 67/120/30 68/119/30 66/118/30 65/117/30
f 72/124/31 67/123/31 65/122/31 70/121/31
f 71/128/32 72/127/32 70/126/32 69/125/32
o cube
v -0.1515388858870101 -0.405625 0.37120867853042294
v -0.37120867853042294 -0.405625 0.15153888588701014
v -0.1515388858870101 -0.499375 0.37120867853042294
v -0.37120867853042294 -0.499375 0.15153888588701014
v -0.43749993926666175 -0.405625 0.21783014662324884
v -0.2178301466232489 -0.405625 0.43749993926666175
v -0.43749993926666175 -0.499375 0.21783014662324884
v -0.2178301466232489 -0.499375 0.43749993926666175
vt 0.1875 0.125
vt 0.49816 0.125
vt 0.49816 0.03125
vt 0.1875 0.03125
vt 0.1875 0.125
vt 0.49816 0.125
vt 0.49816 0.03125
vt 0.1875 0.03125
vt 0 0.71875
vt 0.09375 0.71875
vt 0.09375 0.40808999999999995
vt 0 0.40808999999999995
vn 0.7071067811865475 0 -0.7071067811865476
vn -0.7071067811865475 0 0.7071067811865476
vn 0 1 0
usemtl m_879f9d68-f22e-e4fd-2912-570ef5d85e4a
f 75/132/33 76/131/33 74/130/33 73/129/33
f 79/136/34 80/135/34 78/134/34 77/133/34
f 78/140/35 73/139/35 74/138/35 77/137/35
o cube
v 0.21782999999999997 -0.40625 0.4375
v 0.21782999999999997 -0.40625 0.34375
v 0.21782999999999997 -0.5 0.4375
v 0.21782999999999997 -0.5 0.34375
v -0.21783000000000002 -0.40625 0.34375
v -0.21783000000000002 -0.40625 0.4375
v -0.21783000000000002 -0.5 0.34375
v -0.21783000000000002 -0.5 0.4375
vt 0.1875 0.125
vt 0.56066 0.125
vt 0.56066 0.03125
vt 0.1875 0.03125
vt 0.1875 0.125
vt 0.56066 0.125
vt 0.56066 0.03125
vt 0.1875 0.03125
vt 0.09375 0.734375
vt 0.09375 0.29871499999999995
vt 0 0.29871499999999995
vt 0 0.734375
vn 0 0 -1
vn 0 0 1
vn 0 1 0
usemtl m_879f9d68-f22e-e4fd-2912-570ef5d85e4a
f 84/144/36 87/143/36 85/142/36 82/141/36
f 88/148/37 83/147/37 81/146/37 86/145/37
f 86/152/38 81/151/38 82/150/38 85/149/38
o cube
v 0.43749993926666175 -0.405625 0.21783014662324884
v 0.37120867853042294 -0.405625 0.15153888588701014
v 0.43749993926666175 -0.499375 0.21783014662324884
v 0.37120867853042294 -0.499375 0.15153888588701014
v 0.15153888588701014 -0.405625 0.37120867853042294
v 0.21783014662324884 -0.405625 0.43749993926666175
v 0.15153888588701014 -0.499375 0.37120867853042294
v 0.21783014662324884 -0.499375 0.43749993926666175
vt 0.1875 0.125
vt 0.49816 0.125
vt 0.49816 0.03125
vt 0.1875 0.03125
vt 0.1875 0.125
vt 0.49816 0.125
vt 0.49816 0.03125
vt 0.1875 0.03125
vt 0.09375 0.71875
vt 0.09375 0.40808999999999995
vt 0 0.40808999999999995
vt 0 0.71875
vn -0.7071067811865476 0 -0.7071067811865475
vn 0.7071067811865476 0 0.7071067811865475
vn 0 1 0
usemtl m_879f9d68-f22e-e4fd-2912-570ef5d85e4a
f 92/156/39 95/155/39 93/154/39 90/153/39
f 96/160/40 91/159/40 89/158/40 94/157/40
f 94/164/41 89/163/41 90/162/41 93/161/41
o cube
v -0.21783014662324895 0.7187499392666616 0.468125
v -0.21783014662324895 0.7187499392666616 0.375625
v -0.15153888588701014 0.6524586785304229 0.468125
v -0.15153888588701014 0.6524586785304229 0.375625
v -0.4374999392666618 0.49908014662324884 0.375625
v -0.4374999392666618 0.49908014662324884 0.468125
v -0.37120867853042294 0.43278888588701003 0.375625
v -0.37120867853042294 0.43278888588701003 0.468125
vt 0 0.39246499999999995
vt 0 0.703125
vt 0.09375 0.703125
vt 0.09375 0.39246499999999995
vt 0 0.39246499999999995
vt 0 0.703125
vt 0.09375 0.703125
vt 0.09375 0.39246499999999995
vt 0 0.39246499999999995
vt 0 0.703125
vt 0.09375 0.703125
vt 0.09375 0.39246499999999995
vt 0 0.39246499999999995
vt 0 0.703125
vt 0.09375 0.703125
vt 0.09375 0.39246499999999995
vn 0 0 -1
vn 0 0 1
vn -0.7071067811865476 0.7071067811865475 0
vn 0.7071067811865476 -0.7071067811865475 0
usemtl m_879f9d68-f22e-e4fd-2912-570ef5d85e4a
f 100/168/42 103/167/42 101/166/42 98/165/42
f 104/172/43 99/171/43 97/170/43 102/169/43
f 102/176/44 97/175/44 98/174/44 101/173/44
f 103/180/45 100/179/45 99/178/45 104/177/45
o cube
v 0.21782999999999997 0.71875 0.46875
v 0.21782999999999997 0.71875 0.375
v 0.21782999999999997 0.625 0.46875
v 0.21782999999999997 0.625 0.375
v -0.21783000000000002 0.71875 0.375
v -0.21783000000000002 0.71875 0.46875
v -0.21783000000000002 0.625 0.375
v -0.21783000000000002 0.625 0.46875
vt 0 0.26746499999999995
vt 0 0.703125
vt 0.09375 0.703125
vt 0.09375 0.26746499999999995
vt 0 0.26746499999999995
vt 0 0.703125
vt 0.09375 0.703125
vt 0.09375 0.26746499999999995
vt 0 0.26746499999999995
vt 0 0.703125
vt 0.09375 0.703125
vt 0.09375 0.26746499999999995
vt 0 0.26746499999999995
vt 0 0.703125
vt 0.09375 0.703125
vt 0.09375 0.26746499999999995
vn 0 0 -1
vn 0 0 1
vn 0 1 0
vn 0 -1 0
usemtl m_879f9d68-f22e-e4fd-2912-570ef5d85e4a
f 108/184/46 111/183/46 109/182/46 106/181/46
f 112/188/47 107/187/47 105/186/47 110/185/47
f 110/192/48 105/191/48 106/190/48 109/189/48
f 111/196/49 108/195/49 107/194/49 112/193/49
o cube
v 0.34282999999999997 0.42528011687217826 0.4043291419087276
v 0.34282999999999997 0.42528011687217826 0.4043291419087276
v 0.34282999999999997 -0.09440212016542049 0.18906971120336458
v 0.34282999999999997 -0.09440212016542049 0.18906971120336458
v -0.34282999999999997 0.42528011687217826 0.4043291419087276
v -0.34282999999999997 0.42528011687217826 0.4043291419087276
v -0.34282999999999997 -0.09440212016542049 0.18906971120336458
v -0.34282999999999997 -0.09440212016542049 0.18906971120336458
vt 0.15625 0.8125
vt 0.81066 0.8125
vt 0.81066 0.28125
vt 0.15625 0.28125
vt 0.15625 0.8125
vt 0.81066 0.8125
vt 0.81066 0.28125
vt 0.15625 0.28125
vn 0 0.3826834323650897 -0.9238795325112867
vn 0 -0.3826834323650897 0.9238795325112867
usemtl m_04f0f944-355d-f74a-af16-e1ef7b6fc2cc
f 116/200/50 119/199/50 117/198/50 114/197/50
f 120/204/51 115/203/51 113/202/51 118/201/51
o cube
v 0.21783014662324884 0.7187499392666616 0.468125
v 0.21783014662324884 0.7187499392666616 0.375625
v 0.43749993926666164 0.49908014662324895 0.468125
v 0.43749993926666164 0.49908014662324895 0.375625
v 0.15153888588701014 0.6524586785304229 0.375625
v 0.15153888588701014 0.6524586785304229 0.468125
v 0.37120867853042294 0.43278888588701014 0.375625
v 0.37120867853042294 0.43278888588701014 0.468125
vt 0 0.703125
vt 0.09375 0.703125
vt 0.09375 0.39246499999999995
vt 0 0.39246499999999995
vt 0.09375 0.39246499999999995
vt 0 0.39246499999999995
vt 0 0.703125
vt 0.09375 0.703125
vt 0.09375 0.39246499999999995
vt 0 0.39246499999999995
vt 0 0.703125
vt 0.09375 0.703125
vt 0.09375 0.39246499999999995
vt 0 0.39246499999999995
vt 0 0.703125
vt 0.09375 0.703125
vn 0 0 -1
vn 0.7071067811865475 0.7071067811865476 0
vn 0 0 1
vn -0.7071067811865475 -0.7071067811865476 0
usemtl m_879f9d68-f22e-e4fd-2912-570ef5d85e4a
f 124/208/52 127/207/52 125/206/52 122/205/52
f 123/212/53 124/211/53 122/210/53 121/209/53
f 128/216/54 123/215/54 121/214/54 126/213/54
f 127/220/55 128/219/55 126/218/55 125/217/55
o cube
v -0.35 0.21888006843259522 -0.030596101832135125
v -0.35 0.183003496648368 -0.11720980800506825
v -0.35 -0.44515834555989214 0.2444576151802731
v -0.35 -0.4810349173441193 0.15784390900734002
v -0.4125 0.183003496648368 -0.11720980800506825
v -0.4125 0.21888006843259522 -0.030596101832135125
v -0.4125 -0.4810349173441193 0.15784390900734002
v -0.4125 -0.44515834555989214 0.2444576151802731
vt 0 0.8125
vt 0.0625 0.8125
vt 0.0625 0.09375
vt 0 0.09375
vt 0.90625 0.828125
vt 1 0.828125
vt 1 0.109375
vt 0.90625 0.109375
vt 0 0.8125
vt 0.0625 0.8125
vt 0.0625 0.09375
vt 0 0.09375
vt 0.90625 0.828125
vt 1 0.828125
vt 1 0.109375
vt 0.90625 0.109375
vn 0 -0.3826834323650897 -0.9238795325112867
vn 1 0 0
vn 0 0.3826834323650897 0.9238795325112867
vn -1 0 0
usemtl m_879f9d68-f22e-e4fd-2912-570ef5d85e4a
f 132/224/56 135/223/56 133/222/56 130/221/56
f 131/228/57 132/227/57 130/226/57 129/225/57
f 136/232/58 131/231/58 129/230/58 134/229/58
f 135/236/59 136/235/59 134/234/59 133/233/59
o cube
v 0.4125 0.21888006843259522 -0.030596101832135125
v 0.4125 0.183003496648368 -0.11720980800506825
v 0.4125 -0.44515834555989214 0.2444576151802731
v 0.4125 -0.4810349173441193 0.15784390900734002
v 0.35 0.183003496648368 -0.11720980800506825
v 0.35 0.21888006843259522 -0.030596101832135125
v 0.35 -0.4810349173441193 0.15784390900734002
v 0.35 -0.44515834555989214 0.2444576151802731
vt 0 0.8125
vt 0.0625 0.8125
vt 0.0625 0.09375
vt 0 0.09375
vt 0.90625 0.828125
vt 1 0.828125
vt 1 0.109375
vt 0.90625 0.109375
vt 0 0.8125
vt 0.0625 0.8125
vt 0.0625 0.09375
vt 0 0.09375
vt 0.90625 0.828125
vt 1 0.828125
vt 1 0.109375
vt 0.90625 0.109375
vn 0 -0.3826834323650897 -0.9238795325112867
vn 1 0 0
vn 0 0.3826834323650897 0.9238795325112867
vn -1 0 0
usemtl m_879f9d68-f22e-e4fd-2912-570ef5d85e4a
f 140/240/60 143/239/60 141/238/60 138/237/60
f 139/244/61 140/243/61 138/242/61 137/241/61
f 144/248/62 139/247/62 137/246/62 142/245/62
f 143/252/63 144/251/63 142/250/63 141/249/63
o cube
v 0.4375 0.49907999999999997 0.46875
v 0.4375 0.49907999999999997 0.375
v 0.4375 0.40717000000000003 0.46875
v 0.4375 0.40717000000000003 0.375
v -0.4375 0.49907999999999997 0.375
v -0.4375 0.49907999999999997 0.46875
v -0.4375 0.40717000000000003 0.375
v -0.4375 0.40717000000000003 0.46875
vt 0 1
vt 0.875 1
vt 0.875 0.90809
vt 0 0.90809
vt 0 1
vt 0.09375 1
vt 0.09375 0.90809
vt 0 0.90809
vt 0 1
vt 0.875 1
vt 0.875 0.90809
vt 0 0.90809
vt 0 1
vt 0.09375 1
vt 0.09375 0.90809
vt 0 0.90809
vt 0.03125 1
vt 0.90625 1
vt 0.90625 0.90625
vt 0.03125 0.90625
vt 0 1
vt 0.875 1
vt 0.875 0.90625
vt 0 0.90625
vn 0 0 -1
vn 1 0 0
vn 0 0 1
vn -1 0 0
vn 0 1 0
vn 0 -1 0
usemtl m_879f9d68-f22e-e4fd-2912-570ef5d85e4a
f 148/256/64 151/255/64 149/254/64 146/253/64
f 147/260/65 148/259/65 146/258/65 145/257/65
f 152/264/66 147/263/66 145/262/66 150/261/66
f 151/268/67 152/267/67 150/266/67 149/265/67
f 150/272/68 145/271/68 146/270/68 149/269/68
f 151/276/69 148/275/69 147/274/69 152/273/69
o cube
v 0.4375 0.25 0.21875
v 0.4375 0.25 -0.2875
v 0.4375 0.15625 0.21875
v 0.4375 0.15625 -0.2875
v 0.34375 0.25 -0.2875
v 0.34375 0.25 0.21875
v 0.34375 0.15625 -0.2875
v 0.34375 0.15625 0.21875
vt 1 0.03125
vt 0.49375 0.03125
vt 0.49375 0.125
vt 1 0.125
vt 0.49375 0.125
vt 1 0.125
vt 1 0.03125
vt 0.49375 0.03125
vt 0.49375 0.03125
vt 0.49375 0.125
vt 1 0.125
vt 1 0.03125
vt 1 0.125
vt 1 0.03125
vt 0.49375 0.03125
vt 0.49375 0.125
vn 1 0 0
vn -1 0 0
vn 0 1 0
vn 0 -1 0
usemtl m_879f9d68-f22e-e4fd-2912-570ef5d85e4a
f 155/280/70 156/279/70 154/278/70 153/277/70
f 159/284/71 160/283/71 158/282/71 157/281/71
f 158/288/72 153/287/72 154/286/72 157/285/72
f 159/292/73 156/291/73 155/290/73 160/289/73
o cube
v -0.34375 0.25 0.21875
v -0.34375 0.25 -0.2875
v -0.34375 0.15625 0.21875
v -0.34375 0.15625 -0.2875
v -0.4375 0.25 -0.2875
v -0.4375 0.25 0.21875
v -0.4375 0.15625 -0.2875
v -0.4375 0.15625 0.21875
vt 1 0.03125
vt 0.49375 0.03125
vt 0.49375 0.125
vt 1 0.125
vt 0.49375 0.125
vt 1 0.125
vt 1 0.03125
vt 0.49375 0.03125
vt 0.49375 0.03125
vt 0.49375 0.125
vt 1 0.125
vt 1 0.03125
vt 1 0.125
vt 1 0.03125
vt 0.49375 0.03125
vt 0.49375 0.125
vn 1 0 0
vn -1 0 0
vn 0 1 0
vn 0 -1 0
usemtl m_879f9d68-f22e-e4fd-2912-570ef5d85e4a
f 163/296/74 164/295/74 162/294/74 161/293/74
f 167/300/75 168/299/75 166/298/75 165/297/75
f 166/304/76 161/303/76 162/302/76 165/301/76
f 167/308/77 164/307/77 163/306/77 168/305/77
o cube
v -0.34368750000000003 0.4066689607678531 0.46805349982053124
v -0.34368750000000003 0.4716595869684469 0.4030628736199374
v -0.34368750000000003 0.15752430583415544 0.2189088448868337
v -0.34368750000000003 0.22251493203474926 0.15391821868623978
v -0.43743750000000003 0.4716595869684469 0.4030628736199374
v -0.43743750000000003 0.4066689607678531 0.46805349982053124
v -0.43743750000000003 0.22251493203474926 0.15391821868623978
v -0.43743750000000003 0.15752430583415544 0.2189088448868337
vt 0 0.78125
vt 0.09375 0.78125
vt 0.09375 0.42890625000000004
vt 0 0.42890625000000004
vt 0.09191 0.42890625000000004
vt 0 0.42890625000000004
vt 0 0.78125
vt 0.09191 0.78125
vt 0 0.78125
vt 0.09375 0.78125
vt 0.09375 0.42890625000000004
vt 0 0.42890625000000004
vt 0.09191 0.42890625000000004
vt 0 0.42890625000000004
vt 0 0.78125
vt 0.09191 0.78125
vn 0 0.7071067811865476 -0.7071067811865475
vn 1 0 0
vn 0 -0.7071067811865476 0.7071067811865475
vn -1 0 0
usemtl m_879f9d68-f22e-e4fd-2912-570ef5d85e4a
f 172/312/78 175/311/78 173/310/78 170/309/78
f 171/316/79 172/315/79 170/314/79 169/313/79
f 176/320/80 171/319/80 169/318/80 174/317/80
f 175/324/81 176/323/81 174/322/81 173/321/81
o cube
v 0.43743750000000003 0.4066689607678531 0.46805349982053124
v 0.43743750000000003 0.4716595869684469 0.4030628736199374
v 0.43743750000000003 0.15752430583415544 0.2189088448868337
v 0.43743750000000003 0.22251493203474926 0.15391821868623978
v 0.34368750000000003 0.4716595869684469 0.4030628736199374
v 0.34368750000000003 0.4066689607678531 0.46805349982053124
v 0.34368750000000003 0.22251493203474926 0.15391821868623978
v 0.34368750000000003 0.15752430583415544 0.2189088448868337
vt 0 0.78125
vt 0.09375 0.78125
vt 0.09375 0.42890625000000004
vt 0 0.42890625000000004
vt 0.09191 0.42890625000000004
vt 0 0.42890625000000004
vt 0 0.78125
vt 0.09191 0.78125
vt 0 0.78125
vt 0.09375 0.78125
vt 0.09375 0.42890625000000004
vt 0 0.42890625000000004
vt 0.09191 0.42890625000000004
vt 0 0.42890625000000004
vt 0 0.78125
vt 0.09191 0.78125
vn 0 0.7071067811865476 -0.7071067811865475
vn 1 0 0
vn 0 -0.7071067811865476 0.7071067811865475
vn -1 0 0
usemtl m_879f9d68-f22e-e4fd-2912-570ef5d85e4a
f 180/328/82 183/327/82 181/326/82 178/325/82
f 179/332/83 180/331/83 178/330/83 177/329/83
f 184/336/84 179/335/84 177/334/84 182/333/84
f 183/340/85 184/339/85 182/338/85 181/337/85
o cube
v -0.34368750000000003 0.1858607110233953 -0.22150474992392655
v -0.34368750000000003 0.2508513372239891 -0.2864953761245203
v -0.34368750000000003 0.06653644169816542 -0.34082901924915643
v -0.34368750000000003 0.13152706789875923 -0.40581964544975024
v -0.43743750000000003 0.2508513372239891 -0.2864953761245203
v -0.43743750000000003 0.1858607110233953 -0.22150474992392655
v -0.43743750000000003 0.13152706789875923 -0.40581964544975024
v -0.43743750000000003 0.06653644169816542 -0.34082901924915643
vt 0 0.78125
vt 0.09375 0.78125
vt 0.09375 0.6125
vt 0 0.6125
vt 0.09191 0.6125
vt 0 0.6125
vt 0 0.78125
vt 0.09191 0.78125
vt 0 0.78125
vt 0.09375 0.78125
vt 0.09375 0.6125
vt 0 0.6125
vt 0.09191 0.6125
vt 0 0.6125
vt 0 0.78125
vt 0.09191 0.78125
vn 0 0.7071067811865476 -0.7071067811865475
vn 1 0 0
vn 0 -0.7071067811865476 0.7071067811865475
vn -1 0 0
usemtl m_879f9d68-f22e-e4fd-2912-570ef5d85e4a
f 188/344/86 191/343/86 189/342/86 186/341/86
f 187/348/87 188/347/87 186/346/87 185/345/87
f 192/352/88 187/351/88 185/350/88 190/349/88
f 191/356/89 192/355/89 190/354/89 189/353/89
o cube
v 0.43743750000000003 0.1858607110233953 -0.22150474992392655
v 0.43743750000000003 0.2508513372239891 -0.2864953761245203
v 0.43743750000000003 0.06653644169816542 -0.34082901924915643
v 0.43743750000000003 0.13152706789875923 -0.40581964544975024
v 0.34368750000000003 0.2508513372239891 -0.2864953761245203
v 0.34368750000000003 0.1858607110233953 -0.22150474992392655
v 0.34368750000000003 0.13152706789875923 -0.40581964544975024
v 0.34368750000000003 0.06653644169816542 -0.34082901924915643
vt 0 0.78125
vt 0.09375 0.78125
vt 0.09375 0.6125
vt 0 0.6125
vt 0.09191 0.6125
vt 0 0.6125
vt 0 0.78125
vt 0.09191 0.78125
vt 0 0.78125
vt 0.09375 0.78125
vt 0.09375 0.6125
vt 0 0.6125
vt 0.09191 0.6125
vt 0 0.6125
vt 0 0.78125
vt 0.09191 0.78125
vn 0 0.7071067811865476 -0.7071067811865475
vn 1 0 0
vn 0 -0.7071067811865476 0.7071067811865475
vn -1 0 0
usemtl m_879f9d68-f22e-e4fd-2912-570ef5d85e4a
f 196/360/90 199/359/90 197/358/90 194/357/90
f 195/364/91 196/363/91 194/362/91 193/361/91
f 200/368/92 195/367/92 193/366/92 198/365/92
f 199/372/93 200/371/93 198/370/93 197/369/93
o cube
v 0.34375 -0.40625 -0.15625
v 0.34375 -0.40625 -0.21875
v 0.34375 -0.46875 -0.15625
v 0.34375 -0.46875 -0.21875
v -0.34375 -0.40625 -0.21875
v -0.34375 -0.40625 -0.15625
v -0.34375 -0.46875 -0.21875
v -0.34375 -0.46875 -0.15625
vt 0.03125 0.125
vt 0.71875 0.125
vt 0.71875 0.0625
vt 0.03125 0.0625
vt 0.03125 0.125
vt 0.71875 0.125
vt 0.71875 0.0625
vt 0.03125 0.0625
vt 0.03125 0.125
vt 0.71875 0.125
vt 0.71875 0.0625
vt 0.03125 0.0625
vn 0 0 -1
vn 0 0 1
vn 0 1 0
usemtl m_879f9d68-f22e-e4fd-2912-570ef5d85e4a
f 204/376/94 207/375/94 205/374/94 202/373/94
f 208/380/95 203/379/95 201/378/95 206/377/95
f 206/384/96 201/383/96 202/382/96 205/381/96