# Made in Blockbench 4.6.0
mtllib materials.mtl

o cube
v 0.018750000000000044 -0.4375 -0.11501250000000002
v 0.018750000000000044 -0.4375 -0.25998750000000004
v 0.018750000000000044 -0.46875 -0.11501250000000002
v 0.018750000000000044 -0.46875 -0.25998750000000004
v -0.33125 -0.4375 -0.25998750000000004
v -0.33125 -0.4375 -0.11501250000000002
v -0.33125 -0.46875 -0.25998750000000004
v -0.33125 -0.46875 -0.11501250000000002
vt 0 1
vt 0.181218125 1
vt 0.181218125 0.96875
vt 0 0.96875
vt 0 1
vt 0.181218125 1
vt 0.181218125 0.96875
vt 0 0.96875
vt 0 0.53125
vt 0 0.96875
vt 0.181218125 0.96875
vt 0.181218125 0.53125
vt 0 0.5
vt 0 1
vt 0.1875 1
vt 0.1875 0.5
vn 1 0 0
vn -1 0 0
vn 0 1 0
vn 0 -1 0
usemtl m_55432c80-12b8-74e4-739e-c051d10a8ba1
f 3/4/1 4/3/1 2/2/1 1/1/1
f 7/8/2 8/7/2 6/6/2 5/5/2
f 6/12/3 1/11/3 2/10/3 5/9/3
f 7/16/4 4/15/4 3/14/4 8/13/4
o cube
v 0.018750089508905665 -0.43687499999999996 -0.11501271609361408
v -0.22873728390638598 -0.43687499999999996 -0.36250008950890567
v 0.018750089508905665 -0.46812499999999996 -0.11501271609361408
v -0.22873728390638598 -0.46812499999999996 -0.36250008950890567
v -0.33125008950890567 -0.43687499999999996 -0.2599872839063859
v -0.08376271609361402 -0.43687499999999996 -0.012499910491094335
v -0.33125008950890567 -0.46812499999999996 -0.2599872839063859
v -0.08376271609361402 -0.46812499999999996 -0.012499910491094335
vt 0 1
vt 0.181218125 1
vt 0.181218125 0.96875
vt 0 0.96875
vt 0 1
vt 0.181218125 1
vt 0.181218125 0.96875
vt 0 0.96875
vt 0 1
vt 0.1875 1
vt 0.1875 0.5
vt 0 0.5
vt 0 0.96875
vt 0.1875 0.96875
vt 0.1875 0.53125
vt 0 0.53125
vn -0.7071067811865476 0 -0.7071067811865475
vn 0.7071067811865476 0 0.7071067811865475
vn 0 1 0
vn 0 -1 0
usemtl m_55432c80-12b8-74e4-739e-c051d10a8ba1
f 12/20/5 15/19/5 13/18/5 10/17/5
f 16/24/6 11/23/6 9/22/6 14/21/6
f 14/28/7 9/27/7 10/26/7 13/25/7
f 15/32/8 12/31/8 11/30/8 16/29/8
o cube
v -0.08376250000000002 -0.4375 -0.012500000000000011
v -0.08376250000000002 -0.4375 -0.3625
v -0.08376250000000002 -0.46875 -0.012500000000000011
v -0.08376250000000002 -0.46875 -0.3625
v -0.22873749999999998 -0.4375 -0.3625
v -0.22873749999999998 -0.4375 -0.012500000000000011
v -0.22873749999999998 -0.46875 -0.3625
v -0.22873749999999998 -0.46875 -0.012500000000000011
vt 0 1
vt 0.181218125 1
vt 0.181218125 0.96875
vt 0 0.96875
vt 0 1
vt 0.181218125 1
vt 0.181218125 0.96875
vt 0 0.96875
vt 0 0.96875
vt 0.1875 0.96875
vt 0.1875 0.53125
vt 0 0.53125
vt 0 1
vt 0.1875 1
vt 0.1875 0.5
vt 0 0.5
vn 0 0 -1
vn 0 0 1
vn 0 1 0
vn 0 -1 0
usemtl m_55432c80-12b8-74e4-739e-c051d10a8ba1
f 20/36/9 23/35/9 21/34/9 18/33/9
f 24/40/10 19/39/10 17/38/10 22/37/10
f 22/44/11 17/43/11 18/42/11 21/41/11
f 23/48/12 20/47/12 19/46/12 24/45/12
o cube
v 0.018750089508905665 -0.43718749999999995 -0.25998728390638604
v -0.08376271609361408 -0.43718749999999995 -0.3625000895089057
v 0.018750089508905665 -0.46843749999999995 -0.25998728390638604
v -0.08376271609361408 -0.46843749999999995 -0.3625000895089057
v -0.33125008950890567 -0.43718749999999995 -0.11501271609361408
v -0.22873728390638592 -0.43718749999999995 -0.012499910491094335
v -0.33125008950890567 -0.46843749999999995 -0.11501271609361408
v -0.22873728390638592 -0.46843749999999995 -0.012499910491094335
vt 0 1
vt 0.181218125 1
vt 0.181218125 0.96875
vt 0 0.96875
vt 0 1
vt 0.181218125 1
vt 0.181218125 0.96875
vt 0 0.96875
vt 0 0.5
vt 0 1
vt 0.1875 1
vt 0.1875 0.5
vt 0 0.53125
vt 0 0.96875
vt 0.181218125 0.96875
vt 0.181218125 0.53125
vn 0.7071067811865475 0 -0.7071067811865476
vn -0.7071067811865475 0 0.7071067811865476
vn 0 1 0
vn 0 -1 0
usemtl m_55432c80-12b8-74e4-739e-c051d10a8ba1
f 27/52/13 28/51/13 26/50/13 25/49/13
f 31/56/14 32/55/14 30/54/14 29/53/14
f 30/60/15 25/59/15 26/58/15 29/57/15
f 31/64/16 28/63/16 27/62/16 32/61/16
o cube
v -0.09375 -0.46875 -0.125
v -0.09375 -0.46875 -0.25
v -0.09375 -0.5 -0.125
v -0.09375 -0.5 -0.25
v -0.21875 -0.46875 -0.25
v -0.21875 -0.46875 -0.125
v -0.21875 -0.5 -0.25
v -0.21875 -0.5 -0.125
vt 0 0.90625
vt 0.125 0.90625
vt 0.125 0.875
vt 0 0.875
vt 0 0.90625
vt 0.125 0.90625
vt 0.125 0.875
vt 0 0.875
vt 0 0.90625
vt 0.125 0.90625
vt 0.125 0.875
vt 0 0.875
vt 0 0.90625
vt 0.125 0.90625
vt 0.125 0.875
vt 0 0.875
vt 0 0.875
vt 0.125 0.875
vt 0.125 0.75
vt 0 0.75
vn 0 0 -1
vn 1 0 0
vn 0 0 1
vn -1 0 0
vn 0 -1 0
usemtl m_55432c80-12b8-74e4-739e-c051d10a8ba1
f 36/68/17 39/67/17 37/66/17 34/65/17
f 35/72/18 36/71/18 34/70/18 33/69/18
f 40/76/19 35/75/19 33/74/19 38/73/19
f 39/80/20 40/79/20 38/78/20 37/77/20
f 39/84/21 36/83/21 35/82/21 40/81/21
o cube
v -0.12991053063188246 -0.25 -0.2793459371833076
v -0.15200761754396208 -0.25 -0.3014430240953872
v -0.12991053063188246 -0.4375 -0.2793459371833076
v -0.15200761754396208 -0.4375 -0.3014430240953872
v -0.26249305210436014 -0.25 -0.1909575895349891
v -0.24039596519228046 -0.25 -0.16886050262290953
v -0.26249305210436014 -0.4375 -0.1909575895349891
v -0.24039596519228046 -0.4375 -0.16886050262290953
vt 0.15625 0
vt 0 0
vt 0 0.25
vt 0.15625 0.25
vt 0.125 0.25
vt 0.15625 0.25
vt 0.15625 0
vt 0.125 0
vt 0.15625 0
vt 0 0
vt 0 0.25
vt 0.15625 0.25
vt 0 0.25
vt 0.03125 0.25
vt 0.03125 0
vt 0 0
vt 0.0625 0.5
vt 0.21875 0.5
vt 0.21875 0.46875
vt 0.0625 0.46875
vt 0.125 0.8125
vt 0.28125 0.8125
vt 0.28125 0.78125
vt 0.125 0.78125
vn -0.7071067811865476 0 -0.7071067811865475
vn 0.7071067811865475 0 -0.7071067811865476
vn 0.7071067811865476 0 0.7071067811865475
vn -0.7071067811865475 0 0.7071067811865476
vn 0 1 0
vn 0 -1 0
usemtl m_55432c80-12b8-74e4-739e-c051d10a8ba1
f 44/88/22 47/87/22 45/86/22 42/85/22
f 43/92/23 44/91/23 42/90/23 41/89/23
f 48/96/24 43/95/24 41/94/24 46/93/24
f 47/100/25 48/99/25 46/98/25 45/97/25
f 46/104/26 41/103/26 42/102/26 45/101/26
f 47/108/27 44/107/27 43/106/27 48/105/27
o cube
v -0.28615999999999997 -0.28125 -0.17455125
v -0.28615999999999997 -0.28125 -0.20580125
v -0.28615999999999997 -0.40625 -0.17455125
v -0.28615999999999997 -0.40625 -0.20580125
v -0.31740999999999997 -0.28125 -0.20580125
v -0.31740999999999997 -0.28125 -0.17455125
v -0.31740999999999997 -0.40625 -0.20580125
v -0.31740999999999997 -0.40625 -0.17455125
vt 0.03125 0.71875
vt 0.0625 0.71875
vt 0.0625 0.59375
vt 0.03125 0.59375
vt 0 0.71875
vt 0.03125 0.71875
vt 0.03125 0.59375
vt 0 0.59375
vt 0 0.71875
vt 0.03125 0.71875
vt 0.03125 0.59375
vt 0 0.59375
vt 0 0.71875
vt 0.03125 0.71875
vt 0.03125 0.59375
vt 0 0.59375
vt 0 1
vt 0.03125 1
vt 0.03125 0.96875
vt 0 0.96875
vt 0 0.625
vt 0.03125 0.625
vt 0.03125 0.59375
vt 0 0.59375
vn 0 0 -1
vn 1 0 0
vn 0 0 1
vn -1 0 0
vn 0 1 0
vn 0 -1 0
usemtl m_55432c80-12b8-74e4-739e-c051d10a8ba1
f 52/112/28 55/111/28 53/110/28 50/109/28
f 51/116/29 52/115/29 50/114/29 49/113/29
f 56/120/30 51/119/30 49/118/30 54/117/30
f 55/124/31 56/123/31 54/122/31 53/121/31
f 54/128/32 49/127/32 50/126/32 53/125/32
f 55/132/33 52/131/33 51/130/33 56/129/33
o cube
v -0.0636192698956436 -0.25 -0.21305467644706877
v -0.12991053063188246 -0.25 -0.2793459371833076
v -0.0636192698956436 -0.4375 -0.21305467644706877
v -0.12991053063188246 -0.4375 -0.2793459371833076
v -0.15200761754396208 -0.25 -0.25724885027122796
v -0.08571635680772322 -0.25 -0.19095758953498915
v -0.15200761754396208 -0.4375 -0.25724885027122796
v -0.08571635680772322 -0.4375 -0.19095758953498915
vt 0.03125 0.25
vt 0.125 0.25
vt 0.125 0
vt 0.03125 0
vt 0.03125 0.25
vt 0.125 0.25
vt 0.125 0
vt 0.03125 0
vt 0.0625 0.5
vt 0.09375 0.5
vt 0.09375 0.40625
vt 0.0625 0.40625
vt 0.125 0.8125
vt 0.15625 0.8125
vt 0.15625 0.71875
vt 0.125 0.71875
vn 0.7071067811865475 0 -0.7071067811865476
vn -0.7071067811865475 0 0.7071067811865476
vn 0 1 0
vn 0 -1 0
usemtl m_55432c80-12b8-74e4-739e-c051d10a8ba1
f 59/136/34 60/135/34 58/134/34 57/133/34
f 63/140/35 64/139/35 62/138/35 61/137/35
f 62/144/36 57/143/36 58/142/36 61/141/36
f 63/148/37 60/147/37 59/146/37 64/145/37
o cube
v -0.04109880843608915 0.09375 -0.1541708209543638
v -0.04109880843608915 0.09375 -0.1541708209543638
v -0.04109880843608915 -0.28125 -0.1541708209543638
v -0.04109880843608915 -0.28125 -0.1541708209543638
v -0.27206869156391084 0.09375 -0.2498416790456362
v -0.27206869156391084 0.09375 -0.2498416790456362
v -0.27206869156391084 -0.28125 -0.2498416790456362
v -0.27206869156391084 -0.28125 -0.2498416790456362
vt 0.34375 0.625
vt 0.59375 0.625
vt 0.59375 0.25
vt 0.34375 0.25
vt 0.34375 0.625
vt 0.59375 0.625
vt 0.59375 0.25
vt 0.34375 0.25
vn 0.3826834323650897 0 -0.9238795325112867
vn -0.3826834323650897 0 0.9238795325112867
usemtl m_3f22bce7-b038-cb19-271c-2e03ca782b45
f 68/152/38 71/151/38 69/150/38 66/149/38
f 72/156/39 67/155/39 65/154/39 70/153/39
o cube
v -0.04152218298356403 -0.25 -0.19095758953498915
v -0.0636192698956436 -0.25 -0.21305467644706877
v -0.04152218298356403 -0.4375 -0.19095758953498915
v -0.0636192698956436 -0.4375 -0.21305467644706877
v -0.17410470445604165 -0.25 -0.10256924188667071
v -0.15200761754396208 -0.25 -0.08047215497459109
v -0.17410470445604165 -0.4375 -0.10256924188667071
v -0.15200761754396208 -0.4375 -0.08047215497459109
vt 0.15625 0
vt 0 0
vt 0 0.25
vt 0.15625 0.25
vt 0 0.25
vt 0.03125 0.25
vt 0.03125 0
vt 0 0
vt 0.15625 0
vt 0 0
vt 0 0.25
vt 0.15625 0.25
vt 0.125 0.25
vt 0.15625 0.25
vt 0.15625 0
vt 0.125 0
vt 0.0625 0.5
vt 0.21875 0.5
vt 0.21875 0.46875
vt 0.0625 0.46875
vt 0.125 0.8125
vt 0.28125 0.8125
vt 0.28125 0.78125
vt 0.125 0.78125
vn -0.7071067811865476 0 -0.7071067811865475
vn 0.7071067811865475 0 -0.7071067811865476
vn 0.7071067811865476 0 0.7071067811865475
vn -0.7071067811865475 0 0.7071067811865476
vn 0 1 0
vn 0 -1 0
usemtl m_55432c80-12b8-74e4-739e-c051d10a8ba1
f 76/160/40 79/159/40 77/158/40 74/157/40
f 75/164/41 76/163/41 74/162/41 73/161/41
f 80/168/42 75/167/42 73/166/42 78/165/42
f 79/172/43 80/171/43 78/170/43 77/169/43
f 78/176/44 73/175/44 74/174/44 77/173/44
f 79/180/45 76/179/45 75/178/45 80/177/45
o cube
v -0.15200761754396208 -0.25 -0.12466632879875028
v -0.2182988782802009 -0.25 -0.1909575895349891
v -0.15200761754396208 -0.4375 -0.12466632879875028
v -0.2182988782802009 -0.4375 -0.1909575895349891
v -0.24039596519228046 -0.25 -0.16886050262290953
v -0.17410470445604165 -0.25 -0.10256924188667071
v -0.24039596519228046 -0.4375 -0.16886050262290953
v -0.17410470445604165 -0.4375 -0.10256924188667071
vt 0.03125 0.25
vt 0.125 0.25
vt 0.125 0
vt 0.03125 0
vt 0.03125 0.25
vt 0.125 0.25
vt 0.125 0
vt 0.03125 0
vt 0.0625 0.5
vt 0.09375 0.5
vt 0.09375 0.40625
vt 0.0625 0.40625
vt 0.125 0.8125
vt 0.15625 0.8125
vt 0.15625 0.71875
vt 0.125 0.71875
vn 0.7071067811865475 0 -0.7071067811865476
vn -0.7071067811865475 0 0.7071067811865476
vn 0 1 0
vn 0 -1 0
usemtl m_55432c80-12b8-74e4-739e-c051d10a8ba1
f 83/184/46 84/183/46 82/182/46 81/181/46
f 87/188/47 88/187/47 86/186/47 85/185/47
f 86/192/48 81/191/48 82/190/48 85/189/48
f 87/196/49 84/195/49 83/194/49 88/193/49
o cube
v -0.08571635680772322 -0.3125 -0.19095758953498915
v -0.15200761754396208 -0.3125 -0.25724885027122796
v -0.08571635680772322 -0.4375 -0.19095758953498915
v -0.15200761754396208 -0.4375 -0.25724885027122796
v -0.2182988782802009 -0.3125 -0.1909575895349891
v -0.15200761754396208 -0.3125 -0.12466632879875028
v -0.2182988782802009 -0.4375 -0.1909575895349891
v -0.15200761754396208 -0.4375 -0.12466632879875028
vt 0.5625 0.09375
vt 0.65625 0.09375
vt 0.65625 0
vt 0.5625 0
vn 0 1 0
usemtl m_4779fd77-a3dd-0abe-4471-c745a1388e4f
f 94/200/50 89/199/50 90/198/50 93/197/50
o cube
v -0.22366000000000003 -0.28125 -0.17455125
v -0.22366000000000003 -0.28125 -0.20580125
v -0.22366000000000003 -0.3125 -0.17455125
v -0.22366000000000003 -0.3125 -0.20580125
v -0.28615999999999997 -0.28125 -0.20580125
v -0.28615999999999997 -0.28125 -0.17455125
v -0.28615999999999997 -0.3125 -0.20580125
v -0.28615999999999997 -0.3125 -0.17455125
vt 0 0.71875
vt 0.0625 0.71875
vt 0.0625 0.6875
vt 0 0.6875
vt 0 0.71875
vt 0.0625 0.71875
vt 0.0625 0.6875
vt 0 0.6875
vt 0 1
vt 0.0625 1
vt 0.0625 0.96875
vt 0 0.96875
vt 0 0.625
vt 0.0625 0.625
vt 0.0625 0.59375
vt 0 0.59375
vn 0 0 -1
vn 0 0 1
vn 0 1 0
vn 0 -1 0
usemtl m_55432c80-12b8-74e4-739e-c051d10a8ba1
f 100/204/51 103/203/51 101/202/51 98/201/51
f 104/208/52 99/207/52 97/206/52 102/205/52
f 102/212/53 97/211/53 98/210/53 101/209/53
f 103/216/54 100/215/54 99/214/54 104/213/54
o cube
v -0.22366000000000003 -0.375 -0.17455125
v -0.22366000000000003 -0.375 -0.20580125
v -0.22366000000000003 -0.40625 -0.17455125
v -0.22366000000000003 -0.40625 -0.20580125
v -0.28615999999999997 -0.375 -0.20580125
v -0.28615999999999997 -0.375 -0.17455125
v -0.28615999999999997 -0.40625 -0.20580125
v -0.28615999999999997 -0.40625 -0.17455125
vt 0 0.625
vt 0.0625 0.625
vt 0.0625 0.59375
vt 0 0.59375
vt 0 0.625
vt 0.0625 0.625
vt 0.0625 0.59375
vt 0 0.59375
vt 0 0.625
vt 0.0625 0.625
vt 0.0625 0.59375
vt 0 0.59375
vt 0 0.625
vt 0.0625 0.625
vt 0.0625 0.59375
vt 0 0.59375
vn 0 0 -1
vn 0 0 1
vn 0 1 0
vn 0 -1 0
usemtl m_55432c80-12b8-74e4-739e-c051d10a8ba1
f 108/220/55 111/219/55 109/218/55 106/217/55
f 112/224/56 107/223/56 105/222/56 110/221/56
f 110/228/57 105/227/57 106/226/57 109/225/57
f 111/232/58 108/231/58 107/230/58 112/229/58