# Made in Blockbench 4.6.0
mtllib materials.mtl

o cube
v 0.40625 -0.125 0.4375
v 0.40625 -0.125 -0.4375
v 0.40625 -0.4375 0.4375
v 0.40625 -0.4375 -0.4375
v -0.40625 -0.125 -0.4375
v -0.40625 -0.125 0.4375
v -0.40625 -0.4375 -0.4375
v -0.40625 -0.4375 0.4375
vt 0.09375 0.71875
vt 0.90625 0.71875
vt 0.90625 0.40625
vt 0.09375 0.40625
vt 0.09375 0.71875
vt 0.90625 0.71875
vt 0.90625 0.40625
vt 0.09375 0.40625
vt 0.96875 0.03125
vt 0.03125 0.03125
vt 0.03125 0.96875
vt 0.96875 0.96875
vn 0 0 -1
vn 0 0 1
vn 0 1 0
usemtl m_a2868724-03ab-1cba-b57d-efefe449f0b7
f 4/4/1 7/3/1 5/2/1 2/1/1
f 8/8/2 3/7/2 1/6/2 6/5/2
f 6/12/3 1/11/3 2/10/3 5/9/3
o cube
v 0.40625 -0.4375 0.4375
v 0.40625 -0.4375 -0.4375
v 0.40625 -0.5 0.4375
v 0.40625 -0.5 -0.4375
v -0.40625 -0.4375 -0.4375
v -0.40625 -0.4375 0.4375
v -0.40625 -0.5 -0.4375
v -0.40625 -0.5 0.4375
vt 0.09375 0.71875
vt 0.90625 0.71875
vt 0.90625 0.34375
vt 0.09375 0.34375
vt 0.09375 0.9375
vt 0.90625 0.9375
vt 0.90625 0.0625
vt 0.09375 0.0625
vt 0.09375 0.9375
vt 0.90625 0.9375
vt 0.90625 0.0625
vt 0.09375 0.0625
vn 0 0 1
vn 0 1 0
vn 0 -1 0
usemtl m_a2868724-03ab-1cba-b57d-efefe449f0b7
f 16/16/4 11/15/4 9/14/4 14/13/4
usemtl m_cca24361-e045-0254-e83d-6ddd2f0ca168
f 14/20/5 9/19/5 10/18/5 13/17/5
f 15/24/6 12/23/6 11/22/6 16/21/6
o cube
v 0.46875 0.03125 0.5
v 0.46875 0.03125 0.4375
v 0.46875 -0.1875 0.5
v 0.46875 -0.1875 0.4375
v -0.46875 0.03125 0.4375
v -0.46875 0.03125 0.5
v -0.46875 -0.1875 0.4375
v -0.46875 -0.1875 0.5
vt 0.03125 1
vt 0.96875 1
vt 0.96875 0.78125
vt 0.03125 0.78125
vt 0.59375 0.8125
vt 0.59375 0.75
vt 0.375 0.75
vt 0.375 0.8125
vt 0.03125 0.5
vt 0.96875 0.5
vt 0.96875 0.28125
vt 0.03125 0.28125
vt 0.375 0.75
vt 0.375 0.8125
vt 0.59375 0.8125
vt 0.59375 0.75
vt 0.96875 0.9375
vt 0.03125 0.9375
vt 0.03125 1
vt 0.96875 1
vt 0.03125 0.8125
vt 0.96875 0.8125
vt 0.96875 0.75
vt 0.03125 0.75
vn 0 0 -1
vn 1 0 0
vn 0 0 1
vn -1 0 0
vn 0 1 0
vn 0 -1 0
usemtl m_45f777f7-14ac-9e8e-30ea-552219d6c36a
f 20/28/7 23/27/7 21/26/7 18/25/7
f 19/32/8 20/31/8 18/30/8 17/29/8
f 24/36/9 19/35/9 17/34/9 22/33/9
f 23/40/10 24/39/10 22/38/10 21/37/10
f 22/44/11 17/43/11 18/42/11 21/41/11
f 23/48/12 20/47/12 19/46/12 24/45/12
o cube
v 0.46875 -0.25 0.5
v 0.46875 -0.25 0.4375
v 0.46875 -0.5 0.5
v 0.46875 -0.5 0.4375
v -0.46875 -0.25 0.4375
v -0.46875 -0.25 0.5
v -0.46875 -0.5 0.4375
v -0.46875 -0.5 0.5
vt 0.03125 0.25
vt 0.96875 0.25
vt 0.96875 0
vt 0.03125 0
vt 0.625 0.8125
vt 0.625 0.75
vt 0.375 0.75
vt 0.375 0.8125
vt 0.03125 0.25
vt 0.96875 0.25
vt 0.96875 0
vt 0.03125 0
vt 0.375 0.75
vt 0.375 0.8125
vt 0.625 0.8125
vt 0.625 0.75
vt 0.96875 0.9375
vt 0.03125 0.9375
vt 0.03125 1
vt 0.96875 1
vt 0.03125 0.8125
vt 0.96875 0.8125
vt 0.96875 0.75
vt 0.03125 0.75
vn 0 0 -1
vn 1 0 0
vn 0 0 1
vn -1 0 0
vn 0 1 0
vn 0 -1 0
usemtl m_45f777f7-14ac-9e8e-30ea-552219d6c36a
f 28/52/13 31/51/13 29/50/13 26/49/13
f 27/56/14 28/55/14 26/54/14 25/53/14
f 32/60/15 27/59/15 25/58/15 30/57/15
f 31/64/16 32/63/16 30/62/16 29/61/16
f 30/68/17 25/67/17 26/66/17 29/65/17
f 31/72/18 28/71/18 27/70/18 32/69/18
o cube
v 0.46875 -0.03125 -0.4375
v 0.46875 -0.03125 -0.5
v 0.46875 -0.25 -0.4375
v 0.46875 -0.25 -0.5
v -0.46875 -0.03125 -0.5
v -0.46875 -0.03125 -0.4375
v -0.46875 -0.25 -0.5
v -0.46875 -0.25 -0.4375
vt 0.03125 0.5
vt 0.96875 0.5
vt 0.96875 0.28125
vt 0.03125 0.28125
vt 0.375 0.75
vt 0.375 0.8125
vt 0.59375 0.8125
vt 0.59375 0.75
vt 0.03125 1
vt 0.96875 1
vt 0.96875 0.78125
vt 0.03125 0.78125
vt 0.59375 0.8125
vt 0.59375 0.75
vt 0.375 0.75
vt 0.375 0.8125
vt 0.03125 1
vt 0.96875 1
vt 0.96875 0.9375
vt 0.03125 0.9375
vt 0.96875 0.75
vt 0.03125 0.75
vt 0.03125 0.8125
vt 0.96875 0.8125
vn 0 0 -1
vn 1 0 0
vn 0 0 1
vn -1 0 0
vn 0 1 0
vn 0 -1 0
usemtl m_45f777f7-14ac-9e8e-30ea-552219d6c36a
f 36/76/19 39/75/19 37/74/19 34/73/19
f 35/80/20 36/79/20 34/78/20 33/77/20
f 40/84/21 35/83/21 33/82/21 38/81/21
f 39/88/22 40/87/22 38/86/22 37/85/22
f 38/92/23 33/91/23 34/90/23 37/89/23
f 39/96/24 36/95/24 35/94/24 40/93/24
o cube
v 0.46875 -0.3125 -0.4375
v 0.46875 -0.3125 -0.5
v 0.46875 -0.5 -0.4375
v 0.46875 -0.5 -0.5
v -0.46875 -0.3125 -0.5
v -0.46875 -0.3125 -0.4375
v -0.46875 -0.5 -0.5
v -0.46875 -0.5 -0.4375
vt 0.03125 0.25
vt 0.96875 0.25
vt 0.96875 0.0625
vt 0.03125 0.0625
vt 0.375 0.75
vt 0.375 0.8125
vt 0.5625 0.8125
vt 0.5625 0.75
vt 0.03125 0.25
vt 0.96875 0.25
vt 0.96875 0.0625
vt 0.03125 0.0625
vt 0.5625 0.8125
vt 0.5625 0.75
vt 0.375 0.75
vt 0.375 0.8125
vt 0.03125 1
vt 0.96875 1
vt 0.96875 0.9375
vt 0.03125 0.9375
vt 0.96875 0.75
vt 0.03125 0.75
vt 0.03125 0.8125
vt 0.96875 0.8125
vn 0 0 -1
vn 1 0 0
vn 0 0 1
vn -1 0 0
vn 0 1 0
vn 0 -1 0
usemtl m_45f777f7-14ac-9e8e-30ea-552219d6c36a
f 44/100/25 47/99/25 45/98/25 42/97/25
f 43/104/26 44/103/26 42/102/26 41/101/26
f 48/108/27 43/107/27 41/106/27 46/105/27
f 47/112/28 48/111/28 46/110/28 45/109/28
f 46/116/29 41/115/29 42/114/29 45/113/29
f 47/120/30 44/119/30 43/118/30 48/117/30
o cube
v -0.40625 -0.03125 0.4375
v -0.40625 -0.03125 -0.4375
v -0.40625 -0.5 0.4375
v -0.40625 -0.5 -0.4375
v -0.46875 -0.03125 -0.4375
v -0.46875 -0.03125 0.4375
v -0.46875 -0.5 -0.4375
v -0.46875 -0.5 0.4375
vt 0.71875 0.8125
vt 0.71875 0.75
vt 0.21875 0.75
vt 0.21875 0.8125
vt 0.0625 1
vt 0.9375 1
vt 0.9375 0.53125
vt 0.0625 0.53125
vt 0.21875 0.75
vt 0.21875 0.8125
vt 0.71875 0.8125
vt 0.71875 0.75
vt 0.0625 1
vt 0.9375 1
vt 0.9375 0.53125
vt 0.0625 0.53125
vt 0.0625 0.9375
vt 0.0625 1
vt 0.9375 1
vt 0.9375 0.9375
vt 0.0625 0.75
vt 0.0625 0.8125
vt 0.9375 0.8125
vt 0.9375 0.75
vn 0 0 -1
vn 1 0 0
vn 0 0 1
vn -1 0 0
vn 0 1 0
vn 0 -1 0
usemtl m_45f777f7-14ac-9e8e-30ea-552219d6c36a
f 52/124/31 55/123/31 53/122/31 50/121/31
usemtl m_79be70f8-f10a-8c82-9f4b-6ca3a82ca7cc
f 51/128/32 52/127/32 50/126/32 49/125/32
usemtl m_45f777f7-14ac-9e8e-30ea-552219d6c36a
f 56/132/33 51/131/33 49/130/33 54/129/33
usemtl m_79be70f8-f10a-8c82-9f4b-6ca3a82ca7cc
f 55/136/34 56/135/34 54/134/34 53/133/34
usemtl m_45f777f7-14ac-9e8e-30ea-552219d6c36a
f 54/140/35 49/139/35 50/138/35 53/137/35
f 55/144/36 52/143/36 51/142/36 56/141/36
o cube
v 0.46875 -0.03125 0.4375
v 0.46875 -0.03125 -0.4375
v 0.46875 -0.5 0.4375
v 0.46875 -0.5 -0.4375
v 0.40625 -0.03125 -0.4375
v 0.40625 -0.03125 0.4375
v 0.40625 -0.5 -0.4375
v 0.40625 -0.5 0.4375
vt 0.71875 0.8125
vt 0.71875 0.75
vt 0.21875 0.75
vt 0.21875 0.8125
vt 0.0625 1
vt 0.9375 1
vt 0.9375 0.53125
vt 0.0625 0.53125
vt 0.21875 0.75
vt 0.21875 0.8125
vt 0.71875 0.8125
vt 0.71875 0.75
vt 0.0625 1
vt 0.9375 1
vt 0.9375 0.53125
vt 0.0625 0.53125
vt 0.0625 0.9375
vt 0.0625 1
vt 0.9375 1
vt 0.9375 0.9375
vt 0.0625 0.75
vt 0.0625 0.8125
vt 0.9375 0.8125
vt 0.9375 0.75
vn 0 0 -1
vn 1 0 0
vn 0 0 1
vn -1 0 0
vn 0 1 0
vn 0 -1 0
usemtl m_45f777f7-14ac-9e8e-30ea-552219d6c36a
f 60/148/37 63/147/37 61/146/37 58/145/37
usemtl m_79be70f8-f10a-8c82-9f4b-6ca3a82ca7cc
f 59/152/38 60/151/38 58/150/38 57/149/38
usemtl m_45f777f7-14ac-9e8e-30ea-552219d6c36a
f 64/156/39 59/155/39 57/154/39 62/153/39
usemtl m_79be70f8-f10a-8c82-9f4b-6ca3a82ca7cc
f 63/160/40 64/159/40 62/158/40 61/157/40
usemtl m_45f777f7-14ac-9e8e-30ea-552219d6c36a
f 62/164/41 57/163/41 58/162/41 61/161/41
f 63/168/42 60/167/42 59/166/42 64/165/42
o cube
v 0.3125 -0.08262105885102083 0.3520097529140582
v 0.3125 0.013049799240251625 0.12103986978623649
v 0.3125 -0.28471970658786483 0.2682977520841948
v 0.3125 -0.18904884849659237 0.03732786895637319
v 0.0625 0.013049799240251625 0.12103986978623649
v 0.0625 -0.08262105885102083 0.3520097529140582
v 0.0625 -0.18904884849659237 0.03732786895637319
v 0.0625 -0.28471970658786483 0.2682977520841948
vt 0.125 0.6875
vt 0.375 0.6875
vt 0.375 0.46875
vt 0.125 0.46875
vt 0.125 0.75
vt 0.375 0.75
vt 0.375 0.53125
vt 0.125 0.53125
vt 0.15625 0.75
vt 0.40625 0.75
vt 0.40625 0.53125
vt 0.15625 0.53125
vt 0.375 0.6875
vt 0.125 0.6875
vt 0.125 0.9375
vt 0.375 0.9375
vn 0 0.3826834323650897 -0.9238795325112867
vn 1 0 0
vn -1 0 0
vn 0 0.9238795325112867 0.3826834323650897
usemtl m_41fb663a-a8c4-af88-d4bb-bd38e4d70ac3
f 68/172/43 71/171/43 69/170/43 66/169/43
f 67/176/44 68/175/44 66/174/44 65/173/44
f 71/180/45 72/179/45 70/178/45 69/177/45
f 70/184/46 65/183/46 66/182/46 69/181/46
o cube
v -0.03125 -0.09953343698058947 -0.06382033973832857
v -0.03125 -0.00386257888931707 -0.29479022286615025
v -0.03125 -0.24388961393547803 -0.12361462604537382
v -0.03125 -0.14821875584420563 -0.3545845091731955
v -0.28125 -0.00386257888931707 -0.29479022286615025
v -0.28125 -0.09953343698058947 -0.06382033973832857
v -0.28125 -0.14821875584420563 -0.3545845091731955
v -0.28125 -0.24388961393547803 -0.12361462604537382
vt 0.59375 0.21875
vt 0.84375 0.21875
vt 0.84375 0.0625
vt 0.59375 0.0625
vt 0.625 0.21875
vt 0.875 0.21875
vt 0.875 0.0625
vt 0.625 0.0625
vt 0.625 0.21875
vt 0.875 0.21875
vt 0.875 0.0625
vt 0.625 0.0625
vt 0.84375 0.125
vt 0.59375 0.125
vt 0.59375 0.375
vt 0.84375 0.375
vn 0 0.3826834323650897 -0.9238795325112867
vn 1 0 0
vn -1 0 0
vn 0 0.9238795325112867 0.3826834323650897
usemtl m_41fb663a-a8c4-af88-d4bb-bd38e4d70ac3
f 76/188/47 79/187/47 77/186/47 74/185/47
f 75/192/48 76/191/48 74/190/48 73/189/48
f 79/196/49 80/195/49 78/194/49 77/193/49
f 78/200/50 73/199/50 74/198/50 77/197/50
o cube
v 0.09375 -0.010867915282566531 0.07121765943180802
v 0.09375 -0.09457991611242988 -0.13088098830503592
v 0.09375 -0.18409532762843278 0.14297080300026233
v 0.09375 -0.26780732845829613 -0.059127844736581614
v -0.15625 -0.09457991611242988 -0.13088098830503592
v -0.15625 -0.010867915282566531 0.07121765943180802
v -0.15625 -0.26780732845829613 -0.059127844736581614
v -0.15625 -0.18409532762843278 0.14297080300026233
vt 0.65625 0.5625
vt 0.875 0.5625
vt 0.875 0.375
vt 0.65625 0.375
vt 0.875 0.59375
vt 0.625 0.59375
vt 0.625 0.78125
vt 0.875 0.78125
vt 0.625 0.5625
vt 0.84375 0.5625
vt 0.84375 0.375
vt 0.625 0.375
vt 0.875 0.40625
vt 0.625 0.40625
vt 0.625 0.625
vt 0.875 0.625
vn 1 0 0
vn 0 0.3826834323650897 0.9238795325112867
vn -1 0 0
vn 0 0.9238795325112867 -0.3826834323650897
usemtl m_41fb663a-a8c4-af88-d4bb-bd38e4d70ac3
f 83/204/51 84/203/51 82/202/51 81/201/51
f 88/208/52 83/207/52 81/206/52 86/205/52
f 87/212/53 88/211/53 86/210/53 85/209/53
f 86/216/54 81/215/54 82/214/54 85/213/54
o cube
v -0.03125 0.001090941978842519 0.3500888948227858
v -0.03125 -0.09457991611242988 0.11911901169496408
v -0.03125 -0.17213647036702373 0.4218420383912401
v -0.03125 -0.26780732845829613 0.19087215526341839
v -0.28125 -0.09457991611242988 0.11911901169496408
v -0.28125 0.001090941978842519 0.3500888948227858
v -0.28125 -0.26780732845829613 0.19087215526341839
v -0.28125 -0.17213647036702373 0.4218420383912401
vt 0.125 0.75
vt 0.375 0.75
vt 0.375 0.5625
vt 0.125 0.5625
vt 0.375 0.65625
vt 0.125 0.65625
vt 0.125 0.84375
vt 0.375 0.84375
vt 0.15625 0.75
vt 0.40625 0.75
vt 0.40625 0.5625
vt 0.15625 0.5625
vt 0.84375 0.65625
vt 0.59375 0.65625
vt 0.59375 0.90625
vt 0.84375 0.90625
vn 1 0 0
vn 0 0.3826834323650897 0.9238795325112867
vn -1 0 0
vn 0 0.9238795325112867 -0.3826834323650897
usemtl m_41fb663a-a8c4-af88-d4bb-bd38e4d70ac3
f 91/220/55 92/219/55 90/218/55 89/217/55
f 96/224/56 91/223/56 89/222/56 94/221/56
f 95/228/57 96/227/57 94/226/57 93/225/57
f 94/232/58 89/231/58 90/230/58 93/229/58
o cube
v 0.28125 -0.03973915067354428 -0.13557348330678287
v 0.28125 -0.12345115150340763 -0.33767213104362687
v 0.28125 -0.18409532762843278 -0.07577919699973762
v 0.28125 -0.26780732845829613 -0.2778778447365816
v 0.03125 -0.12345115150340763 -0.33767213104362687
v 0.03125 -0.03973915067354428 -0.13557348330678287
v 0.03125 -0.26780732845829613 -0.2778778447365816
v 0.03125 -0.18409532762843278 -0.07577919699973762
vt 0.15625 0.3125
vt 0.375 0.3125
vt 0.375 0.15625
vt 0.15625 0.15625
vt 0.15625 0.25
vt 0.40625 0.25
vt 0.40625 0.09375
vt 0.15625 0.09375
vt 0.1875 0.3125
vt 0.40625 0.3125
vt 0.40625 0.15625
vt 0.1875 0.15625
vt 0.40625 0.25
vt 0.15625 0.25
vt 0.15625 0.46875
vt 0.40625 0.46875
vn 1 0 0
vn 0 0.3826834323650897 0.9238795325112867
vn -1 0 0
vn 0 0.9238795325112867 -0.3826834323650897
usemtl m_41fb663a-a8c4-af88-d4bb-bd38e4d70ac3
f 99/236/59 100/235/59 98/234/59 97/233/59
f 104/240/60 99/239/60 97/238/60 102/237/60
f 103/244/61 104/243/61 102/242/61 101/241/61
f 102/248/62 97/247/62 98/246/62 101/245/62