# Made in Blockbench 4.6.0
mtllib materials.mtl

o cube
v 0.09213541421073312 0 0.09222380255838147
v 0.09217960838455719 0 0.0921796083845573
v 0.09213541421073312 -0.21875 0.09222380255838147
v 0.09217960838455719 -0.21875 0.0921796083845573
v -0.0625 0 -0.0625
v -0.06254419417382417 0 -0.062455805826175825
v -0.0625 -0.21875 -0.0625
v -0.06254419417382417 -0.21875 -0.062455805826175825
vt 0.40625 0.53125
vt 0.5625 0.53125
vt 0.5625 0.3125
vt 0.40625 0.3125
vt 0.40625 0.53125
vt 0.5625 0.53125
vt 0.5625 0.3125
vt 0.40625 0.3125
vn 0.7071067811865476 0 -0.7071067811865475
vn -0.7071067811865476 0 0.7071067811865475
usemtl m_f1804976-4e0e-bd00-f687-b7bcf3103468
f 4/4/1 7/3/1 5/2/1 2/1/1
f 8/8/2 3/7/2 1/6/2 6/5/2
o cube
v 0.09222380255838136 0 -0.060885414210733124
v 0.09217960838455719 0 -0.0609296083845573
v 0.09222380255838136 -0.21875 -0.060885414210733124
v 0.09217960838455719 -0.21875 -0.0609296083845573
v -0.0625 0 0.09375
v -0.06245580582617588 0 0.09379419417382417
v -0.0625 -0.21875 0.09375
v -0.06245580582617588 -0.21875 0.09379419417382417
vt 0.40625 0.53125
vt 0.5625 0.53125
vt 0.5625 0.3125
vt 0.40625 0.3125
vt 0.40625 0.53125
vt 0.5625 0.53125
vt 0.5625 0.3125
vt 0.40625 0.3125
vn -0.7071067811865476 0 -0.7071067811865475
vn 0.7071067811865476 0 0.7071067811865475
usemtl m_f1804976-4e0e-bd00-f687-b7bcf3103468
f 12/12/3 15/11/3 13/10/3 10/9/3
f 16/16/4 11/15/4 9/14/4 14/13/4
o cube
v 0.0625 -0.21875 0.0625
v 0.0625 -0.21875 -0.03125
v 0.0625 -0.40625 0.0625
v 0.0625 -0.40625 -0.03125
v -0.03125 -0.21875 -0.03125
v -0.03125 -0.21875 0.0625
v -0.03125 -0.40625 -0.03125
v -0.03125 -0.40625 0.0625
vt 0.4375 0.3125
vt 0.53125 0.3125
vt 0.53125 0.09375
vt 0.4375 0.09375
vt 0.4375 0.3125
vt 0.53125 0.3125
vt 0.53125 0.09375
vt 0.4375 0.09375
vt 0.4375 0.3125
vt 0.53125 0.3125
vt 0.53125 0.09375
vt 0.4375 0.09375
vt 0.4375 0.3125
vt 0.53125 0.3125
vt 0.53125 0.09375
vt 0.4375 0.09375
vt 0.4375 0.3125
vt 0.53125 0.3125
vt 0.53125 0.21875
vt 0.4375 0.21875
vn 0 0 -1
vn 1 0 0
vn 0 0 1
vn -1 0 0
vn 0 1 0
usemtl m_f1804976-4e0e-bd00-f687-b7bcf3103468
f 20/20/5 23/19/5 21/18/5 18/17/5
f 19/24/6 20/23/6 18/22/6 17/21/6
f 24/28/7 19/27/7 17/26/7 22/25/7
f 23/32/8 24/31/8 22/30/8 21/29/8
f 22/36/9 17/35/9 18/34/9 21/33/9
o cube
v 0.15625 -0.40625 0.15625
v 0.15625 -0.40625 -0.125
v 0.15625 -0.5 0.15625
v 0.15625 -0.5 -0.125
v -0.125 -0.40625 -0.125
v -0.125 -0.40625 0.15625
v -0.125 -0.5 -0.125
v -0.125 -0.5 0.15625
vt 0.625 0.09375
vt 0.96875 0.09375
vt 0.96875 0
vt 0.625 0
vt 0.625 0.09375
vt 0.96875 0.09375
vt 0.96875 0
vt 0.625 0
vt 0.625 0.09375
vt 0.96875 0.09375
vt 0.96875 0
vt 0.625 0
vt 0.625 0.09375
vt 0.96875 0.09375
vt 0.96875 0
vt 0.625 0
vt 0.03125 0.375
vt 0.375 0.375
vt 0.375 0.03125
vt 0.03125 0.03125
vt 0.03125 0.375
vt 0.375 0.375
vt 0.375 0.03125
vt 0.03125 0.03125
vn 0 0 -1
vn 1 0 0
vn 0 0 1
vn -1 0 0
vn 0 1 0
vn 0 -1 0
usemtl m_f1804976-4e0e-bd00-f687-b7bcf3103468
f 28/40/10 31/39/10 29/38/10 26/37/10
f 27/44/11 28/43/11 26/42/11 25/41/11
f 32/48/12 27/47/12 25/46/12 30/45/12
f 31/52/13 32/51/13 30/50/13 29/49/13
f 30/56/14 25/55/14 26/54/14 29/53/14
f 31/60/15 28/59/15 27/58/15 32/57/15
o cube
v 0.15625 0.0625 0.15625
v 0.15625 0.0625 -0.125
v 0.15625 -0.40625 0.15625
v 0.15625 -0.40625 -0.125
v -0.125 0.0625 -0.125
v -0.125 0.0625 0.15625
v -0.125 -0.40625 -0.125
v -0.125 -0.40625 0.15625
vt 0.625 0.625
vt 0.96875 0.625
vt 0.96875 0.09375
vt 0.625 0.09375
vt 0.625 0.625
vt 0.96875 0.625
vt 0.96875 0.09375
vt 0.625 0.09375
vt 0.625 0.625
vt 0.96875 0.625
vt 0.96875 0.09375
vt 0.625 0.09375
vt 0.625 0.625
vt 0.96875 0.625
vt 0.96875 0.09375
vt 0.625 0.09375
vn 0 0 -1
vn 1 0 0
vn 0 0 1
vn -1 0 0
usemtl m_f1804976-4e0e-bd00-f687-b7bcf3103468
f 36/64/16 39/63/16 37/62/16 34/61/16
f 35/68/17 36/67/17 34/66/17 33/65/17
f 40/72/18 35/71/18 33/70/18 38/69/18
f 39/76/19 40/75/19 38/74/19 37/73/19
o cube
v 0.1875 0.125 0.1875
v 0.1875 0.125 -0.15625
v 0.1875 0.0625 0.1875
v 0.1875 0.0625 -0.15625
v -0.15625 0.125 -0.15625
v -0.15625 0.125 0.1875
v -0.15625 0.0625 -0.15625
v -0.15625 0.0625 0.1875
vt 0.59375 0.6875
vt 1 0.6875
vt 1 0.625
vt 0.59375 0.625
vt 0.59375 0.6875
vt 1 0.6875
vt 1 0.625
vt 0.59375 0.625
vt 0.59375 0.6875
vt 1 0.6875
vt 1 0.625
vt 0.59375 0.625
vt 0.59375 0.6875
vt 1 0.6875
vt 1 0.625
vt 0.59375 0.625
vt 0 0.40625
vt 0.40625 0.40625
vt 0.40625 0
vt 0 0
vt 0 0.40625
vt 0.40625 0.40625
vt 0.40625 0
vt 0 0
vn 0 0 -1
vn 1 0 0
vn 0 0 1
vn -1 0 0
vn 0 1 0
vn 0 -1 0
usemtl m_f1804976-4e0e-bd00-f687-b7bcf3103468
f 44/80/20 47/79/20 45/78/20 42/77/20
f 43/84/21 44/83/21 42/82/21 41/81/21
f 48/88/22 43/87/22 41/86/22 46/85/22
f 47/92/23 48/91/23 46/90/23 45/89/23
f 46/96/24 41/95/24 42/94/24 45/93/24
f 47/100/25 44/99/25 43/98/25 48/97/25
o cube
v 0.09375 0.1875 0.09375
v 0.09375 0.1875 -0.0625
v 0.09375 0.125 0.09375
v 0.09375 0.125 -0.0625
v -0.0625 0.1875 -0.0625
v -0.0625 0.1875 0.09375
v -0.0625 0.125 -0.0625
v -0.0625 0.125 0.09375
vt 0.71875 0.75
vt 0.875 0.75
vt 0.875 0.6875
vt 0.71875 0.6875
vt 0.71875 0.75
vt 0.875 0.75
vt 0.875 0.6875
vt 0.71875 0.6875
vt 0.71875 0.75
vt 0.875 0.75
vt 0.875 0.6875
vt 0.71875 0.6875
vt 0.71875 0.75
vt 0.875 0.75
vt 0.875 0.6875
vt 0.71875 0.6875
vn 0 0 -1
vn 1 0 0
vn 0 0 1
vn -1 0 0
usemtl m_f1804976-4e0e-bd00-f687-b7bcf3103468
f 52/104/26 55/103/26 53/102/26 50/101/26
f 51/108/27 52/107/27 50/106/27 49/105/27
f 56/112/28 51/111/28 49/110/28 54/109/28
f 55/116/29 56/115/29 54/114/29 53/113/29
o cube
v 0.125 0.21875 0.125
v 0.125 0.21875 -0.09375
v 0.125 0.1875 0.125
v 0.125 0.1875 -0.09375
v -0.09375 0.21875 -0.09375
v -0.09375 0.21875 0.125
v -0.09375 0.1875 -0.09375
v -0.09375 0.1875 0.125
vt 0.6875 0.78125
vt 0.90625 0.78125
vt 0.90625 0.75
vt 0.6875 0.75
vt 0.6875 0.78125
vt 0.90625 0.78125
vt 0.90625 0.75
vt 0.6875 0.75
vt 0.6875 0.78125
vt 0.90625 0.78125
vt 0.90625 0.75
vt 0.6875 0.75
vt 0.6875 0.78125
vt 0.90625 0.78125
vt 0.90625 0.75
vt 0.6875 0.75
vt 0 0.40625
vt 0.40625 0.40625
vt 0.40625 0
vt 0 0
vt 0.09375 0.3125
vt 0.3125 0.3125
vt 0.3125 0.09375
vt 0.09375 0.09375
vn 0 0 -1
vn 1 0 0
vn 0 0 1
vn -1 0 0
vn 0 1 0
vn 0 -1 0
usemtl m_f1804976-4e0e-bd00-f687-b7bcf3103468
f 60/120/30 63/119/30 61/118/30 58/117/30
f 59/124/31 60/123/31 58/122/31 57/121/31
f 64/128/32 59/127/32 57/126/32 62/125/32
f 63/132/33 64/131/33 62/130/33 61/129/33
f 62/136/34 57/135/34 58/134/34 61/133/34
f 63/140/35 60/139/35 59/138/35 64/137/35
o cube
v 0.0625 0.25 0.03125
v 0.0625 0.25 0
v 0.0625 0.21875 0.03125
v 0.0625 0.21875 0
v -0.03125 0.25 0
v -0.03125 0.25 0.03125
v -0.03125 0.21875 0
v -0.03125 0.21875 0.03125
vt 0.78125 0.8125
vt 0.8125 0.8125
vt 0.8125 0.78125
vt 0.78125 0.78125
vt 0.78125 0.8125
vt 0.8125 0.8125
vt 0.8125 0.78125
vt 0.78125 0.78125
vt 0.78125 0.8125
vt 0.8125 0.8125
vt 0.8125 0.78125
vt 0.78125 0.78125
vt 0.78125 0.8125
vt 0.8125 0.8125
vt 0.8125 0.78125
vt 0.78125 0.78125
vt 0.78125 0.8125
vt 0.8125 0.8125
vt 0.8125 0.78125
vt 0.78125 0.78125
vt 0.46875 0.5
vt 0.5 0.5
vt 0.5 0.46875
vt 0.46875 0.46875
vn 0 0 -1
vn 1 0 0
vn 0 0 1
vn -1 0 0
vn 0 1 0
vn 0 -1 0
usemtl m_f1804976-4e0e-bd00-f687-b7bcf3103468
f 68/144/36 71/143/36 69/142/36 66/141/36
f 67/148/37 68/147/37 66/146/37 65/145/37
f 72/152/38 67/151/38 65/150/38 70/149/38
f 71/156/39 72/155/39 70/154/39 69/153/39
f 70/160/40 65/159/40 66/158/40 69/157/40
f 71/164/41 68/163/41 67/162/41 72/161/41