# Made in Blockbench 4.6.0
mtllib materials.mtl

o cube
v 0.2678785449489667 -0.4375 0.2678780591288974
v 0.37883712780893397 -0.4375 3.4352666544723576e-7
v 0.2678785449489667 -0.5 0.2678780591288974
v 0.37883712780893397 -0.5 3.4352666544723576e-7
v -0.2678785449489667 -0.4375 -0.2678780591288974
v -0.37883712780893397 -0.4375 -3.4352666544723576e-7
v -0.2678785449489667 -0.5 -0.2678780591288974
v -0.37883712780893397 -0.5 -3.4352666544723576e-7
vt 0.3125 0.9375
vt 0.674936875 0.9375
vt 0.674936875 0.875
vt 0.3125 0.875
vt 0.3125 0.9375
vt 0.674936875 0.9375
vt 0.674936875 0.875
vt 0.3125 0.875
vt 0.8125 0.9375
vt 0.8125 0.09375
vt 0.4375 0.09375
vt 0.4375 0.9375
vt 0.4375 0.09375
vt 0.4375 0.9375
vt 0.8125 0.9375
vt 0.8125 0.09375
vn 0.9238795325112867 0 0.3826834323650897
vn -0.9238795325112867 0 -0.3826834323650897
vn 0 1 0
vn 0 -1 0
usemtl m_b47618eb-6595-5863-ef7f-c13763ef1173
f 3/4/1 4/3/1 2/2/1 1/1/1
f 7/8/2 8/7/2 6/6/2 5/5/2
f 6/12/3 1/11/3 2/10/3 5/9/3
f 7/16/4 4/15/4 3/14/4 8/13/4
o cube
v 0.2678780591288974 -0.437 0.2678785449489667
v -3.4352666544723576e-7 -0.437 -0.37883712780893397
v 0.2678780591288974 -0.4995 0.2678785449489667
v -3.4352666544723576e-7 -0.4995 -0.37883712780893397
v -0.2678780591288974 -0.437 -0.2678785449489667
v 3.4352666544723576e-7 -0.437 0.37883712780893397
v -0.2678780591288974 -0.4995 -0.2678785449489667
v 3.4352666544723576e-7 -0.4995 0.37883712780893397
vt 0.625 0.9375
vt 0.987436875 0.9375
vt 0.987436875 0.875
vt 0.625 0.875
vt 0.625 0.9375
vt 0.987436875 0.9375
vt 0.987436875 0.875
vt 0.625 0.875
vt 0.4375 0.9375
vt 0.8125 0.9375
vt 0.8125 0.09375
vt 0.4375 0.09375
vt 0.4375 0.9375
vt 0.8125 0.9375
vt 0.8125 0.09375
vt 0.4375 0.09375
vn -0.3826834323650897 0 -0.9238795325112867
vn 0.3826834323650897 0 0.9238795325112867
vn 0 1 0
vn 0 -1 0
usemtl m_b47618eb-6595-5863-ef7f-c13763ef1173
f 12/20/5 15/19/5 13/18/5 10/17/5
f 16/24/6 11/23/6 9/22/6 14/21/6
f 14/28/7 9/27/7 10/26/7 13/25/7
f 15/32/8 12/31/8 11/30/8 16/29/8
o cube
v -3.4352666544723576e-7 -0.4375 0.37883712780893397
v 0.2678780591288974 -0.4375 -0.2678785449489667
v -3.4352666544723576e-7 -0.5 0.37883712780893397
v 0.2678780591288974 -0.5 -0.2678785449489667
v 3.4352666544723576e-7 -0.4375 -0.37883712780893397
v -0.2678780591288974 -0.4375 0.2678785449489667
v 3.4352666544723576e-7 -0.5 -0.37883712780893397
v -0.2678780591288974 -0.5 0.2678785449489667
vt 0.375 0.9375
vt 0.737436875 0.9375
vt 0.737436875 0.875
vt 0.375 0.875
vt 0.625 0.9375
vt 0.987436875 0.9375
vt 0.987436875 0.875
vt 0.625 0.875
vt 0.4375 0.9375
vt 0.8125 0.9375
vt 0.8125 0.09375
vt 0.4375 0.09375
vt 0.8125 0.09375
vt 0.4375 0.09375
vt 0.4375 0.9375
vt 0.8125 0.9375
vn 0.3826834323650897 0 -0.9238795325112867
vn -0.3826834323650897 0 0.9238795325112867
vn 0 1 0
vn 0 -1 0
usemtl m_b47618eb-6595-5863-ef7f-c13763ef1173
f 20/36/9 23/35/9 21/34/9 18/33/9
f 24/40/10 19/39/10 17/38/10 22/37/10
f 22/44/11 17/43/11 18/42/11 21/41/11
f 23/48/12 20/47/12 19/46/12 24/45/12
o cube
v 0.37883712780893397 -0.437 -3.4352666544723576e-7
v 0.2678785449489667 -0.437 -0.2678780591288974
v 0.37883712780893397 -0.4995 -3.4352666544723576e-7
v 0.2678785449489667 -0.4995 -0.2678780591288974
v -0.37883712780893397 -0.437 3.4352666544723576e-7
v -0.2678785449489667 -0.437 0.2678780591288974
v -0.37883712780893397 -0.4995 3.4352666544723576e-7
v -0.2678785449489667 -0.4995 0.2678780591288974
vt 0.625 0.9375
vt 0.987436875 0.9375
vt 0.987436875 0.875
vt 0.625 0.875
vt 0.625 0.9375
vt 0.987436875 0.9375
vt 0.987436875 0.875
vt 0.625 0.875
vt 0.4375 0.09375
vt 0.4375 0.9375
vt 0.8125 0.9375
vt 0.8125 0.09375
vt 0.4375 0.09375
vt 0.4375 0.9375
vt 0.8125 0.9375
vt 0.8125 0.09375
vn 0.9238795325112867 0 -0.3826834323650897
vn -0.9238795325112867 0 0.3826834323650897
vn 0 1 0
vn 0 -1 0
usemtl m_b47618eb-6595-5863-ef7f-c13763ef1173
f 27/52/13 28/51/13 26/50/13 25/49/13
f 31/56/14 32/55/14 30/54/14 29/53/14
f 30/60/15 25/59/15 26/58/15 29/57/15
f 31/64/16 28/63/16 27/62/16 32/61/16
o cube
v 0.2296101813848287 -0.16249999999999998 0.2296097649676263
v 0.3247175381219435 -0.16249999999999998 2.9445142757378306e-7
v 0.2296101813848287 -0.4375 0.2296097649676263
v 0.3247175381219435 -0.4375 2.9445142757378306e-7
v -0.22961018138482858 -0.16249999999999998 -0.2296097649676263
v -0.3247175381219435 -0.16249999999999998 -2.944514275182719e-7
v -0.22961018138482858 -0.4375 -0.2296097649676263
v -0.3247175381219435 -0.4375 -2.944514275182719e-7
vt 0.34375 0.34375
vt 0.65441 0.34375
vt 0.65441 0
vt 0.34375 0
vt 0.625 0.34375
vt 0.93566 0.34375
vt 0.93566 0
vt 0.625 0
vt 0.03125 1
vt 0.78125 1
vt 0.78125 0.6893400000000001
vt 0.03125 0.6893400000000001
vn 0.9238795325112867 0 0.3826834323650897
vn -0.9238795325112867 0 -0.3826834323650897
vn 0 1 0
usemtl m_f2eee68d-cd55-cd3e-182d-407d5794806f
f 35/68/17 36/67/17 34/66/17 33/65/17
f 39/72/18 40/71/18 38/70/18 37/69/18
f 38/76/19 33/75/19 34/74/19 37/73/19
o cube
v 0.2296097649676263 -0.16499999999999998 0.2296101813848287
v -2.944514275182719e-7 -0.16499999999999998 -0.3247175381219435
v 0.2296097649676263 -0.44 0.2296101813848287
v -2.944514275182719e-7 -0.44 -0.3247175381219435
v -0.2296097649676263 -0.16499999999999998 -0.22961018138482858
v 2.9445142757378306e-7 -0.16499999999999998 0.3247175381219435
v -0.2296097649676263 -0.44 -0.22961018138482858
v 2.9445142757378306e-7 -0.44 0.3247175381219435
vt 0.3125 0.34375
vt 0.62316 0.34375
vt 0.62316 0
vt 0.3125 0
vt 0 0.34375
vt 0.31066 0.34375
vt 0.31066 0
vt 0 0
vt 0.03125 0.6893400000000001
vt 0.03125 1
vt 0.78125 1
vt 0.78125 0.6893400000000001
vn -0.3826834323650897 0 -0.9238795325112867
vn 0.3826834323650897 0 0.9238795325112867
vn 0 1 0
usemtl m_f2eee68d-cd55-cd3e-182d-407d5794806f
f 44/80/20 47/79/20 45/78/20 42/77/20
f 48/84/21 43/83/21 41/82/21 46/81/21
f 46/88/22 41/87/22 42/86/22 45/85/22
o cube
v -2.944514275182719e-7 -0.16299999999999998 0.3247175381219435
v 0.2296097649676263 -0.16299999999999998 -0.22961018138482858
v -2.944514275182719e-7 -0.438 0.3247175381219435
v 0.2296097649676263 -0.438 -0.22961018138482858
v 2.9445142746276076e-7 -0.16299999999999998 -0.3247175381219435
v -0.22960976496762636 -0.16299999999999998 0.2296101813848287
v 2.9445142746276076e-7 -0.438 -0.3247175381219435
v -0.22960976496762636 -0.438 0.2296101813848287
vt 0 0.34375
vt 0.31066 0.34375
vt 0.31066 0
vt 0 0
vt 0.40625 0.34375
vt 0.71691 0.34375
vt 0.71691 0
vt 0.40625 0
vt 0.78125 1
vt 0.78125 0.6893400000000001
vt 0.03125 0.6893400000000001
vt 0.03125 1
vn 0.3826834323650897 0 -0.9238795325112867
vn -0.3826834323650897 0 0.9238795325112867
vn 0 1 0
usemtl m_f2eee68d-cd55-cd3e-182d-407d5794806f
f 52/92/23 55/91/23 53/90/23 50/89/23
f 56/96/24 51/95/24 49/94/24 54/93/24
f 54/100/25 49/99/25 50/98/25 53/97/25
o cube
v 0.3247175381219435 -0.16499999999999998 -2.944514275182719e-7
v 0.2296101813848287 -0.16499999999999998 -0.22960976496762636
v 0.3247175381219435 -0.44 -2.944514275182719e-7
v 0.2296101813848287 -0.44 -0.22960976496762636
v -0.3247175381219435 -0.16499999999999998 2.9445142746276076e-7
v -0.22961018138482858 -0.16499999999999998 0.2296097649676263
v -0.3247175381219435 -0.44 2.9445142746276076e-7
v -0.22961018138482858 -0.44 0.2296097649676263
vt 0.65625 0.34375
vt 0.96691 0.34375
vt 0.96691 0
vt 0.65625 0
vt 0.09375 0.34375
vt 0.40441 0.34375
vt 0.40441 0
vt 0.09375 0
vt 0.03125 1
vt 0.78125 1
vt 0.78125 0.6893400000000001
vt 0.03125 0.6893400000000001
vn 0.9238795325112867 0 -0.3826834323650897
vn -0.9238795325112867 0 0.3826834323650897
vn 0 1 0
usemtl m_f2eee68d-cd55-cd3e-182d-407d5794806f
f 59/104/26 60/103/26 58/102/26 57/101/26
f 63/108/27 64/107/27 62/106/27 61/105/27
f 62/112/28 57/111/28 58/110/28 61/109/28
o cube
v 0.17500000000000004 -0.03427251653403596 0.05932113475389267
v 0.17500000000000004 -0.024705430724908717 0.036224146441110494
v 0.17500000000000004 -0.17285444641072895 0.0019186198991292258
v 0.17500000000000004 -0.1632873606016017 -0.021178368413652948
v -0.175 -0.024705430724908717 0.036224146441110494
v -0.175 -0.03427251653403596 0.05932113475389267
v -0.175 -0.1632873606016017 -0.021178368413652948
v -0.175 -0.17285444641072895 0.0019186198991292258
vt 0 0.59375
vt 0.4375 0.59375
vt 0.4375 0.40625
vt 0 0.40625
vt 0.4375 0.59375
vt 0.46875 0.59375
vt 0.46875 0.40625
vt 0.4375 0.40625
vt 0 0.59375
vt 0.4375 0.59375
vt 0.4375 0.40625
vt 0 0.40625
vt 0.4375 0.59375
vt 0.46875 0.59375
vt 0.46875 0.40625
vt 0.4375 0.40625
vt 0 0.59375
vt 0.4375 0.59375
vt 0.4375 0.5625
vt 0 0.5625
vt 0 0.59375
vt 0.4375 0.59375
vt 0.4375 0.5625
vt 0 0.5625
vn 0 0.3826834323650897 -0.9238795325112867
vn 1 0 0
vn 0 -0.3826834323650897 0.9238795325112867
vn -1 0 0
vn 0 0.9238795325112867 0.3826834323650897
vn 0 -0.9238795325112867 -0.3826834323650897
usemtl m_f2eee68d-cd55-cd3e-182d-407d5794806f
f 68/116/29 71/115/29 69/114/29 66/113/29
f 67/120/30 68/119/30 66/118/30 65/117/30
f 72/124/31 67/123/31 65/122/31 70/121/31
f 71/128/32 72/127/32 70/126/32 69/125/32
f 70/132/33 65/131/33 66/130/33 69/129/33
f 71/136/34 68/135/34 67/134/34 72/133/34
o cube
v 0.10823922002923936 -0.0625 0.2613125929752752
v 0.2517455071661481 -0.0625 -0.08514223171645724
v 0.10823922002923936 -0.1875 0.2613125929752752
v 0.2517455071661481 -0.1875 -0.08514223171645724
v 0.2517455071661481 -0.0625 -0.08514223171645724
v 0.10823922002923936 -0.0625 0.2613125929752752
v 0.2517455071661481 -0.1875 -0.08514223171645724
v 0.10823922002923936 -0.1875 0.2613125929752752
vt 0.5 0.5625
vt 0.96875 0.5625
vt 0.96875 0.40625
vt 0.5 0.40625
vt 0.5 0.5625
vt 0.96875 0.5625
vt 0.96875 0.40625
vt 0.5 0.40625
vn 0.9238795325112867 0 0.3826834323650897
vn -0.9238795325112867 0 -0.3826834323650897
usemtl m_f2eee68d-cd55-cd3e-182d-407d5794806f
f 75/140/35 76/139/35 74/138/35 73/137/35
f 79/144/36 80/143/36 78/142/36 77/141/36
o cube
v -0.2613125929752753 -0.0625 0.10823922002923936
v -0.11780630583836665 -0.0625 -0.23821560466249314
v -0.2613125929752753 -0.1875 0.10823922002923936
v -0.11780630583836665 -0.1875 -0.23821560466249314
v -0.11780630583836665 -0.0625 -0.23821560466249314
v -0.2613125929752753 -0.0625 0.10823922002923936
v -0.11780630583836665 -0.1875 -0.23821560466249314
v -0.2613125929752753 -0.1875 0.10823922002923936
vt 0.5 0.5625
vt 0.96875 0.5625
vt 0.96875 0.40625
vt 0.5 0.40625
vt 0.5 0.5625
vt 0.96875 0.5625
vt 0.96875 0.40625
vt 0.5 0.40625
vn 0.9238795325112867 0 0.3826834323650897
vn -0.9238795325112867 0 -0.3826834323650897
usemtl m_f2eee68d-cd55-cd3e-182d-407d5794806f
f 83/148/37 84/147/37 82/146/37 81/145/37
f 87/152/38 88/151/38 86/150/38 85/149/38
o cube
v 0.2449803488188842 -0.0625 -0.10147401293380304
v 0.2449803488188842 -0.0625 -0.10147401293380304
v 0.2449803488188842 -0.1875 -0.10147401293380304
v 0.2449803488188842 -0.1875 -0.10147401293380304
v -0.1014744758728483 -0.0625 -0.2449803000707117
v -0.1014744758728483 -0.0625 -0.2449803000707117
v -0.1014744758728483 -0.1875 -0.2449803000707117
v -0.1014744758728483 -0.1875 -0.2449803000707117
vt 0.5 0.5625
vt 0.96875 0.5625
vt 0.96875 0.40625
vt 0.5 0.40625
vt 0.5 0.5625
vt 0.96875 0.5625
vt 0.96875 0.40625
vt 0.5 0.40625
vn 0.3826834323650897 0 -0.9238795325112867
vn -0.3826834323650897 0 0.9238795325112867
usemtl m_f2eee68d-cd55-cd3e-182d-407d5794806f
f 92/156/39 95/155/39 93/154/39 90/153/39
f 96/160/40 91/159/40 89/158/40 94/157/40
o cube
v 0.09190697587284835 -0.0625 0.2680778000707116
v 0.09190697587284835 -0.0625 0.2680778000707116
v 0.09190697587284835 -0.1875 0.2680778000707116
v 0.09190697587284835 -0.1875 0.2680778000707116
v -0.25454784881888415 -0.0625 0.12457151293380297
v -0.25454784881888415 -0.0625 0.12457151293380297
v -0.25454784881888415 -0.1875 0.12457151293380297
v -0.25454784881888415 -0.1875 0.12457151293380297
vt 0.5 0.5625
vt 0.96875 0.5625
vt 0.96875 0.40625
vt 0.5 0.40625
vt 0.5 0.5625
vt 0.96875 0.5625
vt 0.96875 0.40625
vt 0.5 0.40625
vn 0.3826834323650897 0 -0.9238795325112867
vn -0.3826834323650897 0 0.9238795325112867
usemtl m_f2eee68d-cd55-cd3e-182d-407d5794806f
f 100/164/41 103/163/41 101/162/41 98/161/41
f 104/168/42 99/167/42 97/166/42 102/165/42
o cube
v 0.2449803488188842 -0.0625 0.12457151293380297
v 0.2449803488188842 -0.0625 0.12457151293380297
v 0.2449803488188842 -0.1875 0.12457151293380297
v 0.2449803488188842 -0.1875 0.12457151293380297
v -0.1014744758728483 -0.0625 0.2680778000707116
v -0.1014744758728483 -0.0625 0.2680778000707116
v -0.1014744758728483 -0.1875 0.2680778000707116
v -0.1014744758728483 -0.1875 0.2680778000707116
vt 0.5 0.5625
vt 0.96875 0.5625
vt 0.96875 0.40625
vt 0.5 0.40625
vt 0.5 0.5625
vt 0.96875 0.5625
vt 0.96875 0.40625
vt 0.5 0.40625
vn -0.3826834323650897 0 -0.9238795325112867
vn 0.3826834323650897 0 0.9238795325112867
usemtl m_f2eee68d-cd55-cd3e-182d-407d5794806f
f 108/172/43 111/171/43 109/170/43 106/169/43
f 112/176/44 107/175/44 105/174/44 110/173/44
o cube
v 0.09190697587284835 -0.0625 -0.2449803000707117
v 0.09190697587284835 -0.0625 -0.2449803000707117
v 0.09190697587284835 -0.1875 -0.2449803000707117
v 0.09190697587284835 -0.1875 -0.2449803000707117
v -0.25454784881888415 -0.0625 -0.10147401293380304
v -0.25454784881888415 -0.0625 -0.10147401293380304
v -0.25454784881888415 -0.1875 -0.10147401293380304
v -0.25454784881888415 -0.1875 -0.10147401293380304
vt 0.5 0.5625
vt 0.96875 0.5625
vt 0.96875 0.40625
vt 0.5 0.40625
vt 0.5 0.5625
vt 0.96875 0.5625
vt 0.96875 0.40625
vt 0.5 0.40625
vn -0.3826834323650897 0 -0.9238795325112867
vn 0.3826834323650897 0 0.9238795325112867
usemtl m_f2eee68d-cd55-cd3e-182d-407d5794806f
f 116/180/45 119/179/45 117/178/45 114/177/45
f 120/184/46 115/183/46 113/182/46 118/181/46
o cube
v -0.10823922002923947 -0.0625 0.2613125929752753
v -0.2517455071661481 -0.0625 -0.08514223171645718
v -0.10823922002923947 -0.1875 0.2613125929752753
v -0.2517455071661481 -0.1875 -0.08514223171645718
v -0.2517455071661481 -0.0625 -0.08514223171645718
v -0.10823922002923947 -0.0625 0.2613125929752753
v -0.2517455071661481 -0.1875 -0.08514223171645718
v -0.10823922002923947 -0.1875 0.2613125929752753
vt 0.5 0.5625
vt 0.96875 0.5625
vt 0.96875 0.40625
vt 0.5 0.40625
vt 0.5 0.5625
vt 0.96875 0.5625
vt 0.96875 0.40625
vt 0.5 0.40625
vn 0.9238795325112867 0 -0.3826834323650897
vn -0.9238795325112867 0 0.3826834323650897
usemtl m_f2eee68d-cd55-cd3e-182d-407d5794806f
f 123/188/47 124/187/47 122/186/47 121/185/47
f 127/192/48 128/191/48 126/190/48 125/189/48
o cube
v 0.2613125929752752 -0.0625 0.10823922002923936
v 0.1178063058383666 -0.0625 -0.23821560466249309
v 0.2613125929752752 -0.1875 0.10823922002923936
v 0.1178063058383666 -0.1875 -0.23821560466249309
v 0.1178063058383666 -0.0625 -0.23821560466249309
v 0.2613125929752752 -0.0625 0.10823922002923936
v 0.1178063058383666 -0.1875 -0.23821560466249309
v 0.2613125929752752 -0.1875 0.10823922002923936
vt 0.5 0.5625
vt 0.96875 0.5625
vt 0.96875 0.40625
vt 0.5 0.40625
vt 0.5 0.5625
vt 0.96875 0.5625
vt 0.96875 0.40625
vt 0.5 0.40625
vn 0.9238795325112867 0 -0.3826834323650897
vn -0.9238795325112867 0 0.3826834323650897
usemtl m_f2eee68d-cd55-cd3e-182d-407d5794806f
f 131/196/49 132/195/49 130/194/49 129/193/49
f 135/200/50 136/199/50 134/198/50 133/197/50