# Made in Blockbench 4.6.0
mtllib materials.mtl

o cube
v 0.28701249492188685 0.25 0.2870126071424631
v -7.935193052643896e-8 0.25 -0.40589704224100187
v 0.28701249492188685 -0.34375 0.2870126071424631
v -7.935193052643896e-8 -0.34375 -0.40589704224100187
v -0.28701249492188685 0.25 -0.2870126071424631
v 7.935193047092781e-8 0.25 0.40589704224100187
v -0.28701249492188685 -0.34375 -0.2870126071424631
v 7.935193047092781e-8 -0.34375 0.40589704224100187
vt 0.48484875 0.757575625
vt 0.79550875 0.757575625
vt 0.79550875 0.16382562499999997
vt 0.48484875 0.16382562499999997
vt 0.48484875 0.757575625
vt 0.79550875 0.757575625
vt 0.79550875 0.16382562499999997
vt 0.48484875 0.16382562499999997
vt 0.257575625 0.8181818750000001
vt 0.568235625 0.8181818750000001
vt 0.568235625 0.06818187499999995
vt 0.257575625 0.06818187499999995
vt 0.257575625 0.8181818750000001
vt 0.568235625 0.8181818750000001
vt 0.568235625 0.06818187499999995
vt 0.257575625 0.06818187499999995
vn -0.3826834323650897 0 -0.9238795325112867
vn 0.3826834323650897 0 0.9238795325112867
vn 0 1 0
vn 0 -1 0
usemtl m_8e17eeaa-0102-7f0d-fbba-966c982e6ce0
f 4/4/1 7/3/1 5/2/1 2/1/1
f 8/8/2 3/7/2 1/6/2 6/5/2
usemtl m_ac42a415-a0dc-8057-c9c3-12496ad6067f
f 6/12/3 1/11/3 2/10/3 5/9/3
f 7/16/4 4/15/4 3/14/4 8/13/4
o cube
v -7.935193052643896e-8 0.250625 0.40589704224100187
v 0.28701249492188685 0.250625 -0.2870126071424631
v -7.935193052643896e-8 -0.343125 0.40589704224100187
v 0.28701249492188685 -0.343125 -0.2870126071424631
v 7.935193047092781e-8 0.250625 -0.40589704224100187
v -0.28701249492188685 0.250625 0.2870126071424631
v 7.935193047092781e-8 -0.343125 -0.40589704224100187
v -0.28701249492188685 -0.343125 0.2870126071424631
vt 0.166666875 0.757575625
vt 0.477326875 0.757575625
vt 0.477326875 0.16382562499999997
vt 0.166666875 0.16382562499999997
vt 0.166666875 0.757575625
vt 0.477326875 0.757575625
vt 0.477326875 0.16382562499999997
vt 0.166666875 0.16382562499999997
vt 0.295454375 0.80303
vt 0.606115 0.80303
vt 0.606115 0.05303000000000002
vt 0.295454375 0.05303000000000002
vt 0.295454375 0.80303
vt 0.606115 0.80303
vt 0.606115 0.05303000000000002
vt 0.295454375 0.05303000000000002
vn 0.3826834323650897 0 -0.9238795325112867
vn -0.3826834323650897 0 0.9238795325112867
vn 0 1 0
vn 0 -1 0
usemtl m_8e17eeaa-0102-7f0d-fbba-966c982e6ce0
f 12/20/5 15/19/5 13/18/5 10/17/5
f 16/24/6 11/23/6 9/22/6 14/21/6
usemtl m_ac42a415-a0dc-8057-c9c3-12496ad6067f
f 14/28/7 9/27/7 10/26/7 13/25/7
f 15/32/8 12/31/8 11/30/8 16/29/8
o cube
v 0.40589704224100187 0.25 -7.935193052643896e-8
v 0.2870126071424631 0.25 -0.28701249492188685
v 0.40589704224100187 -0.34375 -7.935193052643896e-8
v 0.2870126071424631 -0.34375 -0.28701249492188685
v -0.40589704224100187 0.25 7.935193047092781e-8
v -0.2870126071424631 0.25 0.28701249492188685
v -0.40589704224100187 -0.34375 7.935193047092781e-8
v -0.2870126071424631 -0.34375 0.28701249492188685
vt 0.48484875 0.757575625
vt 0.79550875 0.757575625
vt 0.79550875 0.16382562499999997
vt 0.48484875 0.16382562499999997
vt 0.48484875 0.757575625
vt 0.79550875 0.757575625
vt 0.79550875 0.16382562499999997
vt 0.48484875 0.16382562499999997
vt 0.3257575 0.05303000000000002
vt 0.3257575 0.80303
vt 0.6364175 0.80303
vt 0.6364175 0.05303000000000002
vt 0.3257575 0.05303000000000002
vt 0.3257575 0.80303
vt 0.6364175 0.80303
vt 0.6364175 0.05303000000000002
vn 0.9238795325112867 0 -0.3826834323650897
vn -0.9238795325112867 0 0.3826834323650897
vn 0 1 0
vn 0 -1 0
usemtl m_8e17eeaa-0102-7f0d-fbba-966c982e6ce0
f 19/36/9 20/35/9 18/34/9 17/33/9
f 23/40/10 24/39/10 22/38/10 21/37/10
usemtl m_ac42a415-a0dc-8057-c9c3-12496ad6067f
f 22/44/11 17/43/11 18/42/11 21/41/11
f 23/48/12 20/47/12 19/46/12 24/45/12
o cube
v 0.2870126071424631 0.250625 0.28701249492188685
v 0.40589704224100187 0.250625 7.935193047092781e-8
v 0.2870126071424631 -0.343125 0.28701249492188685
v 0.40589704224100187 -0.343125 7.935193047092781e-8
v -0.2870126071424631 0.250625 -0.28701249492188685
v -0.40589704224100187 0.250625 -7.935193052643896e-8
v -0.2870126071424631 -0.343125 -0.28701249492188685
v -0.40589704224100187 -0.343125 -7.935193052643896e-8
vt 0.166666875 0.757575625
vt 0.477326875 0.757575625
vt 0.477326875 0.16382562499999997
vt 0.166666875 0.16382562499999997
vt 0.166666875 0.757575625
vt 0.477326875 0.757575625
vt 0.477326875 0.16382562499999997
vt 0.166666875 0.16382562499999997
vt 0.318181875 0.04545437500000005
vt 0.318181875 0.795454375
vt 0.628841875 0.795454375
vt 0.628841875 0.04545437500000005
vt 0.318181875 0.04545437500000005
vt 0.318181875 0.795454375
vt 0.628841875 0.795454375
vt 0.628841875 0.04545437500000005
vn 0.9238795325112867 0 0.3826834323650897
vn -0.9238795325112867 0 -0.3826834323650897
vn 0 1 0
vn 0 -1 0
usemtl m_8e17eeaa-0102-7f0d-fbba-966c982e6ce0
f 27/52/13 28/51/13 26/50/13 25/49/13
f 31/56/14 32/55/14 30/54/14 29/53/14
usemtl m_ac42a415-a0dc-8057-c9c3-12496ad6067f
f 30/60/15 25/59/15 26/58/15 29/57/15
f 31/64/16 28/63/16 27/62/16 32/61/16
o cube
v 0.1875 -0.40625 0.1875
v 0.1875 -0.40625 -0.1875
v 0.1875 -0.5 0.1875
v 0.1875 -0.5 -0.1875
v -0.1875 -0.40625 -0.1875
v -0.1875 -0.40625 0.1875
v -0.1875 -0.5 -0.1875
v -0.1875 -0.5 0.1875
vt 0.469696875 0.969696875
vt 0.844696875 0.969696875
vt 0.844696875 0.875946875
vt 0.469696875 0.875946875
vt 0.844696875 0.875946875
vt 0.469696875 0.875946875
vt 0.469696875 0.969696875
vt 0.844696875 0.969696875
vt 0.469696875 0.969696875
vt 0.844696875 0.969696875
vt 0.844696875 0.875946875
vt 0.469696875 0.875946875
vt 0.844696875 0.875946875
vt 0.469696875 0.875946875
vt 0.469696875 0.969696875
vt 0.844696875 0.969696875
vt 0.3125 0.6875
vt 0.6875 0.6875
vt 0.6875 0.3125
vt 0.3125 0.3125
vn 0 0 -1
vn 1 0 0
vn 0 0 1
vn -1 0 0
vn 0 -1 0
usemtl m_ac42a415-a0dc-8057-c9c3-12496ad6067f
f 36/68/17 39/67/17 37/66/17 34/65/17
f 35/72/18 36/71/18 34/70/18 33/69/18
f 40/76/19 35/75/19 33/74/19 38/73/19
f 39/80/20 40/79/20 38/78/20 37/77/20
usemtl m_e4402852-da57-d819-91ac-f0d71ce2211f
f 39/84/21 36/83/21 35/82/21 40/81/21
o cube
v 0.1875 0.40625 0.1875
v 0.1875 0.40625 -0.1875
v 0.1875 0.3125 0.1875
v 0.1875 0.3125 -0.1875
v -0.1875 0.40625 -0.1875
v -0.1875 0.40625 0.1875
v -0.1875 0.3125 -0.1875
v -0.1875 0.3125 0.1875
vt 0.30303 0.969696875
vt 0.67803 0.969696875
vt 0.67803 0.875946875
vt 0.30303 0.875946875
vt 0.67803 0.875946875
vt 0.30303 0.875946875
vt 0.30303 0.969696875
vt 0.67803 0.969696875
vt 0.30303 0.969696875
vt 0.67803 0.969696875
vt 0.67803 0.875946875
vt 0.30303 0.875946875
vt 0.67803 0.875946875
vt 0.30303 0.875946875
vt 0.30303 0.969696875
vt 0.67803 0.969696875
vt 0.3125 0.6875
vt 0.6875 0.6875
vt 0.6875 0.3125
vt 0.3125 0.3125
vn 0 0 -1
vn 1 0 0
vn 0 0 1
vn -1 0 0
vn 0 1 0
usemtl m_ac42a415-a0dc-8057-c9c3-12496ad6067f
f 44/88/22 47/87/22 45/86/22 42/85/22
f 43/92/23 44/91/23 42/90/23 41/89/23
f 48/96/24 43/95/24 41/94/24 46/93/24
f 47/100/25 48/99/25 46/98/25 45/97/25
usemtl m_e4402852-da57-d819-91ac-f0d71ce2211f
f 46/104/26 41/103/26 42/102/26 45/101/26
o cube
v 0.23917727157647506 0.3125 0.23917709289300415
v 1.263482939384275e-7 0.3125 -0.33824761492655003
v 0.23917727157647506 -0.40625 0.23917709289300415
v 1.263482939384275e-7 -0.40625 -0.33824761492655003
v -0.23917727157647495 0.3125 -0.23917709289300426
v -1.2634829388291635e-7 0.3125 0.3382476149265501
v -0.23917727157647495 -0.40625 -0.23917709289300426
v -1.2634829388291635e-7 -0.40625 0.3382476149265501
vt 0.348485 0.8181818750000001
vt 0.607368125 0.8181818750000001
vt 0.607368125 0.09943187499999995
vt 0.348485 0.09943187499999995
vt 0.348485 0.8181818750000001
vt 0.607368125 0.8181818750000001
vt 0.607368125 0.09943187499999995
vt 0.348485 0.09943187499999995
vt 0.348485 0.7727275
vt 0.607368125 0.7727275
vt 0.607368125 0.1477275
vt 0.348485 0.1477275
vt 0.348485 0.7727275
vt 0.607368125 0.7727275
vt 0.607368125 0.1477275
vt 0.348485 0.1477275
vn -0.3826834323650897 0 -0.9238795325112867
vn 0.3826834323650897 0 0.9238795325112867
vn 0 1 0
vn 0 -1 0
usemtl m_8e17eeaa-0102-7f0d-fbba-966c982e6ce0
f 52/108/27 55/107/27 53/106/27 50/105/27
f 56/112/28 51/111/28 49/110/28 54/109/28
usemtl m_ac42a415-a0dc-8057-c9c3-12496ad6067f
f 54/116/29 49/115/29 50/114/29 53/113/29
f 55/120/30 52/119/30 51/118/30 56/117/30
o cube
v 1.263482939384275e-7 0.313125 0.3382476149265501
v 0.23917727157647506 0.313125 -0.2391770928930042
v 1.263482939384275e-7 -0.405625 0.3382476149265501
v 0.23917727157647506 -0.405625 -0.2391770928930042
v -1.2634829388291635e-7 0.313125 -0.33824761492655003
v -0.23917727157647495 0.313125 0.23917709289300426
v -1.2634829388291635e-7 -0.405625 -0.33824761492655003
v -0.23917727157647495 -0.405625 0.23917709289300426
vt 0.348485 0.8181818750000001
vt 0.607368125 0.8181818750000001
vt 0.607368125 0.09943187499999995
vt 0.348485 0.09943187499999995
vt 0.348485 0.8181818750000001
vt 0.607368125 0.8181818750000001
vt 0.607368125 0.09943187499999995
vt 0.348485 0.09943187499999995
vt 0.348485 0.7727275
vt 0.607368125 0.7727275
vt 0.607368125 0.1477275
vt 0.348485 0.1477275
vt 0.348485 0.7727275
vt 0.607368125 0.7727275
vt 0.607368125 0.1477275
vt 0.348485 0.1477275
vn 0.3826834323650897 0 -0.9238795325112867
vn -0.3826834323650897 0 0.9238795325112867
vn 0 1 0
vn 0 -1 0
usemtl m_8e17eeaa-0102-7f0d-fbba-966c982e6ce0
f 60/124/31 63/123/31 61/122/31 58/121/31
f 64/128/32 59/127/32 57/126/32 62/125/32
usemtl m_ac42a415-a0dc-8057-c9c3-12496ad6067f
f 62/132/33 57/131/33 58/130/33 61/129/33
f 63/136/34 60/135/34 59/134/34 64/133/34
o cube
v 0.3382476149265501 0.3125 1.263482939384275e-7
v 0.23917709289300426 0.3125 -0.23917727157647495
v 0.3382476149265501 -0.40625 1.263482939384275e-7
v 0.23917709289300426 -0.40625 -0.23917727157647495
v -0.33824761492655003 0.3125 -1.2634829388291635e-7
v -0.2391770928930042 0.3125 0.23917727157647506
v -0.33824761492655003 -0.40625 -1.2634829388291635e-7
v -0.2391770928930042 -0.40625 0.23917727157647506
vt 0.348485 0.8181818750000001
vt 0.607368125 0.8181818750000001
vt 0.607368125 0.09943187499999995
vt 0.348485 0.09943187499999995
vt 0.348485 0.8181818750000001
vt 0.607368125 0.8181818750000001
vt 0.607368125 0.09943187499999995
vt 0.348485 0.09943187499999995
vt 0.348485 0.1477275
vt 0.348485 0.7727275
vt 0.607368125 0.7727275
vt 0.607368125 0.1477275
vt 0.348485 0.1477275
vt 0.348485 0.7727275
vt 0.607368125 0.7727275
vt 0.607368125 0.1477275
vn 0.9238795325112867 0 -0.3826834323650897
vn -0.9238795325112867 0 0.3826834323650897
vn 0 1 0
vn 0 -1 0
usemtl m_8e17eeaa-0102-7f0d-fbba-966c982e6ce0
f 67/140/35 68/139/35 66/138/35 65/137/35
f 71/144/36 72/143/36 70/142/36 69/141/36
usemtl m_ac42a415-a0dc-8057-c9c3-12496ad6067f
f 70/148/37 65/147/37 66/146/37 69/145/37
f 71/152/38 68/151/38 67/150/38 72/149/38
o cube
v 0.23917709289300415 0.313125 0.23917727157647506
v 0.3382476149265501 0.313125 -1.2634829388291635e-7
v 0.23917709289300415 -0.405625 0.23917727157647506
v 0.3382476149265501 -0.405625 -1.2634829388291635e-7
v -0.23917709289300426 0.313125 -0.23917727157647495
v -0.33824761492655003 0.313125 1.263482939384275e-7
v -0.23917709289300426 -0.405625 -0.23917727157647495
v -0.33824761492655003 -0.405625 1.263482939384275e-7
vt 0.348485 0.8181818750000001
vt 0.607368125 0.8181818750000001
vt 0.607368125 0.09943187499999995
vt 0.348485 0.09943187499999995
vt 0.348485 0.8181818750000001
vt 0.607368125 0.8181818750000001
vt 0.607368125 0.09943187499999995
vt 0.348485 0.09943187499999995
vt 0.348485 0.1477275
vt 0.348485 0.7727275
vt 0.607368125 0.7727275
vt 0.607368125 0.1477275
vt 0.348485 0.1477275
vt 0.348485 0.7727275
vt 0.607368125 0.7727275
vt 0.607368125 0.1477275
vn 0.9238795325112867 0 0.3826834323650897
vn -0.9238795325112867 0 -0.3826834323650897
vn 0 1 0
vn 0 -1 0
usemtl m_8e17eeaa-0102-7f0d-fbba-966c982e6ce0
f 75/156/39 76/155/39 74/154/39 73/153/39
f 79/160/40 80/159/40 78/158/40 77/157/40
usemtl m_ac42a415-a0dc-8057-c9c3-12496ad6067f
f 78/164/41 73/163/41 74/162/41 77/161/41
f 79/168/42 76/167/42 75/166/42 80/165/42
o cube
v 0.1875 0.625 0
v 0.1875 0.625 0
v 0.1875 0.40625 0
v 0.1875 0.40625 0
v -0.1875 0.625 0
v -0.1875 0.625 0
v -0.1875 0.40625 0
v -0.1875 0.40625 0
vt 0.375 0.375
vt 0.75 0.375
vt 0.75 0.15625
vt 0.375 0.15625
vt 0.375 0.375
vt 0.75 0.375
vt 0.75 0.15625
vt 0.375 0.15625
vn 0 0 -1
vn 0 0 1
usemtl m_811dd572-4de6-4ae7-f67a-aa678d0d4e29
f 84/172/43 87/171/43 85/170/43 82/169/43
f 88/176/44 83/175/44 81/174/44 86/173/44