# Made in Blockbench 4.6.0
mtllib materials.mtl

o cube
v 0.40625 0.1875 0.34375
v 0.40625 0.1875 -0.09375
v 0.40625 0.0625 0.34375
v 0.40625 0.0625 -0.09375
v -0.40625 0.1875 -0.09375
v -0.40625 0.1875 0.34375
v -0.40625 0.0625 -0.09375
v -0.40625 0.0625 0.34375
vt 0.875 0.15625
vt 0.03125 0.15625
vt 0.03125 0.25
vt 0.875 0.25
vt 0 0.15625
vt 0 0.59375
vt 0.125 0.59375
vt 0.125 0.15625
vt 0.875 0.15625
vt 0.03125 0.15625
vt 0.03125 0.25
vt 0.875 0.25
vt 0 0.15625
vt 0 0.59375
vt 0.125 0.59375
vt 0.125 0.15625
vt 0.03125 0.59375
vt 0.84375 0.59375
vt 0.84375 0.15625
vt 0.03125 0.15625
vt 0.03125 0.59375
vt 0.84375 0.59375
vt 0.84375 0.15625
vt 0.03125 0.15625
vn 0 0 -1
vn 1 0 0
vn 0 0 1
vn -1 0 0
vn 0 1 0
vn 0 -1 0
usemtl m_49a55fe3-1bb2-5000-6a10-47e74bbe69a9
f 4/4/1 7/3/1 5/2/1 2/1/1
f 3/8/2 4/7/2 2/6/2 1/5/2
f 8/12/3 3/11/3 1/10/3 6/9/3
f 7/16/4 8/15/4 6/14/4 5/13/4
f 6/20/5 1/19/5 2/18/5 5/17/5
f 7/24/6 4/23/6 3/22/6 8/21/6
o cube
v 0.40625 0 0.34375
v 0.40625 0 0.25
v 0.40625 -0.5 0.34375
v 0.40625 -0.5 0.25
v 0.3125 0 0.25
v 0.3125 0 0.34375
v 0.3125 -0.5 0.25
v 0.3125 -0.5 0.34375
vt 0.5 0.09375
vt 0.5 0
vt 0 0
vt 0 0.09375
vt 0.5 0
vt 0.5 0.09375
vt 0 0.09375
vt 0 0
vt 0.5 0.09375
vt 0.5 0
vt 0 0
vt 0 0.09375
vt 0.5 0
vt 0.5 0.09375
vt 0 0.09375
vt 0 0
vt 0.09375 0.09375
vt 0.1875 0.09375
vt 0.1875 0
vt 0.09375 0
vn 0 0 -1
vn 1 0 0
vn 0 0 1
vn -1 0 0
vn 0 1 0
usemtl m_634f637e-5077-a141-1afa-3f30a625a904
f 12/28/7 15/27/7 13/26/7 10/25/7
f 11/32/8 12/31/8 10/30/8 9/29/8
f 16/36/9 11/35/9 9/34/9 14/33/9
f 15/40/10 16/39/10 14/38/10 13/37/10
f 14/44/11 9/43/11 10/42/11 13/41/11
o cube
v -0.3125 0 0.34375
v -0.3125 0 0.25
v -0.3125 -0.5 0.34375
v -0.3125 -0.5 0.25
v -0.40625 0 0.25
v -0.40625 0 0.34375
v -0.40625 -0.5 0.25
v -0.40625 -0.5 0.34375
vt 0.5 0.09375
vt 0.5 0
vt 0 0
vt 0 0.09375
vt 0.5 0
vt 0.5 0.09375
vt 0 0.09375
vt 0 0
vt 0.5 0.09375
vt 0.5 0
vt 0 0
vt 0 0.09375
vt 0.5 0
vt 0.5 0.09375
vt 0 0.09375
vt 0 0
vt 0.09375 0.09375
vt 0.1875 0.09375
vt 0.1875 0
vt 0.09375 0
vn 0 0 -1
vn 1 0 0
vn 0 0 1
vn -1 0 0
vn 0 1 0
usemtl m_634f637e-5077-a141-1afa-3f30a625a904
f 20/48/12 23/47/12 21/46/12 18/45/12
f 19/52/13 20/51/13 18/50/13 17/49/13
f 24/56/14 19/55/14 17/54/14 22/53/14
f 23/60/15 24/59/15 22/58/15 21/57/15
f 22/64/16 17/63/16 18/62/16 21/61/16
o cube
v 0.40625 0 0
v 0.40625 0 -0.09375
v 0.40625 -0.5 0
v 0.40625 -0.5 -0.09375
v 0.3125 0 -0.09375
v 0.3125 0 0
v 0.3125 -0.5 -0.09375
v 0.3125 -0.5 0
vt 0.5 0.09375
vt 0.5 0
vt 0 0
vt 0 0.09375
vt 0.5 0
vt 0.5 0.09375
vt 0 0.09375
vt 0 0
vt 0.5 0.09375
vt 0.5 0
vt 0 0
vt 0 0.09375
vt 0.5 0
vt 0.5 0.09375
vt 0 0.09375
vt 0 0
vt 0.09375 0.09375
vt 0.1875 0.09375
vt 0.1875 0
vt 0.09375 0
vn 0 0 -1
vn 1 0 0
vn 0 0 1
vn -1 0 0
vn 0 1 0
usemtl m_634f637e-5077-a141-1afa-3f30a625a904
f 28/68/17 31/67/17 29/66/17 26/65/17
f 27/72/18 28/71/18 26/70/18 25/69/18
f 32/76/19 27/75/19 25/74/19 30/73/19
f 31/80/20 32/79/20 30/78/20 29/77/20
f 30/84/21 25/83/21 26/82/21 29/81/21
o cube
v -0.3125 0 0
v -0.3125 0 -0.09375
v -0.3125 -0.5 0
v -0.3125 -0.5 -0.09375
v -0.40625 0 -0.09375
v -0.40625 0 0
v -0.40625 -0.5 -0.09375
v -0.40625 -0.5 0
vt 0.5 0.09375
vt 0.5 0
vt 0 0
vt 0 0.09375
vt 0.5 0
vt 0.5 0.09375
vt 0 0.09375
vt 0 0
vt 0.5 0.09375
vt 0.5 0
vt 0 0
vt 0 0.09375
vt 0.5 0
vt 0.5 0.09375
vt 0 0.09375
vt 0 0
vt 0.09375 0.09375
vt 0.1875 0.09375
vt 0.1875 0
vt 0.09375 0
vn 0 0 -1
vn 1 0 0
vn 0 0 1
vn -1 0 0
vn 0 1 0
usemtl m_634f637e-5077-a141-1afa-3f30a625a904
f 36/88/22 39/87/22 37/86/22 34/85/22
f 35/92/23 36/91/23 34/90/23 33/89/23
f 40/96/24 35/95/24 33/94/24 38/93/24
f 39/100/25 40/99/25 38/98/25 37/97/25
f 38/104/26 33/103/26 34/102/26 37/101/26
o cube
v 0.375 -0.00390625 0.3125
v 0.375 -0.00390625 -0.0625
v 0.375 -0.125 0.3125
v 0.375 -0.125 -0.0625
v -0.375 -0.00390625 -0.0625
v -0.375 -0.00390625 0.3125
v -0.375 -0.125 -0.0625
v -0.375 -0.125 0.3125
vt 0.25 0.09375
vt 1 0.09375
vt 1 0.003874999999999962
vt 0.25 0.003874999999999962
vt 0.625 0.09375
vt 1 0.09375
vt 1 0.003874999999999962
vt 0.625 0.003874999999999962
vt 0.25 0.09375
vt 1 0.09375
vt 1 0.003874999999999962
vt 0.25 0.003874999999999962
vt 0.625 0.09375
vt 1 0.09375
vt 1 0.003874999999999962
vt 0.625 0.003874999999999962
vt 0.03125 0.96875
vt 0.71875 0.96875
vt 0.71875 0.65625
vt 0.03125 0.65625
vt 0.03125 0.96875
vt 0.71875 0.96875
vt 0.71875 0.65625
vt 0.03125 0.65625
vn 0 0 -1
vn 1 0 0
vn 0 0 1
vn -1 0 0
vn 0 1 0
vn 0 -1 0
usemtl m_634f637e-5077-a141-1afa-3f30a625a904
f 44/108/27 47/107/27 45/106/27 42/105/27
f 43/112/28 44/111/28 42/110/28 41/109/28
f 48/116/29 43/115/29 41/114/29 46/113/29
f 47/120/30 48/119/30 46/118/30 45/117/30
f 46/124/31 41/123/31 42/122/31 45/121/31
f 47/128/32 44/127/32 43/126/32 48/125/32
o cube
v 0.13872936963188054 0.08649271728019903 0.28125
v 0.13872936963188054 0.08649271728019903 -0.03125
v 0.29340897801643784 -0.06818689110435822 0.28125
v 0.29340897801643784 -0.06818689110435822 -0.03125
v 0.11663228271980097 0.06439563036811946 -0.03125
v 0.11663228271980097 0.06439563036811946 0.28125
v 0.27131189110435827 -0.09028397801643784 -0.03125
v 0.27131189110435827 -0.09028397801643784 0.28125
vt 0.96875 1
vt 1 1
vt 1 0.78125
vt 0.96875 0.78125
vt 0.78125 0.6875
vt 0.78125 1
vt 1 1
vt 1 0.6875
vt 0.96875 1
vt 1 1
vt 1 0.78125
vt 0.96875 0.78125
vt 0.78125 0.6875
vt 0.78125 1
vt 1 1
vt 1 0.6875
vt 0.96875 1
vt 1 1
vt 1 0.6875
vt 0.96875 0.6875
vt 0.96875 1
vt 1 1
vt 1 0.6875
vt 0.96875 0.6875
vn 0 0 -1
vn 0.7071067811865475 0.7071067811865476 0
vn 0 0 1
vn -0.7071067811865475 -0.7071067811865476 0
vn -0.7071067811865476 0.7071067811865475 0
vn 0.7071067811865476 -0.7071067811865475 0
usemtl m_634f637e-5077-a141-1afa-3f30a625a904
f 52/132/33 55/131/33 53/130/33 50/129/33
f 51/136/34 52/135/34 50/134/34 49/133/34
f 56/140/35 51/139/35 49/138/35 54/137/35
f 55/144/36 56/143/36 54/142/36 53/141/36
f 54/148/37 49/147/37 50/146/37 53/145/37
f 55/152/38 52/151/38 51/150/38 56/149/38
o cube
v -0.11663228271980097 0.06439563036811946 0.28125
v -0.11663228271980097 0.06439563036811946 -0.03125
v -0.27131189110435827 -0.09028397801643784 0.28125
v -0.27131189110435827 -0.09028397801643784 -0.03125
v -0.1387293696318806 0.08649271728019903 -0.03125
v -0.1387293696318806 0.08649271728019903 0.28125
v -0.29340897801643784 -0.06818689110435822 -0.03125
v -0.29340897801643784 -0.06818689110435822 0.28125
vt 0.96875 1
vt 1 1
vt 1 0.78125
vt 0.96875 0.78125
vt 0.78125 0.6875
vt 0.78125 1
vt 1 1
vt 1 0.6875
vt 0.96875 1
vt 1 1
vt 1 0.78125
vt 0.96875 0.78125
vt 0.78125 0.6875
vt 0.78125 1
vt 1 1
vt 1 0.6875
vt 0.96875 1
vt 1 1
vt 1 0.6875
vt 0.96875 0.6875
vt 0.96875 1
vt 1 1
vt 1 0.6875
vt 0.96875 0.6875
vn 0 0 -1
vn 0.7071067811865475 -0.7071067811865476 0
vn 0 0 1
vn -0.7071067811865475 0.7071067811865476 0
vn 0.7071067811865476 0.7071067811865475 0
vn -0.7071067811865476 -0.7071067811865475 0
usemtl m_634f637e-5077-a141-1afa-3f30a625a904
f 60/156/39 63/155/39 61/154/39 58/153/39
f 59/160/40 60/159/40 58/158/40 57/157/40
f 64/164/41 59/163/41 57/162/41 62/161/41
f 63/168/42 64/167/42 62/166/42 61/165/42
f 62/172/43 57/171/43 58/170/43 61/169/43
f 63/176/44 60/175/44 59/174/44 64/173/44
o cube
v -0.40625 0.09375 0.2133883476483185
v -0.40625 0.1821383476483185 0.125
v -0.40625 0.005361652351681512 0.125
v -0.40625 0.09375 0.03661165235168151
v -0.46875 0.1821383476483185 0.125
v -0.46875 0.09375 0.2133883476483185
v -0.46875 0.09375 0.03661165235168151
v -0.46875 0.005361652351681512 0.125
vt 0.875 0.9375
vt 0.9375 0.9375
vt 0.9375 0.8125
vt 0.875 0.8125
vt 0.5625 0.875
vt 0.6875 0.875
vt 0.6875 0.75
vt 0.5625 0.75
vt 0.9375 0.84375
vt 0.875 0.84375
vt 0.875 0.96875
vt 0.9375 0.96875
vt 0.5625 0.875
vt 0.6875 0.875
vt 0.6875 0.75
vt 0.5625 0.75
vt 0.9375 0.84375
vt 0.875 0.84375
vt 0.875 0.96875
vt 0.9375 0.96875
vt 0.9375 0.84375
vt 0.875 0.84375
vt 0.875 0.96875
vt 0.9375 0.96875
vn 0 0.7071067811865476 -0.7071067811865475
vn 1 0 0
vn 0 -0.7071067811865476 0.7071067811865475
vn -1 0 0
vn 0 0.7071067811865475 0.7071067811865476
vn 0 -0.7071067811865475 -0.7071067811865476
usemtl m_edb0dc1f-ca5f-5e09-079e-a6438969fdbd
f 68/180/45 71/179/45 69/178/45 66/177/45
f 67/184/46 68/183/46 66/182/46 65/181/46
f 72/188/47 67/187/47 65/186/47 70/185/47
f 71/192/48 72/191/48 70/190/48 69/189/48
f 70/196/49 65/195/49 66/194/49 69/193/49
f 71/200/50 68/199/50 67/198/50 72/197/50