# Made in Blockbench 4.6.0
mtllib materials.mtl

o cube
v 0.3125 0.0625 0.3125
v 0.3125 0.0625 -0.3125
v 0.3125 -0.0625 0.3125
v 0.3125 -0.0625 -0.3125
v -0.3125 0.0625 -0.3125
v -0.3125 0.0625 0.3125
v -0.3125 -0.0625 -0.3125
v -0.3125 -0.0625 0.3125
vt 0.375 0.03125
vt 0.375 0.59375
vt 0.5 0.59375
vt 0.5 0.03125
vt 0.4375 0.625
vt 1 0.625
vt 1 0.5
vt 0.4375 0.5
vt 0.375 0.03125
vt 0.375 0.59375
vt 0.5 0.59375
vt 0.5 0.03125
vt 0.40625 0.625
vt 0.96875 0.625
vt 0.96875 0.5
vt 0.40625 0.5
vt 1 0.625
vt 1 0
vt 0.375 0
vt 0.375 0.625
vt 0.375 0
vt 0.375 0.625
vt 1 0.625
vt 1 0
vn 0 0 -1
vn 1 0 0
vn 0 0 1
vn -1 0 0
vn 0 1 0
vn 0 -1 0
usemtl m_d622643a-5f89-2a27-5982-4e9acc6e4f16
f 4/4/1 7/3/1 5/2/1 2/1/1
f 3/8/2 4/7/2 2/6/2 1/5/2
f 8/12/3 3/11/3 1/10/3 6/9/3
f 7/16/4 8/15/4 6/14/4 5/13/4
f 6/20/5 1/19/5 2/18/5 5/17/5
f 7/24/6 4/23/6 3/22/6 8/21/6
o cube
v 0.28125 -0.0625 0.28125
v 0.28125 -0.0625 0.15625
v 0.28125 -0.5 0.28125
v 0.28125 -0.5 0.15625
v 0.15625 -0.0625 0.15625
v 0.15625 -0.0625 0.28125
v 0.15625 -0.5 0.15625
v 0.15625 -0.5 0.28125
vt 0 0.4375
vt 0.125 0.4375
vt 0.125 0
vt 0 0
vt 0.125 0.4375
vt 0 0.4375
vt 0 0
vt 0.125 0
vt 0 0.4375
vt 0.125 0.4375
vt 0.125 0
vt 0 0
vt 0.125 0.4375
vt 0 0.4375
vt 0 0
vt 0.125 0
vt 0 0.875
vt 0 1
vt 0.125 1
vt 0.125 0.875
vn 0 0 -1
vn 1 0 0
vn 0 0 1
vn -1 0 0
vn 0 -1 0
usemtl m_d622643a-5f89-2a27-5982-4e9acc6e4f16
f 12/28/7 15/27/7 13/26/7 10/25/7
f 11/32/8 12/31/8 10/30/8 9/29/8
f 16/36/9 11/35/9 9/34/9 14/33/9
f 15/40/10 16/39/10 14/38/10 13/37/10
f 15/44/11 12/43/11 11/42/11 16/41/11
o cube
v 0.28125 -0.0625 -0.15625
v 0.28125 -0.0625 -0.28125
v 0.28125 -0.5 -0.15625
v 0.28125 -0.5 -0.28125
v 0.15625 -0.0625 -0.28125
v 0.15625 -0.0625 -0.15625
v 0.15625 -0.5 -0.28125
v 0.15625 -0.5 -0.15625
vt 0.125 0.4375
vt 0 0.4375
vt 0 0
vt 0.125 0
vt 0 0.4375
vt 0.125 0.4375
vt 0.125 0
vt 0 0
vt 0.125 0.4375
vt 0 0.4375
vt 0 0
vt 0.125 0
vt 0 0.4375
vt 0.125 0.4375
vt 0.125 0
vt 0 0
vt 0 0.875
vt 0 1
vt 0.125 1
vt 0.125 0.875
vn 0 0 -1
vn 1 0 0
vn 0 0 1
vn -1 0 0
vn 0 -1 0
usemtl m_d622643a-5f89-2a27-5982-4e9acc6e4f16
f 20/48/12 23/47/12 21/46/12 18/45/12
f 19/52/13 20/51/13 18/50/13 17/49/13
f 24/56/14 19/55/14 17/54/14 22/53/14
f 23/60/15 24/59/15 22/58/15 21/57/15
f 23/64/16 20/63/16 19/62/16 24/61/16
o cube
v -0.15625 -0.0625 -0.15625
v -0.15625 -0.0625 -0.28125
v -0.15625 -0.5 -0.15625
v -0.15625 -0.5 -0.28125
v -0.28125 -0.0625 -0.28125
v -0.28125 -0.0625 -0.15625
v -0.28125 -0.5 -0.28125
v -0.28125 -0.5 -0.15625
vt 0 0.4375
vt 0.125 0.4375
vt 0.125 0
vt 0 0
vt 0.125 0.4375
vt 0 0.4375
vt 0 0
vt 0.125 0
vt 0 0.4375
vt 0.125 0.4375
vt 0.125 0
vt 0 0
vt 0.125 0.4375
vt 0 0.4375
vt 0 0
vt 0.125 0
vt 0 0.875
vt 0 1
vt 0.125 1
vt 0.125 0.875
vn 0 0 -1
vn 1 0 0
vn 0 0 1
vn -1 0 0
vn 0 -1 0
usemtl m_d622643a-5f89-2a27-5982-4e9acc6e4f16
f 28/68/17 31/67/17 29/66/17 26/65/17
f 27/72/18 28/71/18 26/70/18 25/69/18
f 32/76/19 27/75/19 25/74/19 30/73/19
f 31/80/20 32/79/20 30/78/20 29/77/20
f 31/84/21 28/83/21 27/82/21 32/81/21
o cube
v 0.15625 -0.28125 -0.1875
v 0.15625 -0.28125 -0.25
v 0.15625 -0.40625 -0.1875
v 0.15625 -0.40625 -0.25
v -0.15625 -0.28125 -0.25
v -0.15625 -0.28125 -0.1875
v -0.15625 -0.40625 -0.25
v -0.15625 -0.40625 -0.1875
vt 0 0.125
vt 0 0.4375
vt 0.125 0.4375
vt 0.125 0.125
vt 0 0.125
vt 0 0.4375
vt 0.125 0.4375
vt 0.125 0.125
vt 0.0625 1
vt 0.0625 0.6875
vt 0 0.6875
vt 0 1
vt 0 0.6875
vt 0 1
vt 0.0625 1
vt 0.0625 0.6875
vn 0 0 -1
vn 0 0 1
vn 0 1 0
vn 0 -1 0
usemtl m_d622643a-5f89-2a27-5982-4e9acc6e4f16
f 36/88/22 39/87/22 37/86/22 34/85/22
f 40/92/23 35/91/23 33/90/23 38/89/23
f 38/96/24 33/95/24 34/94/24 37/93/24
f 39/100/25 36/99/25 35/98/25 40/97/25
o cube
v -0.15625 -0.0625 0.28125
v -0.15625 -0.0625 0.15625
v -0.15625 -0.5 0.28125
v -0.15625 -0.5 0.15625
v -0.28125 -0.0625 0.15625
v -0.28125 -0.0625 0.28125
v -0.28125 -0.5 0.15625
v -0.28125 -0.5 0.28125
vt 0.125 0.4375
vt 0 0.4375
vt 0 0
vt 0.125 0
vt 0 0.4375
vt 0.125 0.4375
vt 0.125 0
vt 0 0
vt 0.125 0.4375
vt 0 0.4375
vt 0 0
vt 0.125 0
vt 0 0.4375
vt 0.125 0.4375
vt 0.125 0
vt 0 0
vt 0 0.875
vt 0 1
vt 0.125 1
vt 0.125 0.875
vn 0 0 -1
vn 1 0 0
vn 0 0 1
vn -1 0 0
vn 0 -1 0
usemtl m_d622643a-5f89-2a27-5982-4e9acc6e4f16
f 44/104/26 47/103/26 45/102/26 42/101/26
f 43/108/27 44/107/27 42/106/27 41/105/27
f 48/112/28 43/111/28 41/110/28 46/109/28
f 47/116/29 48/115/29 46/114/29 45/113/29
f 47/120/30 44/119/30 43/118/30 48/117/30
o cube
v 0.15625 -0.28125 0.25
v 0.15625 -0.28125 0.1875
v 0.15625 -0.40625 0.25
v 0.15625 -0.40625 0.1875
v -0.15625 -0.28125 0.1875
v -0.15625 -0.28125 0.25
v -0.15625 -0.40625 0.1875
v -0.15625 -0.40625 0.25
vt 0 0.125
vt 0 0.4375
vt 0.125 0.4375
vt 0.125 0.125
vt 0 0.125
vt 0 0.4375
vt 0.125 0.4375
vt 0.125 0.125
vt 0.0625 1
vt 0.0625 0.71875
vt 0 0.71875
vt 0 1
vt 0 0.6875
vt 0 1
vt 0.0625 1
vt 0.0625 0.6875
vn 0 0 -1
vn 0 0 1
vn 0 1 0
vn 0 -1 0
usemtl m_d622643a-5f89-2a27-5982-4e9acc6e4f16
f 52/124/31 55/123/31 53/122/31 50/121/31
f 56/128/32 51/127/32 49/126/32 54/125/32
f 54/132/33 49/131/33 50/130/33 53/129/33
f 55/136/34 52/135/34 51/134/34 56/133/34
o cube
v -0.1875 -0.28125 0.15625
v -0.1875 -0.28125 -0.15625
v -0.1875 -0.40625 0.15625
v -0.1875 -0.40625 -0.15625
v -0.25 -0.28125 -0.15625
v -0.25 -0.28125 0.15625
v -0.25 -0.40625 -0.15625
v -0.25 -0.40625 0.15625
vt 0 0.125
vt 0 0.4375
vt 0.125 0.4375
vt 0.125 0.125
vt 0 0.125
vt 0 0.4375
vt 0.125 0.4375
vt 0.125 0.125
vt 0.0625 0.6875
vt 0 0.6875
vt 0 1
vt 0.0625 1
vt 0.0625 0.65625
vt 0 0.65625
vt 0 1
vt 0.0625 1
vn 1 0 0
vn -1 0 0
vn 0 1 0
vn 0 -1 0
usemtl m_d622643a-5f89-2a27-5982-4e9acc6e4f16
f 59/140/35 60/139/35 58/138/35 57/137/35
f 63/144/36 64/143/36 62/142/36 61/141/36
f 62/148/37 57/147/37 58/146/37 61/145/37
f 63/152/38 60/151/38 59/150/38 64/149/38
o cube
v 0.25 -0.28125 0.15625
v 0.25 -0.28125 -0.15625
v 0.25 -0.40625 0.15625
v 0.25 -0.40625 -0.15625
v 0.1875 -0.28125 -0.15625
v 0.1875 -0.28125 0.15625
v 0.1875 -0.40625 -0.15625
v 0.1875 -0.40625 0.15625
vt 0 0.125
vt 0 0.4375
vt 0.125 0.4375
vt 0.125 0.125
vt 0 0.125
vt 0 0.4375
vt 0.125 0.4375
vt 0.125 0.125
vt 0.0625 0.6875
vt 0 0.6875
vt 0 1
vt 0.0625 1
vt 0 1
vt 0.0625 1
vt 0.0625 0.6875
vt 0 0.6875
vn 1 0 0
vn -1 0 0
vn 0 1 0
vn 0 -1 0
usemtl m_d622643a-5f89-2a27-5982-4e9acc6e4f16
f 67/156/39 68/155/39 66/154/39 65/153/39
f 71/160/40 72/159/40 70/158/40 69/157/40
f 70/164/41 65/163/41 66/162/41 69/161/41
f 71/168/42 68/167/42 67/166/42 72/165/42